<svg xmlns="http://www.w3.org/2000/svg" xmlns:xlink="http://www.w3.org/1999/xlink" width="600" height="400" viewBox="0 0 2400 1600">
<defs>
  <clipPath id="clip790">
    <rect x="0" y="0" width="2400" height="1600"></rect>
  </clipPath>
</defs>
<path clip-path="url(#clip790)" d="M0 1600 L2400 1600 L2400 0 L0 0  Z" fill="#ffffff" fill-rule="evenodd" fill-opacity="1"></path>
<defs>
  <clipPath id="clip791">
    <rect x="480" y="0" width="1681" height="1600"></rect>
  </clipPath>
</defs>
<path clip-path="url(#clip790)" d="M184.191 1486.45 L2352.76 1486.45 L2352.76 47.2441 L184.191 47.2441  Z" fill="#ffffff" fill-rule="evenodd" fill-opacity="1"></path>
<defs>
  <clipPath id="clip792">
    <rect x="184" y="47" width="2170" height="1440"></rect>
  </clipPath>
</defs>
<polyline clip-path="url(#clip792)" style="stroke:#000000; stroke-linecap:round; stroke-linejoin:round; stroke-width:2; stroke-opacity:0.1; fill:none" points="446.817,1486.45 446.817,47.2441 "></polyline>
<polyline clip-path="url(#clip792)" style="stroke:#000000; stroke-linecap:round; stroke-linejoin:round; stroke-width:2; stroke-opacity:0.1; fill:none" points="857.123,1486.45 857.123,47.2441 "></polyline>
<polyline clip-path="url(#clip792)" style="stroke:#000000; stroke-linecap:round; stroke-linejoin:round; stroke-width:2; stroke-opacity:0.1; fill:none" points="1267.43,1486.45 1267.43,47.2441 "></polyline>
<polyline clip-path="url(#clip792)" style="stroke:#000000; stroke-linecap:round; stroke-linejoin:round; stroke-width:2; stroke-opacity:0.1; fill:none" points="1677.74,1486.45 1677.74,47.2441 "></polyline>
<polyline clip-path="url(#clip792)" style="stroke:#000000; stroke-linecap:round; stroke-linejoin:round; stroke-width:2; stroke-opacity:0.1; fill:none" points="2088.04,1486.45 2088.04,47.2441 "></polyline>
<polyline clip-path="url(#clip790)" style="stroke:#000000; stroke-linecap:round; stroke-linejoin:round; stroke-width:4; stroke-opacity:1; fill:none" points="184.191,1486.45 2352.76,1486.45 "></polyline>
<polyline clip-path="url(#clip790)" style="stroke:#000000; stroke-linecap:round; stroke-linejoin:round; stroke-width:4; stroke-opacity:1; fill:none" points="446.817,1486.45 446.817,1467.55 "></polyline>
<polyline clip-path="url(#clip790)" style="stroke:#000000; stroke-linecap:round; stroke-linejoin:round; stroke-width:4; stroke-opacity:1; fill:none" points="857.123,1486.45 857.123,1467.55 "></polyline>
<polyline clip-path="url(#clip790)" style="stroke:#000000; stroke-linecap:round; stroke-linejoin:round; stroke-width:4; stroke-opacity:1; fill:none" points="1267.43,1486.45 1267.43,1467.55 "></polyline>
<polyline clip-path="url(#clip790)" style="stroke:#000000; stroke-linecap:round; stroke-linejoin:round; stroke-width:4; stroke-opacity:1; fill:none" points="1677.74,1486.45 1677.74,1467.55 "></polyline>
<polyline clip-path="url(#clip790)" style="stroke:#000000; stroke-linecap:round; stroke-linejoin:round; stroke-width:4; stroke-opacity:1; fill:none" points="2088.04,1486.45 2088.04,1467.55 "></polyline>
<path clip-path="url(#clip790)" d="M394.144 1532.02 L423.82 1532.02 L423.82 1535.95 L394.144 1535.95 L394.144 1532.02 Z" fill="#000000" fill-rule="nonzero" fill-opacity="1"></path><path clip-path="url(#clip790)" d="M443.912 1517.37 Q440.301 1517.37 438.472 1520.93 Q436.667 1524.47 436.667 1531.6 Q436.667 1538.71 438.472 1542.27 Q440.301 1545.82 443.912 1545.82 Q447.546 1545.82 449.352 1542.27 Q451.181 1538.71 451.181 1531.6 Q451.181 1524.47 449.352 1520.93 Q447.546 1517.37 443.912 1517.37 M443.912 1513.66 Q449.722 1513.66 452.778 1518.27 Q455.856 1522.85 455.856 1531.6 Q455.856 1540.33 452.778 1544.94 Q449.722 1549.52 443.912 1549.52 Q438.102 1549.52 435.023 1544.94 Q431.968 1540.33 431.968 1531.6 Q431.968 1522.85 435.023 1518.27 Q438.102 1513.66 443.912 1513.66 Z" fill="#000000" fill-rule="nonzero" fill-opacity="1"></path><path clip-path="url(#clip790)" d="M464.074 1542.97 L468.958 1542.97 L468.958 1548.85 L464.074 1548.85 L464.074 1542.97 Z" fill="#000000" fill-rule="nonzero" fill-opacity="1"></path><path clip-path="url(#clip790)" d="M483.171 1544.91 L499.49 1544.91 L499.49 1548.85 L477.546 1548.85 L477.546 1544.91 Q480.208 1542.16 484.792 1537.53 Q489.398 1532.88 490.579 1531.53 Q492.824 1529.01 493.703 1527.27 Q494.606 1525.51 494.606 1523.82 Q494.606 1521.07 492.662 1519.33 Q490.741 1517.6 487.639 1517.6 Q485.44 1517.6 482.986 1518.36 Q480.555 1519.13 477.778 1520.68 L477.778 1515.95 Q480.602 1514.82 483.055 1514.24 Q485.509 1513.66 487.546 1513.66 Q492.916 1513.66 496.111 1516.35 Q499.305 1519.03 499.305 1523.52 Q499.305 1525.65 498.495 1527.57 Q497.708 1529.47 495.602 1532.07 Q495.023 1532.74 491.921 1535.95 Q488.819 1539.15 483.171 1544.91 Z" fill="#000000" fill-rule="nonzero" fill-opacity="1"></path><path clip-path="url(#clip790)" d="M804.265 1532.02 L833.941 1532.02 L833.941 1535.95 L804.265 1535.95 L804.265 1532.02 Z" fill="#000000" fill-rule="nonzero" fill-opacity="1"></path><path clip-path="url(#clip790)" d="M854.033 1517.37 Q850.422 1517.37 848.593 1520.93 Q846.788 1524.47 846.788 1531.6 Q846.788 1538.71 848.593 1542.27 Q850.422 1545.82 854.033 1545.82 Q857.667 1545.82 859.473 1542.27 Q861.302 1538.71 861.302 1531.6 Q861.302 1524.47 859.473 1520.93 Q857.667 1517.37 854.033 1517.37 M854.033 1513.66 Q859.843 1513.66 862.899 1518.27 Q865.978 1522.85 865.978 1531.6 Q865.978 1540.33 862.899 1544.94 Q859.843 1549.52 854.033 1549.52 Q848.223 1549.52 845.144 1544.94 Q842.089 1540.33 842.089 1531.6 Q842.089 1522.85 845.144 1518.27 Q848.223 1513.66 854.033 1513.66 Z" fill="#000000" fill-rule="nonzero" fill-opacity="1"></path><path clip-path="url(#clip790)" d="M874.195 1542.97 L879.079 1542.97 L879.079 1548.85 L874.195 1548.85 L874.195 1542.97 Z" fill="#000000" fill-rule="nonzero" fill-opacity="1"></path><path clip-path="url(#clip790)" d="M890.075 1544.91 L897.714 1544.91 L897.714 1518.55 L889.403 1520.21 L889.403 1515.95 L897.667 1514.29 L902.343 1514.29 L902.343 1544.91 L909.982 1544.91 L909.982 1548.85 L890.075 1548.85 L890.075 1544.91 Z" fill="#000000" fill-rule="nonzero" fill-opacity="1"></path><path clip-path="url(#clip790)" d="M1244.81 1517.37 Q1241.2 1517.37 1239.37 1520.93 Q1237.57 1524.47 1237.57 1531.6 Q1237.57 1538.71 1239.37 1542.27 Q1241.2 1545.82 1244.81 1545.82 Q1248.45 1545.82 1250.25 1542.27 Q1252.08 1538.71 1252.08 1531.6 Q1252.08 1524.47 1250.25 1520.93 Q1248.45 1517.37 1244.81 1517.37 M1244.81 1513.66 Q1250.62 1513.66 1253.68 1518.27 Q1256.76 1522.85 1256.76 1531.6 Q1256.76 1540.33 1253.68 1544.94 Q1250.62 1549.52 1244.81 1549.52 Q1239 1549.52 1235.93 1544.94 Q1232.87 1540.33 1232.87 1531.6 Q1232.87 1522.85 1235.93 1518.27 Q1239 1513.66 1244.81 1513.66 Z" fill="#000000" fill-rule="nonzero" fill-opacity="1"></path><path clip-path="url(#clip790)" d="M1264.98 1542.97 L1269.86 1542.97 L1269.86 1548.85 L1264.98 1548.85 L1264.98 1542.97 Z" fill="#000000" fill-rule="nonzero" fill-opacity="1"></path><path clip-path="url(#clip790)" d="M1290.05 1517.37 Q1286.43 1517.37 1284.61 1520.93 Q1282.8 1524.47 1282.8 1531.6 Q1282.8 1538.71 1284.61 1542.27 Q1286.43 1545.82 1290.05 1545.82 Q1293.68 1545.82 1295.49 1542.27 Q1297.31 1538.71 1297.31 1531.6 Q1297.31 1524.47 1295.49 1520.93 Q1293.68 1517.37 1290.05 1517.37 M1290.05 1513.66 Q1295.86 1513.66 1298.91 1518.27 Q1301.99 1522.85 1301.99 1531.6 Q1301.99 1540.33 1298.91 1544.94 Q1295.86 1549.52 1290.05 1549.52 Q1284.24 1549.52 1281.16 1544.94 Q1278.1 1540.33 1278.1 1531.6 Q1278.1 1522.85 1281.16 1518.27 Q1284.24 1513.66 1290.05 1513.66 Z" fill="#000000" fill-rule="nonzero" fill-opacity="1"></path><path clip-path="url(#clip790)" d="M1655.73 1517.37 Q1652.12 1517.37 1650.29 1520.93 Q1648.49 1524.47 1648.49 1531.6 Q1648.49 1538.71 1650.29 1542.27 Q1652.12 1545.82 1655.73 1545.82 Q1659.37 1545.82 1661.17 1542.27 Q1663 1538.71 1663 1531.6 Q1663 1524.47 1661.17 1520.93 Q1659.37 1517.37 1655.73 1517.37 M1655.73 1513.66 Q1661.54 1513.66 1664.6 1518.27 Q1667.68 1522.85 1667.68 1531.6 Q1667.68 1540.33 1664.6 1544.94 Q1661.54 1549.52 1655.73 1549.52 Q1649.92 1549.52 1646.85 1544.94 Q1643.79 1540.33 1643.79 1531.6 Q1643.79 1522.85 1646.85 1518.27 Q1649.92 1513.66 1655.73 1513.66 Z" fill="#000000" fill-rule="nonzero" fill-opacity="1"></path><path clip-path="url(#clip790)" d="M1675.9 1542.97 L1680.78 1542.97 L1680.78 1548.85 L1675.9 1548.85 L1675.9 1542.97 Z" fill="#000000" fill-rule="nonzero" fill-opacity="1"></path><path clip-path="url(#clip790)" d="M1691.78 1544.91 L1699.41 1544.91 L1699.41 1518.55 L1691.1 1520.21 L1691.1 1515.95 L1699.37 1514.29 L1704.04 1514.29 L1704.04 1544.91 L1711.68 1544.91 L1711.68 1548.85 L1691.78 1548.85 L1691.78 1544.91 Z" fill="#000000" fill-rule="nonzero" fill-opacity="1"></path><path clip-path="url(#clip790)" d="M2066.23 1517.37 Q2062.61 1517.37 2060.79 1520.93 Q2058.98 1524.47 2058.98 1531.6 Q2058.98 1538.71 2060.79 1542.27 Q2062.61 1545.82 2066.23 1545.82 Q2069.86 1545.82 2071.67 1542.27 Q2073.49 1538.71 2073.49 1531.6 Q2073.49 1524.47 2071.67 1520.93 Q2069.86 1517.37 2066.23 1517.37 M2066.23 1513.66 Q2072.04 1513.66 2075.09 1518.27 Q2078.17 1522.85 2078.17 1531.6 Q2078.17 1540.33 2075.09 1544.94 Q2072.04 1549.52 2066.23 1549.52 Q2060.42 1549.52 2057.34 1544.94 Q2054.28 1540.33 2054.28 1531.6 Q2054.28 1522.85 2057.34 1518.27 Q2060.42 1513.66 2066.23 1513.66 Z" fill="#000000" fill-rule="nonzero" fill-opacity="1"></path><path clip-path="url(#clip790)" d="M2086.39 1542.97 L2091.27 1542.97 L2091.27 1548.85 L2086.39 1548.85 L2086.39 1542.97 Z" fill="#000000" fill-rule="nonzero" fill-opacity="1"></path><path clip-path="url(#clip790)" d="M2105.48 1544.91 L2121.8 1544.91 L2121.8 1548.85 L2099.86 1548.85 L2099.86 1544.91 Q2102.52 1542.16 2107.1 1537.53 Q2111.71 1532.88 2112.89 1531.53 Q2115.14 1529.01 2116.02 1527.27 Q2116.92 1525.51 2116.92 1523.82 Q2116.92 1521.07 2114.98 1519.33 Q2113.05 1517.6 2109.95 1517.6 Q2107.75 1517.6 2105.3 1518.36 Q2102.87 1519.13 2100.09 1520.68 L2100.09 1515.95 Q2102.91 1514.82 2105.37 1514.24 Q2107.82 1513.66 2109.86 1513.66 Q2115.23 1513.66 2118.42 1516.35 Q2121.62 1519.03 2121.62 1523.52 Q2121.62 1525.65 2120.81 1527.57 Q2120.02 1529.47 2117.91 1532.07 Q2117.34 1532.74 2114.23 1535.95 Q2111.13 1539.15 2105.48 1544.91 Z" fill="#000000" fill-rule="nonzero" fill-opacity="1"></path><polyline clip-path="url(#clip792)" style="stroke:#000000; stroke-linecap:round; stroke-linejoin:round; stroke-width:2; stroke-opacity:0.1; fill:none" points="184.191,1445.72 2352.76,1445.72 "></polyline>
<polyline clip-path="url(#clip792)" style="stroke:#000000; stroke-linecap:round; stroke-linejoin:round; stroke-width:2; stroke-opacity:0.1; fill:none" points="184.191,1117.06 2352.76,1117.06 "></polyline>
<polyline clip-path="url(#clip792)" style="stroke:#000000; stroke-linecap:round; stroke-linejoin:round; stroke-width:2; stroke-opacity:0.1; fill:none" points="184.191,788.404 2352.76,788.404 "></polyline>
<polyline clip-path="url(#clip792)" style="stroke:#000000; stroke-linecap:round; stroke-linejoin:round; stroke-width:2; stroke-opacity:0.1; fill:none" points="184.191,459.745 2352.76,459.745 "></polyline>
<polyline clip-path="url(#clip792)" style="stroke:#000000; stroke-linecap:round; stroke-linejoin:round; stroke-width:2; stroke-opacity:0.1; fill:none" points="184.191,131.087 2352.76,131.087 "></polyline>
<polyline clip-path="url(#clip790)" style="stroke:#000000; stroke-linecap:round; stroke-linejoin:round; stroke-width:4; stroke-opacity:1; fill:none" points="184.191,1486.45 184.191,47.2441 "></polyline>
<polyline clip-path="url(#clip790)" style="stroke:#000000; stroke-linecap:round; stroke-linejoin:round; stroke-width:4; stroke-opacity:1; fill:none" points="184.191,1445.72 203.088,1445.72 "></polyline>
<polyline clip-path="url(#clip790)" style="stroke:#000000; stroke-linecap:round; stroke-linejoin:round; stroke-width:4; stroke-opacity:1; fill:none" points="184.191,1117.06 203.088,1117.06 "></polyline>
<polyline clip-path="url(#clip790)" style="stroke:#000000; stroke-linecap:round; stroke-linejoin:round; stroke-width:4; stroke-opacity:1; fill:none" points="184.191,788.404 203.088,788.404 "></polyline>
<polyline clip-path="url(#clip790)" style="stroke:#000000; stroke-linecap:round; stroke-linejoin:round; stroke-width:4; stroke-opacity:1; fill:none" points="184.191,459.745 203.088,459.745 "></polyline>
<polyline clip-path="url(#clip790)" style="stroke:#000000; stroke-linecap:round; stroke-linejoin:round; stroke-width:4; stroke-opacity:1; fill:none" points="184.191,131.087 203.088,131.087 "></polyline>
<path clip-path="url(#clip790)" d="M91.0151 1431.52 Q87.404 1431.52 85.5753 1435.08 Q83.7697 1438.63 83.7697 1445.76 Q83.7697 1452.86 85.5753 1456.43 Q87.404 1459.97 91.0151 1459.97 Q94.6493 1459.97 96.4548 1456.43 Q98.2835 1452.86 98.2835 1445.76 Q98.2835 1438.63 96.4548 1435.08 Q94.6493 1431.52 91.0151 1431.52 M91.0151 1427.82 Q96.8252 1427.82 99.8808 1432.42 Q102.959 1437.01 102.959 1445.76 Q102.959 1454.48 99.8808 1459.09 Q96.8252 1463.67 91.0151 1463.67 Q85.2049 1463.67 82.1262 1459.09 Q79.0707 1454.48 79.0707 1445.76 Q79.0707 1437.01 82.1262 1432.42 Q85.2049 1427.82 91.0151 1427.82 Z" fill="#000000" fill-rule="nonzero" fill-opacity="1"></path><path clip-path="url(#clip790)" d="M111.177 1457.12 L116.061 1457.12 L116.061 1463 L111.177 1463 L111.177 1457.12 Z" fill="#000000" fill-rule="nonzero" fill-opacity="1"></path><path clip-path="url(#clip790)" d="M136.246 1431.52 Q132.635 1431.52 130.807 1435.08 Q129.001 1438.63 129.001 1445.76 Q129.001 1452.86 130.807 1456.43 Q132.635 1459.97 136.246 1459.97 Q139.881 1459.97 141.686 1456.43 Q143.515 1452.86 143.515 1445.76 Q143.515 1438.63 141.686 1435.08 Q139.881 1431.52 136.246 1431.52 M136.246 1427.82 Q142.056 1427.82 145.112 1432.42 Q148.191 1437.01 148.191 1445.76 Q148.191 1454.48 145.112 1459.09 Q142.056 1463.67 136.246 1463.67 Q130.436 1463.67 127.357 1459.09 Q124.302 1454.48 124.302 1445.76 Q124.302 1437.01 127.357 1432.42 Q130.436 1427.82 136.246 1427.82 Z" fill="#000000" fill-rule="nonzero" fill-opacity="1"></path><path clip-path="url(#clip790)" d="M86.0382 1130.41 L102.358 1130.41 L102.358 1134.34 L80.4133 1134.34 L80.4133 1130.41 Q83.0753 1127.65 87.6586 1123.02 Q92.2651 1118.37 93.4456 1117.03 Q95.691 1114.5 96.5706 1112.77 Q97.4734 1111.01 97.4734 1109.32 Q97.4734 1106.56 95.5289 1104.83 Q93.6076 1103.09 90.5058 1103.09 Q88.3067 1103.09 85.8531 1103.86 Q83.4225 1104.62 80.6447 1106.17 L80.6447 1101.45 Q83.4688 1100.31 85.9225 1099.74 Q88.3762 1099.16 90.4132 1099.16 Q95.7836 1099.16 98.978 1101.84 Q102.172 1104.53 102.172 1109.02 Q102.172 1111.15 101.362 1113.07 Q100.575 1114.97 98.4687 1117.56 Q97.89 1118.23 94.7882 1121.45 Q91.6864 1124.64 86.0382 1130.41 Z" fill="#000000" fill-rule="nonzero" fill-opacity="1"></path><path clip-path="url(#clip790)" d="M112.172 1128.46 L117.057 1128.46 L117.057 1134.34 L112.172 1134.34 L112.172 1128.46 Z" fill="#000000" fill-rule="nonzero" fill-opacity="1"></path><path clip-path="url(#clip790)" d="M127.288 1099.78 L145.644 1099.78 L145.644 1103.72 L131.57 1103.72 L131.57 1112.19 Q132.589 1111.84 133.607 1111.68 Q134.626 1111.49 135.644 1111.49 Q141.431 1111.49 144.811 1114.67 Q148.191 1117.84 148.191 1123.25 Q148.191 1128.83 144.718 1131.93 Q141.246 1135.01 134.927 1135.01 Q132.751 1135.01 130.482 1134.64 Q128.237 1134.27 125.83 1133.53 L125.83 1128.83 Q127.913 1129.97 130.135 1130.52 Q132.357 1131.08 134.834 1131.08 Q138.839 1131.08 141.177 1128.97 Q143.515 1126.87 143.515 1123.25 Q143.515 1119.64 141.177 1117.54 Q138.839 1115.43 134.834 1115.43 Q132.959 1115.43 131.084 1115.85 Q129.232 1116.26 127.288 1117.14 L127.288 1099.78 Z" fill="#000000" fill-rule="nonzero" fill-opacity="1"></path><path clip-path="url(#clip790)" d="M81.0614 771.124 L99.4178 771.124 L99.4178 775.059 L85.3438 775.059 L85.3438 783.531 Q86.3623 783.184 87.3808 783.022 Q88.3993 782.837 89.4178 782.837 Q95.2049 782.837 98.5845 786.008 Q101.964 789.179 101.964 794.596 Q101.964 800.174 98.4919 803.276 Q95.0197 806.355 88.7003 806.355 Q86.5243 806.355 84.2558 805.985 Q82.0105 805.614 79.6031 804.873 L79.6031 800.174 Q81.6864 801.309 83.9086 801.864 Q86.1308 802.42 88.6077 802.42 Q92.6123 802.42 94.9502 800.313 Q97.2882 798.207 97.2882 794.596 Q97.2882 790.985 94.9502 788.878 Q92.6123 786.772 88.6077 786.772 Q86.7327 786.772 84.8577 787.188 Q83.0058 787.605 81.0614 788.485 L81.0614 771.124 Z" fill="#000000" fill-rule="nonzero" fill-opacity="1"></path><path clip-path="url(#clip790)" d="M111.177 799.804 L116.061 799.804 L116.061 805.684 L111.177 805.684 L111.177 799.804 Z" fill="#000000" fill-rule="nonzero" fill-opacity="1"></path><path clip-path="url(#clip790)" d="M136.246 774.202 Q132.635 774.202 130.807 777.767 Q129.001 781.309 129.001 788.438 Q129.001 795.545 130.807 799.11 Q132.635 802.651 136.246 802.651 Q139.881 802.651 141.686 799.11 Q143.515 795.545 143.515 788.438 Q143.515 781.309 141.686 777.767 Q139.881 774.202 136.246 774.202 M136.246 770.499 Q142.056 770.499 145.112 775.105 Q148.191 779.688 148.191 788.438 Q148.191 797.165 145.112 801.772 Q142.056 806.355 136.246 806.355 Q130.436 806.355 127.357 801.772 Q124.302 797.165 124.302 788.438 Q124.302 779.688 127.357 775.105 Q130.436 770.499 136.246 770.499 Z" fill="#000000" fill-rule="nonzero" fill-opacity="1"></path><path clip-path="url(#clip790)" d="M80.8299 442.465 L103.052 442.465 L103.052 444.456 L90.5058 477.025 L85.6216 477.025 L97.4271 446.4 L80.8299 446.4 L80.8299 442.465 Z" fill="#000000" fill-rule="nonzero" fill-opacity="1"></path><path clip-path="url(#clip790)" d="M112.172 471.146 L117.057 471.146 L117.057 477.025 L112.172 477.025 L112.172 471.146 Z" fill="#000000" fill-rule="nonzero" fill-opacity="1"></path><path clip-path="url(#clip790)" d="M127.288 442.465 L145.644 442.465 L145.644 446.4 L131.57 446.4 L131.57 454.873 Q132.589 454.525 133.607 454.363 Q134.626 454.178 135.644 454.178 Q141.431 454.178 144.811 457.349 Q148.191 460.521 148.191 465.937 Q148.191 471.516 144.718 474.618 Q141.246 477.696 134.927 477.696 Q132.751 477.696 130.482 477.326 Q128.237 476.956 125.83 476.215 L125.83 471.516 Q127.913 472.65 130.135 473.206 Q132.357 473.761 134.834 473.761 Q138.839 473.761 141.177 471.655 Q143.515 469.548 143.515 465.937 Q143.515 462.326 141.177 460.22 Q138.839 458.113 134.834 458.113 Q132.959 458.113 131.084 458.53 Q129.232 458.947 127.288 459.826 L127.288 442.465 Z" fill="#000000" fill-rule="nonzero" fill-opacity="1"></path><path clip-path="url(#clip790)" d="M51.6634 144.432 L59.3023 144.432 L59.3023 118.066 L50.9921 119.733 L50.9921 115.473 L59.256 113.807 L63.9319 113.807 L63.9319 144.432 L71.5707 144.432 L71.5707 148.367 L51.6634 148.367 L51.6634 144.432 Z" fill="#000000" fill-rule="nonzero" fill-opacity="1"></path><path clip-path="url(#clip790)" d="M91.0151 116.885 Q87.404 116.885 85.5753 120.45 Q83.7697 123.992 83.7697 131.121 Q83.7697 138.228 85.5753 141.793 Q87.404 145.334 91.0151 145.334 Q94.6493 145.334 96.4548 141.793 Q98.2835 138.228 98.2835 131.121 Q98.2835 123.992 96.4548 120.45 Q94.6493 116.885 91.0151 116.885 M91.0151 113.182 Q96.8252 113.182 99.8808 117.788 Q102.959 122.372 102.959 131.121 Q102.959 139.848 99.8808 144.455 Q96.8252 149.038 91.0151 149.038 Q85.2049 149.038 82.1262 144.455 Q79.0707 139.848 79.0707 131.121 Q79.0707 122.372 82.1262 117.788 Q85.2049 113.182 91.0151 113.182 Z" fill="#000000" fill-rule="nonzero" fill-opacity="1"></path><path clip-path="url(#clip790)" d="M111.177 142.487 L116.061 142.487 L116.061 148.367 L111.177 148.367 L111.177 142.487 Z" fill="#000000" fill-rule="nonzero" fill-opacity="1"></path><path clip-path="url(#clip790)" d="M136.246 116.885 Q132.635 116.885 130.807 120.45 Q129.001 123.992 129.001 131.121 Q129.001 138.228 130.807 141.793 Q132.635 145.334 136.246 145.334 Q139.881 145.334 141.686 141.793 Q143.515 138.228 143.515 131.121 Q143.515 123.992 141.686 120.45 Q139.881 116.885 136.246 116.885 M136.246 113.182 Q142.056 113.182 145.112 117.788 Q148.191 122.372 148.191 131.121 Q148.191 139.848 145.112 144.455 Q142.056 149.038 136.246 149.038 Q130.436 149.038 127.357 144.455 Q124.302 139.848 124.302 131.121 Q124.302 122.372 127.357 117.788 Q130.436 113.182 136.246 113.182 Z" fill="#000000" fill-rule="nonzero" fill-opacity="1"></path><polyline clip-path="url(#clip792)" style="stroke:#000000; stroke-linecap:round; stroke-linejoin:round; stroke-width:4; stroke-opacity:1; fill:none" points="245.565,1445.72 255.846,1445.71 266.126,1445.7 276.407,1445.66 286.687,1445.59 296.968,1445.44 307.248,1445.18 317.529,1444.71 327.809,1443.96 338.09,1442.81 348.37,1441.19 358.65,1439.05 368.931,1436.43 379.211,1433.47 389.492,1430.39 399.772,1427.49 410.053,1425.04 420.333,1423.28 430.614,1422.33 440.894,1422.19 451.175,1422.77 461.455,1423.92 471.736,1425.49 482.016,1427.32 492.297,1429.3 502.577,1431.27 512.858,1433.06 523.138,1434.49 533.419,1435.4 543.699,1435.68 553.98,1435.31 564.26,1434.35 574.541,1432.95 584.821,1431.27 595.102,1429.44 605.382,1427.56 615.663,1425.7 625.943,1423.94 636.224,1422.38 646.504,1421.15 656.785,1420.35 667.065,1420.04 677.345,1420.16 687.626,1420.53 697.906,1420.87 708.187,1420.9 718.467,1420.36 728.748,1419.06 739.028,1416.85 749.309,1413.65 759.589,1409.36 769.87,1403.95 780.15,1397.47 790.431,1390.07 800.711,1382.05 810.992,1373.81 821.272,1365.73 831.553,1358.12 841.833,1351.12 852.114,1344.6 862.394,1338.27 872.675,1331.62 882.955,1324.02 893.236,1314.8 903.516,1303.31 913.797,1289.01 924.077,1271.6 934.358,1251.1 944.638,1227.94 954.919,1202.9 965.199,1177.02 975.48,1151.39 985.76,1126.85 996.04,1103.89 1006.32,1082.51 1016.6,1062.3 1026.88,1042.57 1037.16,1022.55 1047.44,1001.41 1057.72,978.29 1068,952.212 1078.28,921.974 1088.56,886.197 1098.85,843.556 1109.13,793.18 1119.41,735.097 1129.69,670.508 1139.97,601.728 1150.25,531.741 1160.53,463.521 1170.81,399.383 1181.09,340.653 1191.37,287.792 1201.65,240.889 1211.93,200.272 1222.21,166.891 1232.49,142.264 1242.77,127.98 1253.05,124.963 1263.33,132.851 1273.61,149.779 1283.89,172.702 1294.17,198.161 1304.45,223.221 1314.74,246.263 1325.02,267.341 1335.3,288.019 1345.58,310.728 1355.86,337.89 1366.14,371.097 1376.42,410.645 1386.7,455.569 1396.98,504.143 1407.26,554.599 1417.54,605.747 1427.82,657.236 1438.1,709.358 1448.38,762.556 1458.66,816.873 1468.94,871.618 1479.22,925.38 1489.5,976.343 1499.78,1022.76 1510.06,1063.42 1520.35,1097.85 1530.63,1126.44 1540.91,1150.23 1551.19,1170.67 1561.47,1189.27 1571.75,1207.34 1582.03,1225.75 1592.31,1244.85 1602.59,1264.46 1612.87,1283.99 1623.15,1302.62 1633.43,1319.53 1643.71,1334.04 1653.99,1345.74 1664.27,1354.52 1674.55,1360.52 1684.83,1364.05 1695.11,1365.48 1705.39,1365.27 1715.67,1363.91 1725.95,1361.98 1736.24,1360.15 1746.52,1359.12 1756.8,1359.54 1767.08,1361.88 1777.36,1366.34 1787.64,1372.79 1797.92,1380.8 1808.2,1389.74 1818.48,1398.88 1828.76,1407.57 1839.04,1415.29 1849.32,1421.69 1859.6,1426.61 1869.88,1430.08 1880.16,1432.26 1890.44,1433.4 1900.72,1433.88 1911,1434.05 1921.28,1434.27 1931.56,1434.78 1941.84,1435.68 1952.13,1436.96 1962.41,1438.48 1972.69,1440.07 1982.97,1441.56 1993.25,1442.8 2003.53,1443.74 2013.81,1444.34 2024.09,1444.6 2034.37,1444.53 2044.65,1444.12 2054.93,1443.36 2065.21,1442.28 2075.49,1440.9 2085.77,1439.36 2096.05,1437.81 2106.33,1436.48 2116.61,1435.58 2126.89,1435.26 2137.17,1435.58 2147.45,1436.49 2157.74,1437.83 2168.02,1439.38 2178.3,1440.94 2188.58,1442.33 2198.86,1443.46 2209.14,1444.31 2219.42,1444.89 2229.7,1445.26 2239.98,1445.48 2250.26,1445.6 2260.54,1445.67 2270.82,1445.7 2281.1,1445.71 2291.38,1445.72 "></polyline>
<polyline clip-path="url(#clip792)" style="stroke:#ff0000; stroke-linecap:round; stroke-linejoin:round; stroke-width:4; stroke-opacity:1; fill:none" points="410.106,1445.04 414.209,1444.99 418.312,1444.94 422.415,1444.88 426.518,1444.82 430.621,1444.76 434.724,1444.69 438.827,1444.62 442.93,1444.55 447.033,1444.46 451.136,1444.38 455.239,1444.29 459.342,1444.19 463.445,1444.09 467.549,1443.98 471.652,1443.86 475.755,1443.74 479.858,1443.61 483.961,1443.47 488.064,1443.32 492.167,1443.17 496.27,1443 500.373,1442.83 504.476,1442.64 508.579,1442.45 512.682,1442.24 516.785,1442.02 520.888,1441.79 524.991,1441.55 529.094,1441.29 533.198,1441.02 537.301,1440.73 541.404,1440.43 545.507,1440.11 549.61,1439.77 553.713,1439.42 557.816,1439.04 561.919,1438.65 566.022,1438.24 570.125,1437.8 574.228,1437.34 578.331,1436.86 582.434,1436.35 586.537,1435.82 590.64,1435.26 594.743,1434.68 598.847,1434.06 602.95,1433.41 607.053,1432.74 611.156,1432.03 615.259,1431.28 619.362,1430.5 623.465,1429.69 627.568,1428.83 631.671,1427.94 635.774,1427 639.877,1426.03 643.98,1425 648.083,1423.94 652.186,1422.82 656.289,1421.66 660.392,1420.44 664.496,1419.17 668.599,1417.85 672.702,1416.47 676.805,1415.04 680.908,1413.54 685.011,1411.98 689.114,1410.36 693.217,1408.67 697.32,1406.92 701.423,1405.09 705.526,1403.2 709.629,1401.23 713.732,1399.18 717.835,1397.06 721.938,1394.85 726.041,1392.57 730.145,1390.2 734.248,1387.74 738.351,1385.2 742.454,1382.56 746.557,1379.83 750.66,1377.01 754.763,1374.09 758.866,1371.07 762.969,1367.95 767.072,1364.72 771.175,1361.39 775.278,1357.95 779.381,1354.4 783.484,1350.74 787.587,1346.96 791.69,1343.07 795.794,1339.06 799.897,1334.93 804,1330.68 808.103,1326.31 812.206,1321.81 816.309,1317.18 820.412,1312.43 824.515,1307.54 828.618,1302.53 832.721,1297.38 836.824,1292.09 840.927,1286.68 845.03,1281.12 849.133,1275.43 853.236,1269.6 857.34,1263.63 861.443,1257.52 865.546,1251.26 869.649,1244.87 873.752,1238.34 877.855,1231.67 881.958,1224.85 886.061,1217.89 890.164,1210.79 894.267,1203.56 898.37,1196.18 902.473,1188.66 906.576,1181 910.679,1173.2 914.782,1165.27 918.885,1157.21 922.989,1149.01 927.092,1140.67 931.195,1132.21 935.298,1123.62 939.401,1114.91 943.504,1106.07 947.607,1097.11 951.71,1088.03 955.813,1078.84 959.916,1069.54 964.019,1060.13 968.122,1050.61 972.225,1041 976.328,1031.29 980.431,1021.48 984.534,1011.59 988.638,1001.62 992.741,991.564 996.844,981.437 1000.95,971.242 1005.05,960.984 1009.15,950.669 1013.26,940.302 1017.36,929.889 1021.46,919.437 1025.57,908.95 1029.67,898.437 1033.77,887.902 1037.87,877.354 1041.98,866.798 1046.08,856.242 1050.18,845.692 1054.29,835.157 1058.39,824.642 1062.49,814.156 1066.6,803.707 1070.7,793.3 1074.8,782.946 1078.9,772.65 1083.01,762.421 1087.11,752.267 1091.21,742.195 1095.32,732.214 1099.42,722.332 1103.52,712.556 1107.63,702.894 1111.73,693.355 1115.83,683.946 1119.94,674.676 1124.04,665.552 1128.14,656.581 1132.24,647.773 1136.35,639.134 1140.45,630.671 1144.55,622.394 1148.66,614.308 1152.76,606.421 1156.86,598.741 1160.97,591.274 1165.07,584.027 1169.17,577.007 1173.28,570.221 1177.38,563.674 1181.48,557.374 1185.58,551.325 1189.69,545.534 1193.79,540.005 1197.89,534.746 1202,529.76 1206.1,525.052 1210.2,520.627 1214.31,516.489 1218.41,512.642 1222.51,509.091 1226.62,505.837 1230.72,502.886 1234.82,500.239 1238.92,497.899 1243.03,495.869 1247.13,494.15 1251.23,492.745 1255.34,491.654 1259.44,490.879 1263.54,490.42 1267.65,490.278 1271.75,490.453 1275.85,490.945 1279.96,491.754 1284.06,492.878 1288.16,494.317 1292.26,496.068 1296.37,498.131 1300.47,500.503 1304.57,503.182 1308.68,506.166 1312.78,509.451 1316.88,513.034 1320.99,516.911 1325.09,521.079 1329.19,525.534 1333.29,530.272 1337.4,535.287 1341.5,540.575 1345.6,546.131 1349.71,551.95 1353.81,558.025 1357.91,564.352 1362.02,570.925 1366.12,577.736 1370.22,584.78 1374.33,592.05 1378.43,599.54 1382.53,607.242 1386.63,615.15 1390.74,623.256 1394.84,631.554 1398.94,640.035 1403.05,648.692 1407.15,657.519 1411.25,666.505 1415.36,675.645 1419.46,684.931 1423.56,694.354 1427.67,703.906 1431.77,713.58 1435.87,723.368 1439.97,733.261 1444.08,743.252 1448.18,753.332 1452.28,763.495 1456.39,773.731 1460.49,784.033 1464.59,794.394 1468.7,804.805 1472.8,815.259 1476.9,825.748 1481.01,836.265 1485.11,846.803 1489.21,857.353 1493.31,867.91 1497.42,878.465 1501.52,889.012 1505.62,899.545 1509.73,910.056 1513.83,920.539 1517.93,930.988 1522.04,941.396 1526.14,951.758 1530.24,962.067 1534.34,972.319 1538.45,982.507 1542.55,992.626 1546.65,1002.67 1550.76,1012.64 1554.86,1022.52 1558.96,1032.31 1563.07,1042.01 1567.17,1051.62 1571.27,1061.12 1575.38,1070.52 1579.48,1079.81 1583.58,1088.99 1587.68,1098.06 1591.79,1107 1595.89,1115.83 1599.99,1124.53 1604.1,1133.11 1608.2,1141.56 1612.3,1149.88 1616.41,1158.06 1620.51,1166.11 1624.61,1174.03 1628.72,1181.81 1632.82,1189.46 1636.92,1196.96 1641.02,1204.32 1645.13,1211.55 1649.23,1218.63 1653.33,1225.57 1657.44,1232.38 1661.54,1239.04 1665.64,1245.55 1669.75,1251.93 1673.85,1258.17 1677.95,1264.26 1682.06,1270.22 1686.16,1276.03 1690.26,1281.71 1694.36,1287.25 1698.47,1292.66 1702.57,1297.93 1706.67,1303.06 1710.78,1308.06 1714.88,1312.93 1718.98,1317.68 1723.09,1322.29 1727.19,1326.77 1731.29,1331.14 1735.39,1335.37 1739.5,1339.49 1743.6,1343.49 1747.7,1347.37 1751.81,1351.13 1755.91,1354.78 1760.01,1358.32 1764.12,1361.74 1768.22,1365.06 1772.32,1368.28 1776.43,1371.39 1780.53,1374.4 1784.63,1377.31 1788.73,1380.12 1792.84,1382.84 1796.94,1385.47 1801.04,1388.01 1805.15,1390.45 1809.25,1392.81 1813.35,1395.09 1817.46,1397.29 1821.56,1399.4 1825.66,1401.44 1829.77,1403.4 1833.87,1405.29 1837.97,1407.11 1842.07,1408.85 1846.18,1410.53 1850.28,1412.15 1854.38,1413.7 1858.49,1415.19 1862.59,1416.62 1866.69,1417.99 1870.8,1419.31 1874.9,1420.57 1879,1421.78 1883.11,1422.94 1887.21,1424.05 1891.31,1425.11 1895.41,1426.13 1899.52,1427.1 1903.62,1428.03 1907.72,1428.92 1911.83,1429.77 1915.93,1430.59 1920.03,1431.36 1924.14,1432.1 1928.24,1432.81 1932.34,1433.48 1936.45,1434.13 1940.55,1434.74 1944.65,1435.32 1948.75,1435.88 1952.86,1436.41 1956.96,1436.91 1961.06,1437.39 1965.17,1437.85 1969.27,1438.28 1973.37,1438.69 1977.48,1439.08 1981.58,1439.45 1985.68,1439.81 1989.78,1440.14 1993.89,1440.46 1997.99,1440.76 2002.09,1441.05 2006.2,1441.32 2010.3,1441.57 2014.4,1441.81 2018.51,1442.04 2022.61,1442.26 2026.71,1442.47 2030.82,1442.66 2034.92,1442.85 2039.02,1443.02 2043.12,1443.18 2047.23,1443.34 2051.33,1443.48 2055.43,1443.62 2059.54,1443.75 2063.64,1443.87 2067.74,1443.99 2071.85,1444.1 2075.95,1444.2 2080.05,1444.3 2084.16,1444.39 2088.26,1444.47 2092.36,1444.55 2096.46,1444.63 2100.57,1444.7 2104.67,1444.77 2108.77,1444.83 2112.88,1444.89 2116.98,1444.94 2121.08,1444.99 2125.19,1445.04 "></polyline>
<polyline clip-path="url(#clip792)" style="stroke:#0000ff; stroke-linecap:round; stroke-linejoin:round; stroke-width:4; stroke-opacity:1; fill:none" points="410.106,1441.21 414.209,1441.11 418.312,1441.01 422.415,1440.9 426.518,1440.79 430.621,1440.68 434.724,1440.56 438.827,1440.44 442.93,1440.32 447.033,1440.2 451.136,1440.07 455.239,1439.94 459.342,1439.8 463.445,1439.66 467.549,1439.52 471.652,1439.37 475.755,1439.22 479.858,1439.07 483.961,1438.91 488.064,1438.74 492.167,1438.57 496.27,1438.4 500.373,1438.22 504.476,1438.04 508.579,1437.85 512.682,1437.66 516.785,1437.46 520.888,1437.25 524.991,1437.04 529.094,1436.82 533.198,1436.6 537.301,1436.37 541.404,1436.13 545.507,1435.89 549.61,1435.64 553.713,1435.38 557.816,1435.11 561.919,1434.84 566.022,1434.56 570.125,1434.27 574.228,1433.97 578.331,1433.66 582.434,1433.34 586.537,1433.01 590.64,1432.67 594.743,1432.33 598.847,1431.97 602.95,1431.6 607.053,1431.22 611.156,1430.82 615.259,1430.42 619.362,1430 623.465,1429.57 627.568,1429.12 631.671,1428.66 635.774,1428.19 639.877,1427.7 643.98,1427.19 648.083,1426.67 652.186,1426.14 656.289,1425.58 660.392,1425.01 664.496,1424.42 668.599,1423.8 672.702,1423.17 676.805,1422.52 680.908,1421.85 685.011,1421.15 689.114,1420.43 693.217,1419.69 697.32,1418.92 701.423,1418.12 705.526,1417.3 709.629,1416.45 713.732,1415.57 717.835,1414.67 721.938,1413.73 726.041,1412.76 730.145,1411.75 734.248,1410.71 738.351,1409.64 742.454,1408.53 746.557,1407.37 750.66,1406.18 754.763,1404.95 758.866,1403.67 762.969,1402.35 767.072,1400.98 771.175,1399.56 775.278,1398.1 779.381,1396.58 783.484,1395 787.587,1393.37 791.69,1391.69 795.794,1389.94 799.897,1388.12 804,1386.25 808.103,1384.3 812.206,1382.28 816.309,1380.19 820.412,1378.03 824.515,1375.78 828.618,1373.45 832.721,1371.04 836.824,1368.54 840.927,1365.94 845.03,1363.25 849.133,1360.47 853.236,1357.57 857.34,1354.58 861.443,1351.47 865.546,1348.24 869.649,1344.9 873.752,1341.43 877.855,1337.83 881.958,1334.11 886.061,1330.24 890.164,1326.23 894.267,1322.07 898.37,1317.75 902.473,1313.28 906.576,1308.64 910.679,1303.82 914.782,1298.83 918.885,1293.66 922.989,1288.3 927.092,1282.73 931.195,1276.97 935.298,1270.99 939.401,1264.8 943.504,1258.38 947.607,1251.72 951.71,1244.83 955.813,1237.69 959.916,1230.29 964.019,1222.63 968.122,1214.7 972.225,1206.48 976.328,1197.98 980.431,1189.18 984.534,1180.08 988.638,1170.66 992.741,1160.93 996.844,1150.86 1000.95,1140.46 1005.05,1129.71 1009.15,1118.61 1013.26,1107.16 1017.36,1095.33 1021.46,1083.13 1025.57,1070.55 1029.67,1057.58 1033.77,1044.22 1037.87,1030.46 1041.98,1016.3 1046.08,1001.74 1050.18,986.763 1054.29,971.379 1058.39,955.583 1062.49,939.376 1066.6,922.757 1070.7,905.729 1074.8,888.296 1078.9,870.461 1083.01,852.233 1087.11,833.617 1091.21,814.624 1095.32,795.265 1099.42,775.553 1103.52,755.503 1107.63,735.132 1111.73,714.46 1115.83,693.506 1119.94,672.295 1124.04,650.853 1128.14,629.207 1132.24,607.388 1136.35,585.429 1140.45,563.364 1144.55,541.232 1148.66,519.071 1152.76,496.924 1156.86,474.835 1160.97,452.849 1165.07,431.016 1169.17,409.384 1173.28,388.005 1177.38,366.933 1181.48,346.22 1185.58,325.924 1189.69,306.098 1193.79,286.8 1197.89,268.087 1202,250.014 1206.1,232.637 1210.2,216.012 1214.31,200.193 1218.41,185.232 1222.51,171.18 1226.62,158.085 1230.72,145.994 1234.82,134.949 1238.92,124.991 1243.03,116.156 1247.13,108.477 1251.23,101.982 1255.34,96.6963 1259.44,92.6397 1263.54,89.8278 1267.65,88.2713 1271.75,87.9763 1275.85,88.9438 1279.96,91.1702 1284.06,94.6468 1288.16,99.3604 1292.26,105.293 1296.37,112.422 1300.47,120.721 1304.57,130.159 1308.68,140.701 1312.78,152.308 1316.88,164.939 1320.99,178.55 1325.09,193.093 1329.19,208.517 1333.29,224.772 1337.4,241.804 1341.5,259.559 1345.6,277.98 1349.71,297.012 1353.81,316.598 1357.91,336.682 1362.02,357.207 1366.12,378.118 1370.22,399.36 1374.33,420.88 1378.43,442.626 1382.53,464.546 1386.63,486.593 1390.74,508.719 1394.84,530.878 1398.94,553.029 1403.05,575.13 1407.15,597.143 1411.25,619.032 1415.36,640.762 1419.46,662.303 1423.56,683.626 1427.67,704.702 1431.77,725.509 1435.87,746.024 1439.97,766.226 1444.08,786.098 1448.18,805.624 1452.28,824.789 1456.39,843.582 1460.49,861.993 1464.59,880.012 1468.7,897.633 1472.8,914.851 1476.9,931.661 1481.01,948.061 1485.11,964.05 1489.21,979.626 1493.31,994.791 1497.42,1009.55 1501.52,1023.89 1505.62,1037.84 1509.73,1051.39 1513.83,1064.54 1517.93,1077.3 1522.04,1089.67 1526.14,1101.68 1530.24,1113.31 1534.34,1124.57 1538.45,1135.48 1542.55,1146.05 1546.65,1156.27 1550.76,1166.16 1554.86,1175.72 1558.96,1184.97 1563.07,1193.91 1567.17,1202.55 1571.27,1210.89 1575.38,1218.96 1579.48,1226.74 1583.58,1234.26 1587.68,1241.52 1591.79,1248.53 1595.89,1255.3 1599.99,1261.83 1604.1,1268.12 1608.2,1274.2 1612.3,1280.07 1616.41,1285.72 1620.51,1291.18 1624.61,1296.44 1628.72,1301.51 1632.82,1306.41 1636.92,1311.13 1641.02,1315.68 1645.13,1320.07 1649.23,1324.3 1653.33,1328.38 1657.44,1332.32 1661.54,1336.11 1665.64,1339.77 1669.75,1343.29 1673.85,1346.7 1677.95,1349.97 1682.06,1353.14 1686.16,1356.19 1690.26,1359.13 1694.36,1361.96 1698.47,1364.7 1702.57,1367.34 1706.67,1369.88 1710.78,1372.34 1714.88,1374.7 1718.98,1376.99 1723.09,1379.19 1727.19,1381.31 1731.29,1383.37 1735.39,1385.34 1739.5,1387.25 1743.6,1389.1 1747.7,1390.88 1751.81,1392.59 1755.91,1394.25 1760.01,1395.85 1764.12,1397.39 1768.22,1398.89 1772.32,1400.33 1776.43,1401.72 1780.53,1403.06 1784.63,1404.36 1788.73,1405.61 1792.84,1406.82 1796.94,1407.99 1801.04,1409.12 1805.15,1410.22 1809.25,1411.27 1813.35,1412.29 1817.46,1413.28 1821.56,1414.23 1825.66,1415.15 1829.77,1416.05 1833.87,1416.91 1837.97,1417.74 1842.07,1418.55 1846.18,1419.33 1850.28,1420.09 1854.38,1420.82 1858.49,1421.52 1862.59,1422.21 1866.69,1422.87 1870.8,1423.51 1874.9,1424.13 1879,1424.73 1883.11,1425.32 1887.21,1425.88 1891.31,1426.42 1895.41,1426.95 1899.52,1427.47 1903.62,1427.96 1907.72,1428.44 1911.83,1428.91 1915.93,1429.36 1920.03,1429.8 1924.14,1430.22 1928.24,1430.64 1932.34,1431.03 1936.45,1431.42 1940.55,1431.8 1944.65,1432.16 1948.75,1432.51 1952.86,1432.86 1956.96,1433.19 1961.06,1433.51 1965.17,1433.82 1969.27,1434.13 1973.37,1434.42 1977.48,1434.71 1981.58,1434.99 1985.68,1435.26 1989.78,1435.52 1993.89,1435.77 1997.99,1436.02 2002.09,1436.26 2006.2,1436.49 2010.3,1436.72 2014.4,1436.94 2018.51,1437.15 2022.61,1437.36 2026.71,1437.56 2030.82,1437.76 2034.92,1437.95 2039.02,1438.14 2043.12,1438.32 2047.23,1438.49 2051.33,1438.66 2055.43,1438.83 2059.54,1438.99 2063.64,1439.15 2067.74,1439.3 2071.85,1439.45 2075.95,1439.6 2080.05,1439.74 2084.16,1439.87 2088.26,1440.01 2092.36,1440.14 2096.46,1440.26 2100.57,1440.39 2104.67,1440.51 2108.77,1440.63 2112.88,1440.74 2116.98,1440.85 2121.08,1440.96 2125.19,1441.06 "></polyline>
<polyline clip-path="url(#clip792)" style="stroke:#ff0000; stroke-linecap:round; stroke-linejoin:round; stroke-width:4; stroke-opacity:1; fill:none" stroke-dasharray="16, 10" points="896.966,2925.65 896.966,-1391.96 "></polyline>
<polyline clip-path="url(#clip792)" style="stroke:#0000ff; stroke-linecap:round; stroke-linejoin:round; stroke-width:4; stroke-opacity:1; fill:none" stroke-dasharray="16, 10" points="957.255,2925.65 957.255,-1391.96 "></polyline>
<polyline clip-path="url(#clip792)" style="stroke:#000000; stroke-linecap:round; stroke-linejoin:round; stroke-width:4; stroke-opacity:1; fill:none" stroke-dasharray="16, 10" points="949.995,2925.65 949.995,-1391.96 "></polyline>
<polyline clip-path="url(#clip792)" style="stroke:#ff0000; stroke-linecap:round; stroke-linejoin:round; stroke-width:4; stroke-opacity:1; fill:none" stroke-dasharray="2, 4" points="802.854,2925.65 802.854,-1391.96 "></polyline>
<polyline clip-path="url(#clip792)" style="stroke:#0000ff; stroke-linecap:round; stroke-linejoin:round; stroke-width:4; stroke-opacity:1; fill:none" stroke-dasharray="2, 4" points="806.501,2925.65 806.501,-1391.96 "></polyline>
<polyline clip-path="url(#clip792)" style="stroke:#000000; stroke-linecap:round; stroke-linejoin:round; stroke-width:4; stroke-opacity:1; fill:none" stroke-dasharray="2, 4" points="791.898,2925.65 791.898,-1391.96 "></polyline>
<path clip-path="url(#clip790)" d="M1746.9 302.578 L2280.47 302.578 L2280.47 95.2176 L1746.9 95.2176  Z" fill="#ffffff" fill-rule="evenodd" fill-opacity="1"></path>
<polyline clip-path="url(#clip790)" style="stroke:#000000; stroke-linecap:round; stroke-linejoin:round; stroke-width:4; stroke-opacity:1; fill:none" points="1746.9,302.578 2280.47,302.578 2280.47,95.2176 1746.9,95.2176 1746.9,302.578 "></polyline>
<polyline clip-path="url(#clip790)" style="stroke:#000000; stroke-linecap:round; stroke-linejoin:round; stroke-width:4; stroke-opacity:1; fill:none" points="1771,147.058 1915.57,147.058 "></polyline>
<path clip-path="url(#clip790)" d="M1939.66 129.778 L1944.34 129.778 L1944.34 143.944 L1961.33 143.944 L1961.33 129.778 L1966.01 129.778 L1966.01 164.338 L1961.33 164.338 L1961.33 147.879 L1944.34 147.879 L1944.34 164.338 L1939.66 164.338 L1939.66 129.778 Z" fill="#000000" fill-rule="nonzero" fill-opacity="1"></path><path clip-path="url(#clip790)" d="M1975.13 138.412 L1979.39 138.412 L1979.39 164.338 L1975.13 164.338 L1975.13 138.412 M1975.13 128.319 L1979.39 128.319 L1979.39 133.713 L1975.13 133.713 L1975.13 128.319 Z" fill="#000000" fill-rule="nonzero" fill-opacity="1"></path><path clip-path="url(#clip790)" d="M2004.83 139.176 L2004.83 143.203 Q2003.02 142.277 2001.08 141.815 Q1999.13 141.352 1997.05 141.352 Q1993.88 141.352 1992.28 142.324 Q1990.71 143.296 1990.71 145.24 Q1990.71 146.722 1991.84 147.578 Q1992.97 148.412 1996.4 149.176 L1997.86 149.5 Q2002.4 150.472 2004.29 152.254 Q2006.21 154.014 2006.21 157.185 Q2006.21 160.796 2003.34 162.902 Q2000.5 165.009 1995.5 165.009 Q1993.41 165.009 1991.15 164.592 Q1988.9 164.199 1986.4 163.388 L1986.4 158.99 Q1988.76 160.217 1991.05 160.842 Q1993.34 161.444 1995.59 161.444 Q1998.6 161.444 2000.22 160.426 Q2001.84 159.384 2001.84 157.509 Q2001.84 155.773 2000.66 154.847 Q1999.5 153.921 1995.54 153.064 L1994.06 152.717 Q1990.1 151.884 1988.34 150.171 Q1986.59 148.435 1986.59 145.426 Q1986.59 141.768 1989.18 139.778 Q1991.77 137.787 1996.54 137.787 Q1998.9 137.787 2000.98 138.134 Q2003.07 138.481 2004.83 139.176 Z" fill="#000000" fill-rule="nonzero" fill-opacity="1"></path><path clip-path="url(#clip790)" d="M2017.21 131.051 L2017.21 138.412 L2025.98 138.412 L2025.98 141.722 L2017.21 141.722 L2017.21 155.796 Q2017.21 158.967 2018.07 159.87 Q2018.95 160.773 2021.61 160.773 L2025.98 160.773 L2025.98 164.338 L2021.61 164.338 Q2016.68 164.338 2014.8 162.509 Q2012.93 160.657 2012.93 155.796 L2012.93 141.722 L2009.8 141.722 L2009.8 138.412 L2012.93 138.412 L2012.93 131.051 L2017.21 131.051 Z" fill="#000000" fill-rule="nonzero" fill-opacity="1"></path><path clip-path="url(#clip790)" d="M2041.63 141.398 Q2038.21 141.398 2036.21 144.083 Q2034.22 146.745 2034.22 151.398 Q2034.22 156.051 2036.19 158.736 Q2038.18 161.398 2041.63 161.398 Q2045.03 161.398 2047.02 158.713 Q2049.02 156.027 2049.02 151.398 Q2049.02 146.791 2047.02 144.106 Q2045.03 141.398 2041.63 141.398 M2041.63 137.787 Q2047.19 137.787 2050.36 141.398 Q2053.53 145.009 2053.53 151.398 Q2053.53 157.764 2050.36 161.398 Q2047.19 165.009 2041.63 165.009 Q2036.05 165.009 2032.88 161.398 Q2029.73 157.764 2029.73 151.398 Q2029.73 145.009 2032.88 141.398 Q2036.05 137.787 2041.63 137.787 Z" fill="#000000" fill-rule="nonzero" fill-opacity="1"></path><path clip-path="url(#clip790)" d="M2075.61 142.393 Q2074.89 141.977 2074.04 141.791 Q2073.2 141.583 2072.19 141.583 Q2068.58 141.583 2066.63 143.944 Q2064.71 146.282 2064.71 150.68 L2064.71 164.338 L2060.43 164.338 L2060.43 138.412 L2064.71 138.412 L2064.71 142.44 Q2066.05 140.078 2068.2 138.944 Q2070.36 137.787 2073.44 137.787 Q2073.88 137.787 2074.41 137.856 Q2074.94 137.903 2075.59 138.018 L2075.61 142.393 Z" fill="#000000" fill-rule="nonzero" fill-opacity="1"></path><path clip-path="url(#clip790)" d="M2080.08 138.412 L2084.34 138.412 L2084.34 164.338 L2080.08 164.338 L2080.08 138.412 M2080.08 128.319 L2084.34 128.319 L2084.34 133.713 L2080.08 133.713 L2080.08 128.319 Z" fill="#000000" fill-rule="nonzero" fill-opacity="1"></path><path clip-path="url(#clip790)" d="M2111.91 139.407 L2111.91 143.389 Q2110.1 142.393 2108.27 141.907 Q2106.47 141.398 2104.62 141.398 Q2100.47 141.398 2098.18 144.037 Q2095.89 146.652 2095.89 151.398 Q2095.89 156.143 2098.18 158.782 Q2100.47 161.398 2104.62 161.398 Q2106.47 161.398 2108.27 160.912 Q2110.1 160.402 2111.91 159.407 L2111.91 163.342 Q2110.13 164.176 2108.2 164.592 Q2106.31 165.009 2104.15 165.009 Q2098.3 165.009 2094.85 161.328 Q2091.4 157.648 2091.4 151.398 Q2091.4 145.055 2094.87 141.421 Q2098.37 137.787 2104.43 137.787 Q2106.4 137.787 2108.27 138.203 Q2110.15 138.597 2111.91 139.407 Z" fill="#000000" fill-rule="nonzero" fill-opacity="1"></path><path clip-path="url(#clip790)" d="M2131.1 151.305 Q2125.94 151.305 2123.95 152.486 Q2121.95 153.666 2121.95 156.514 Q2121.95 158.782 2123.44 160.125 Q2124.94 161.444 2127.51 161.444 Q2131.05 161.444 2133.18 158.944 Q2135.33 156.421 2135.33 152.254 L2135.33 151.305 L2131.1 151.305 M2139.59 149.546 L2139.59 164.338 L2135.33 164.338 L2135.33 160.402 Q2133.88 162.763 2131.7 163.898 Q2129.52 165.009 2126.38 165.009 Q2122.39 165.009 2120.03 162.787 Q2117.7 160.541 2117.7 156.791 Q2117.7 152.416 2120.61 150.194 Q2123.55 147.972 2129.36 147.972 L2135.33 147.972 L2135.33 147.555 Q2135.33 144.615 2133.39 143.018 Q2131.47 141.398 2127.97 141.398 Q2125.75 141.398 2123.64 141.93 Q2121.54 142.463 2119.59 143.527 L2119.59 139.592 Q2121.93 138.69 2124.13 138.25 Q2126.33 137.787 2128.41 137.787 Q2134.04 137.787 2136.82 140.703 Q2139.59 143.62 2139.59 149.546 Z" fill="#000000" fill-rule="nonzero" fill-opacity="1"></path><path clip-path="url(#clip790)" d="M2148.37 128.319 L2152.63 128.319 L2152.63 164.338 L2148.37 164.338 L2148.37 128.319 Z" fill="#000000" fill-rule="nonzero" fill-opacity="1"></path><polyline clip-path="url(#clip790)" style="stroke:#ff0000; stroke-linecap:round; stroke-linejoin:round; stroke-width:4; stroke-opacity:1; fill:none" points="1771,198.898 1915.57,198.898 "></polyline>
<path clip-path="url(#clip790)" d="M1939.66 181.618 L1945.96 181.618 L1961.28 210.529 L1961.28 181.618 L1965.82 181.618 L1965.82 216.178 L1959.52 216.178 L1944.2 187.266 L1944.2 216.178 L1939.66 216.178 L1939.66 181.618 Z" fill="#000000" fill-rule="nonzero" fill-opacity="1"></path><path clip-path="url(#clip790)" d="M1984.99 193.238 Q1981.56 193.238 1979.57 195.923 Q1977.58 198.585 1977.58 203.238 Q1977.58 207.891 1979.55 210.576 Q1981.54 213.238 1984.99 213.238 Q1988.39 213.238 1990.38 210.553 Q1992.37 207.867 1992.37 203.238 Q1992.37 198.631 1990.38 195.946 Q1988.39 193.238 1984.99 193.238 M1984.99 189.627 Q1990.54 189.627 1993.71 193.238 Q1996.89 196.849 1996.89 203.238 Q1996.89 209.604 1993.71 213.238 Q1990.54 216.849 1984.99 216.849 Q1979.41 216.849 1976.24 213.238 Q1973.09 209.604 1973.09 203.238 Q1973.09 196.849 1976.24 193.238 Q1979.41 189.627 1984.99 189.627 Z" fill="#000000" fill-rule="nonzero" fill-opacity="1"></path><path clip-path="url(#clip790)" d="M2018.97 194.233 Q2018.25 193.817 2017.4 193.631 Q2016.56 193.423 2015.54 193.423 Q2011.93 193.423 2009.99 195.784 Q2008.07 198.122 2008.07 202.52 L2008.07 216.178 L2003.78 216.178 L2003.78 190.252 L2008.07 190.252 L2008.07 194.28 Q2009.41 191.918 2011.56 190.784 Q2013.71 189.627 2016.79 189.627 Q2017.23 189.627 2017.77 189.696 Q2018.3 189.743 2018.95 189.858 L2018.97 194.233 Z" fill="#000000" fill-rule="nonzero" fill-opacity="1"></path><path clip-path="url(#clip790)" d="M2042.79 195.229 Q2044.39 192.358 2046.61 190.993 Q2048.83 189.627 2051.84 189.627 Q2055.89 189.627 2058.09 192.474 Q2060.29 195.298 2060.29 200.529 L2060.29 216.178 L2056.01 216.178 L2056.01 200.668 Q2056.01 196.942 2054.69 195.136 Q2053.37 193.33 2050.66 193.33 Q2047.35 193.33 2045.43 195.53 Q2043.51 197.729 2043.51 201.525 L2043.51 216.178 L2039.22 216.178 L2039.22 200.668 Q2039.22 196.918 2037.9 195.136 Q2036.58 193.33 2033.83 193.33 Q2030.57 193.33 2028.64 195.553 Q2026.72 197.752 2026.72 201.525 L2026.72 216.178 L2022.44 216.178 L2022.44 190.252 L2026.72 190.252 L2026.72 194.28 Q2028.18 191.895 2030.22 190.761 Q2032.26 189.627 2035.06 189.627 Q2037.88 189.627 2039.85 191.062 Q2041.84 192.497 2042.79 195.229 Z" fill="#000000" fill-rule="nonzero" fill-opacity="1"></path><path clip-path="url(#clip790)" d="M2080.57 203.145 Q2075.4 203.145 2073.41 204.326 Q2071.42 205.506 2071.42 208.354 Q2071.42 210.622 2072.9 211.965 Q2074.41 213.284 2076.98 213.284 Q2080.52 213.284 2082.65 210.784 Q2084.8 208.261 2084.8 204.094 L2084.8 203.145 L2080.57 203.145 M2089.06 201.386 L2089.06 216.178 L2084.8 216.178 L2084.8 212.242 Q2083.34 214.603 2081.17 215.738 Q2078.99 216.849 2075.84 216.849 Q2071.86 216.849 2069.5 214.627 Q2067.16 212.381 2067.16 208.631 Q2067.16 204.256 2070.08 202.034 Q2073.02 199.812 2078.83 199.812 L2084.8 199.812 L2084.8 199.395 Q2084.8 196.455 2082.86 194.858 Q2080.94 193.238 2077.44 193.238 Q2075.22 193.238 2073.11 193.77 Q2071.01 194.303 2069.06 195.367 L2069.06 191.432 Q2071.4 190.53 2073.6 190.09 Q2075.8 189.627 2077.88 189.627 Q2083.51 189.627 2086.28 192.543 Q2089.06 195.46 2089.06 201.386 Z" fill="#000000" fill-rule="nonzero" fill-opacity="1"></path><path clip-path="url(#clip790)" d="M2097.83 180.159 L2102.09 180.159 L2102.09 216.178 L2097.83 216.178 L2097.83 180.159 Z" fill="#000000" fill-rule="nonzero" fill-opacity="1"></path><polyline clip-path="url(#clip790)" style="stroke:#0000ff; stroke-linecap:round; stroke-linejoin:round; stroke-width:4; stroke-opacity:1; fill:none" points="1771,250.738 1915.57,250.738 "></polyline>
<path clip-path="url(#clip790)" d="M1939.66 233.458 L1968.9 233.458 L1968.9 237.393 L1956.63 237.393 L1956.63 268.018 L1951.93 268.018 L1951.93 237.393 L1939.66 237.393 L1939.66 233.458 Z" fill="#000000" fill-rule="nonzero" fill-opacity="1"></path><path clip-path="url(#clip790)" d="M1993.16 237.3 L1993.16 264.175 L1998.81 264.175 Q2005.96 264.175 2009.27 260.934 Q2012.6 257.694 2012.6 250.703 Q2012.6 243.758 2009.27 240.541 Q2005.96 237.3 1998.81 237.3 L1993.16 237.3 M1988.48 233.458 L1998.09 233.458 Q2008.14 233.458 2012.83 237.647 Q2017.53 241.814 2017.53 250.703 Q2017.53 259.638 2012.81 263.828 Q2008.09 268.018 1998.09 268.018 L1988.48 268.018 L1988.48 233.458 Z" fill="#000000" fill-rule="nonzero" fill-opacity="1"></path><path clip-path="url(#clip790)" d="M2024.8 242.092 L2029.06 242.092 L2029.06 268.018 L2024.8 268.018 L2024.8 242.092 M2024.8 231.999 L2029.06 231.999 L2029.06 237.393 L2024.8 237.393 L2024.8 231.999 Z" fill="#000000" fill-rule="nonzero" fill-opacity="1"></path><path clip-path="url(#clip790)" d="M2054.5 242.856 L2054.5 246.883 Q2052.7 245.957 2050.75 245.495 Q2048.81 245.032 2046.72 245.032 Q2043.55 245.032 2041.96 246.004 Q2040.38 246.976 2040.38 248.92 Q2040.38 250.402 2041.52 251.258 Q2042.65 252.092 2046.08 252.856 L2047.53 253.18 Q2052.07 254.152 2053.97 255.934 Q2055.89 257.694 2055.89 260.865 Q2055.89 264.476 2053.02 266.582 Q2050.17 268.689 2045.17 268.689 Q2043.09 268.689 2040.82 268.272 Q2038.58 267.879 2036.08 267.068 L2036.08 262.67 Q2038.44 263.897 2040.73 264.522 Q2043.02 265.124 2045.27 265.124 Q2048.27 265.124 2049.89 264.106 Q2051.52 263.064 2051.52 261.189 Q2051.52 259.453 2050.33 258.527 Q2049.18 257.601 2045.22 256.744 L2043.74 256.397 Q2039.78 255.564 2038.02 253.851 Q2036.26 252.115 2036.26 249.106 Q2036.26 245.448 2038.85 243.458 Q2041.45 241.467 2046.21 241.467 Q2048.58 241.467 2050.66 241.814 Q2052.74 242.161 2054.5 242.856 Z" fill="#000000" fill-rule="nonzero" fill-opacity="1"></path><path clip-path="url(#clip790)" d="M2066.89 234.731 L2066.89 242.092 L2075.66 242.092 L2075.66 245.402 L2066.89 245.402 L2066.89 259.476 Q2066.89 262.647 2067.74 263.55 Q2068.62 264.453 2071.28 264.453 L2075.66 264.453 L2075.66 268.018 L2071.28 268.018 Q2066.35 268.018 2064.48 266.189 Q2062.6 264.337 2062.6 259.476 L2062.6 245.402 L2059.48 245.402 L2059.48 242.092 L2062.6 242.092 L2062.6 234.731 L2066.89 234.731 Z" fill="#000000" fill-rule="nonzero" fill-opacity="1"></path><path clip-path="url(#clip790)" d="M2096.28 246.073 Q2095.57 245.657 2094.71 245.471 Q2093.88 245.263 2092.86 245.263 Q2089.25 245.263 2087.3 247.624 Q2085.38 249.962 2085.38 254.36 L2085.38 268.018 L2081.1 268.018 L2081.1 242.092 L2085.38 242.092 L2085.38 246.12 Q2086.72 243.758 2088.88 242.624 Q2091.03 241.467 2094.11 241.467 Q2094.55 241.467 2095.08 241.536 Q2095.61 241.583 2096.26 241.698 L2096.28 246.073 Z" fill="#000000" fill-rule="nonzero" fill-opacity="1"></path><path clip-path="url(#clip790)" d="M2100.75 242.092 L2105.01 242.092 L2105.01 268.018 L2100.75 268.018 L2100.75 242.092 M2100.75 231.999 L2105.01 231.999 L2105.01 237.393 L2100.75 237.393 L2100.75 231.999 Z" fill="#000000" fill-rule="nonzero" fill-opacity="1"></path><path clip-path="url(#clip790)" d="M2132.53 255.078 Q2132.53 250.379 2130.59 247.717 Q2128.67 245.032 2125.29 245.032 Q2121.91 245.032 2119.96 247.717 Q2118.04 250.379 2118.04 255.078 Q2118.04 259.777 2119.96 262.462 Q2121.91 265.124 2125.29 265.124 Q2128.67 265.124 2130.59 262.462 Q2132.53 259.777 2132.53 255.078 M2118.04 246.027 Q2119.39 243.712 2121.42 242.601 Q2123.48 241.467 2126.33 241.467 Q2131.05 241.467 2133.99 245.217 Q2136.95 248.967 2136.95 255.078 Q2136.95 261.189 2133.99 264.939 Q2131.05 268.689 2126.33 268.689 Q2123.48 268.689 2121.42 267.578 Q2119.39 266.443 2118.04 264.129 L2118.04 268.018 L2113.76 268.018 L2113.76 231.999 L2118.04 231.999 L2118.04 246.027 Z" fill="#000000" fill-rule="nonzero" fill-opacity="1"></path><path clip-path="url(#clip790)" d="M2143.57 257.786 L2143.57 242.092 L2147.83 242.092 L2147.83 257.624 Q2147.83 261.305 2149.27 263.156 Q2150.7 264.985 2153.57 264.985 Q2157.02 264.985 2159.01 262.786 Q2161.03 260.587 2161.03 256.791 L2161.03 242.092 L2165.29 242.092 L2165.29 268.018 L2161.03 268.018 L2161.03 264.036 Q2159.48 266.397 2157.42 267.555 Q2155.38 268.689 2152.67 268.689 Q2148.2 268.689 2145.89 265.911 Q2143.57 263.133 2143.57 257.786 M2154.29 241.467 L2154.29 241.467 Z" fill="#000000" fill-rule="nonzero" fill-opacity="1"></path><path clip-path="url(#clip790)" d="M2178.27 234.731 L2178.27 242.092 L2187.05 242.092 L2187.05 245.402 L2178.27 245.402 L2178.27 259.476 Q2178.27 262.647 2179.13 263.55 Q2180.01 264.453 2182.67 264.453 L2187.05 264.453 L2187.05 268.018 L2182.67 268.018 Q2177.74 268.018 2175.87 266.189 Q2173.99 264.337 2173.99 259.476 L2173.99 245.402 L2170.87 245.402 L2170.87 242.092 L2173.99 242.092 L2173.99 234.731 L2178.27 234.731 Z" fill="#000000" fill-rule="nonzero" fill-opacity="1"></path><path clip-path="url(#clip790)" d="M2192.65 242.092 L2196.91 242.092 L2196.91 268.018 L2192.65 268.018 L2192.65 242.092 M2192.65 231.999 L2196.91 231.999 L2196.91 237.393 L2192.65 237.393 L2192.65 231.999 Z" fill="#000000" fill-rule="nonzero" fill-opacity="1"></path><path clip-path="url(#clip790)" d="M2215.87 245.078 Q2212.44 245.078 2210.45 247.763 Q2208.46 250.425 2208.46 255.078 Q2208.46 259.731 2210.43 262.416 Q2212.42 265.078 2215.87 265.078 Q2219.27 265.078 2221.26 262.393 Q2223.25 259.707 2223.25 255.078 Q2223.25 250.471 2221.26 247.786 Q2219.27 245.078 2215.87 245.078 M2215.87 241.467 Q2221.42 241.467 2224.59 245.078 Q2227.76 248.689 2227.76 255.078 Q2227.76 261.444 2224.59 265.078 Q2221.42 268.689 2215.87 268.689 Q2210.29 268.689 2207.12 265.078 Q2203.97 261.444 2203.97 255.078 Q2203.97 248.689 2207.12 245.078 Q2210.29 241.467 2215.87 241.467 Z" fill="#000000" fill-rule="nonzero" fill-opacity="1"></path><path clip-path="url(#clip790)" d="M2256.38 252.369 L2256.38 268.018 L2252.12 268.018 L2252.12 252.508 Q2252.12 248.828 2250.68 246.999 Q2249.25 245.17 2246.38 245.17 Q2242.93 245.17 2240.94 247.37 Q2238.94 249.569 2238.94 253.365 L2238.94 268.018 L2234.66 268.018 L2234.66 242.092 L2238.94 242.092 L2238.94 246.12 Q2240.47 243.782 2242.53 242.624 Q2244.62 241.467 2247.32 241.467 Q2251.79 241.467 2254.08 244.245 Q2256.38 246.999 2256.38 252.369 Z" fill="#000000" fill-rule="nonzero" fill-opacity="1"></path></svg>