<svg xmlns="http://www.w3.org/2000/svg" xmlns:xlink="http://www.w3.org/1999/xlink" width="600" height="400" viewBox="0 0 2400 1600">
<defs>
  <clipPath id="clip960">
    <rect x="0" y="0" width="2400" height="1600"></rect>
  </clipPath>
</defs>
<path clip-path="url(#clip960)" d="
M0 1600 L2400 1600 L2400 0 L0 0  Z
  " fill="#ffffff" fill-rule="evenodd" fill-opacity="1"></path>
<defs>
  <clipPath id="clip961">
    <rect x="480" y="0" width="1681" height="1600"></rect>
  </clipPath>
</defs>
<path clip-path="url(#clip960)" d="
M147.478 1486.45 L2352.76 1486.45 L2352.76 47.2441 L147.478 47.2441  Z
  " fill="#ffffff" fill-rule="evenodd" fill-opacity="1"></path>
<defs>
  <clipPath id="clip962">
    <rect x="147" y="47" width="2206" height="1440"></rect>
  </clipPath>
</defs>
<polyline clip-path="url(#clip962)" style="stroke:#000000; stroke-linecap:round; stroke-linejoin:round; stroke-width:2; stroke-opacity:0.1; fill:none" points="
  337.591,1486.45 337.591,47.2441 
  "></polyline>
<polyline clip-path="url(#clip962)" style="stroke:#000000; stroke-linecap:round; stroke-linejoin:round; stroke-width:2; stroke-opacity:0.1; fill:none" points="
  817.794,1486.45 817.794,47.2441 
  "></polyline>
<polyline clip-path="url(#clip962)" style="stroke:#000000; stroke-linecap:round; stroke-linejoin:round; stroke-width:2; stroke-opacity:0.1; fill:none" points="
  1298,1486.45 1298,47.2441 
  "></polyline>
<polyline clip-path="url(#clip962)" style="stroke:#000000; stroke-linecap:round; stroke-linejoin:round; stroke-width:2; stroke-opacity:0.1; fill:none" points="
  1778.2,1486.45 1778.2,47.2441 
  "></polyline>
<polyline clip-path="url(#clip962)" style="stroke:#000000; stroke-linecap:round; stroke-linejoin:round; stroke-width:2; stroke-opacity:0.1; fill:none" points="
  2258.4,1486.45 2258.4,47.2441 
  "></polyline>
<polyline clip-path="url(#clip960)" style="stroke:#000000; stroke-linecap:round; stroke-linejoin:round; stroke-width:4; stroke-opacity:1; fill:none" points="
  147.478,1486.45 2352.76,1486.45 
  "></polyline>
<polyline clip-path="url(#clip960)" style="stroke:#000000; stroke-linecap:round; stroke-linejoin:round; stroke-width:4; stroke-opacity:1; fill:none" points="
  337.591,1486.45 337.591,1467.55 
  "></polyline>
<polyline clip-path="url(#clip960)" style="stroke:#000000; stroke-linecap:round; stroke-linejoin:round; stroke-width:4; stroke-opacity:1; fill:none" points="
  817.794,1486.45 817.794,1467.55 
  "></polyline>
<polyline clip-path="url(#clip960)" style="stroke:#000000; stroke-linecap:round; stroke-linejoin:round; stroke-width:4; stroke-opacity:1; fill:none" points="
  1298,1486.45 1298,1467.55 
  "></polyline>
<polyline clip-path="url(#clip960)" style="stroke:#000000; stroke-linecap:round; stroke-linejoin:round; stroke-width:4; stroke-opacity:1; fill:none" points="
  1778.2,1486.45 1778.2,1467.55 
  "></polyline>
<polyline clip-path="url(#clip960)" style="stroke:#000000; stroke-linecap:round; stroke-linejoin:round; stroke-width:4; stroke-opacity:1; fill:none" points="
  2258.4,1486.45 2258.4,1467.55 
  "></polyline>
<path clip-path="url(#clip960)" d="M307.533 1532.02 L337.209 1532.02 L337.209 1535.95 L307.533 1535.95 L307.533 1532.02 Z" fill="#000000" fill-rule="evenodd" fill-opacity="1"></path><path clip-path="url(#clip960)" d="M351.329 1544.91 L367.648 1544.91 L367.648 1548.85 L345.704 1548.85 L345.704 1544.91 Q348.366 1542.16 352.949 1537.53 Q357.556 1532.88 358.736 1531.53 Q360.982 1529.01 361.861 1527.27 Q362.764 1525.51 362.764 1523.82 Q362.764 1521.07 360.82 1519.33 Q358.898 1517.6 355.797 1517.6 Q353.598 1517.6 351.144 1518.36 Q348.713 1519.13 345.936 1520.68 L345.936 1515.95 Q348.76 1514.82 351.213 1514.24 Q353.667 1513.66 355.704 1513.66 Q361.074 1513.66 364.269 1516.35 Q367.463 1519.03 367.463 1523.52 Q367.463 1525.65 366.653 1527.57 Q365.866 1529.47 363.76 1532.07 Q363.181 1532.74 360.079 1535.95 Q356.977 1539.15 351.329 1544.91 Z" fill="#000000" fill-rule="evenodd" fill-opacity="1"></path><path clip-path="url(#clip960)" d="M787.551 1532.02 L817.227 1532.02 L817.227 1535.95 L787.551 1535.95 L787.551 1532.02 Z" fill="#000000" fill-rule="evenodd" fill-opacity="1"></path><path clip-path="url(#clip960)" d="M828.129 1544.91 L835.768 1544.91 L835.768 1518.55 L827.458 1520.21 L827.458 1515.95 L835.722 1514.29 L840.398 1514.29 L840.398 1544.91 L848.037 1544.91 L848.037 1548.85 L828.129 1548.85 L828.129 1544.91 Z" fill="#000000" fill-rule="evenodd" fill-opacity="1"></path><path clip-path="url(#clip960)" d="M1298 1517.37 Q1294.39 1517.37 1292.56 1520.93 Q1290.75 1524.47 1290.75 1531.6 Q1290.75 1538.71 1292.56 1542.27 Q1294.39 1545.82 1298 1545.82 Q1301.63 1545.82 1303.44 1542.27 Q1305.27 1538.71 1305.27 1531.6 Q1305.27 1524.47 1303.44 1520.93 Q1301.63 1517.37 1298 1517.37 M1298 1513.66 Q1303.81 1513.66 1306.86 1518.27 Q1309.94 1522.85 1309.94 1531.6 Q1309.94 1540.33 1306.86 1544.94 Q1303.81 1549.52 1298 1549.52 Q1292.19 1549.52 1289.11 1544.94 Q1286.05 1540.33 1286.05 1531.6 Q1286.05 1522.85 1289.11 1518.27 Q1292.19 1513.66 1298 1513.66 Z" fill="#000000" fill-rule="evenodd" fill-opacity="1"></path><path clip-path="url(#clip960)" d="M1768.58 1544.91 L1776.22 1544.91 L1776.22 1518.55 L1767.91 1520.21 L1767.91 1515.95 L1776.17 1514.29 L1780.85 1514.29 L1780.85 1544.91 L1788.49 1544.91 L1788.49 1548.85 L1768.58 1548.85 L1768.58 1544.91 Z" fill="#000000" fill-rule="evenodd" fill-opacity="1"></path><path clip-path="url(#clip960)" d="M2253.06 1544.91 L2269.38 1544.91 L2269.38 1548.85 L2247.43 1548.85 L2247.43 1544.91 Q2250.09 1542.16 2254.68 1537.53 Q2259.28 1532.88 2260.46 1531.53 Q2262.71 1529.01 2263.59 1527.27 Q2264.49 1525.51 2264.49 1523.82 Q2264.49 1521.07 2262.55 1519.33 Q2260.63 1517.6 2257.52 1517.6 Q2255.32 1517.6 2252.87 1518.36 Q2250.44 1519.13 2247.66 1520.68 L2247.66 1515.95 Q2250.49 1514.82 2252.94 1514.24 Q2255.39 1513.66 2257.43 1513.66 Q2262.8 1513.66 2266 1516.35 Q2269.19 1519.03 2269.19 1523.52 Q2269.19 1525.65 2268.38 1527.57 Q2267.59 1529.47 2265.49 1532.07 Q2264.91 1532.74 2261.81 1535.95 Q2258.7 1539.15 2253.06 1544.91 Z" fill="#000000" fill-rule="evenodd" fill-opacity="1"></path><polyline clip-path="url(#clip962)" style="stroke:#000000; stroke-linecap:round; stroke-linejoin:round; stroke-width:2; stroke-opacity:0.1; fill:none" points="
  147.478,1252.48 2352.76,1252.48 
  "></polyline>
<polyline clip-path="url(#clip962)" style="stroke:#000000; stroke-linecap:round; stroke-linejoin:round; stroke-width:2; stroke-opacity:0.1; fill:none" points="
  147.478,1002.19 2352.76,1002.19 
  "></polyline>
<polyline clip-path="url(#clip962)" style="stroke:#000000; stroke-linecap:round; stroke-linejoin:round; stroke-width:2; stroke-opacity:0.1; fill:none" points="
  147.478,751.897 2352.76,751.897 
  "></polyline>
<polyline clip-path="url(#clip962)" style="stroke:#000000; stroke-linecap:round; stroke-linejoin:round; stroke-width:2; stroke-opacity:0.1; fill:none" points="
  147.478,501.607 2352.76,501.607 
  "></polyline>
<polyline clip-path="url(#clip962)" style="stroke:#000000; stroke-linecap:round; stroke-linejoin:round; stroke-width:2; stroke-opacity:0.1; fill:none" points="
  147.478,251.317 2352.76,251.317 
  "></polyline>
<polyline clip-path="url(#clip960)" style="stroke:#000000; stroke-linecap:round; stroke-linejoin:round; stroke-width:4; stroke-opacity:1; fill:none" points="
  147.478,1486.45 147.478,47.2441 
  "></polyline>
<polyline clip-path="url(#clip960)" style="stroke:#000000; stroke-linecap:round; stroke-linejoin:round; stroke-width:4; stroke-opacity:1; fill:none" points="
  147.478,1252.48 166.376,1252.48 
  "></polyline>
<polyline clip-path="url(#clip960)" style="stroke:#000000; stroke-linecap:round; stroke-linejoin:round; stroke-width:4; stroke-opacity:1; fill:none" points="
  147.478,1002.19 166.376,1002.19 
  "></polyline>
<polyline clip-path="url(#clip960)" style="stroke:#000000; stroke-linecap:round; stroke-linejoin:round; stroke-width:4; stroke-opacity:1; fill:none" points="
  147.478,751.897 166.376,751.897 
  "></polyline>
<polyline clip-path="url(#clip960)" style="stroke:#000000; stroke-linecap:round; stroke-linejoin:round; stroke-width:4; stroke-opacity:1; fill:none" points="
  147.478,501.607 166.376,501.607 
  "></polyline>
<polyline clip-path="url(#clip960)" style="stroke:#000000; stroke-linecap:round; stroke-linejoin:round; stroke-width:4; stroke-opacity:1; fill:none" points="
  147.478,251.317 166.376,251.317 
  "></polyline>
<path clip-path="url(#clip960)" d="M50.9921 1252.93 L80.6679 1252.93 L80.6679 1256.86 L50.9921 1256.86 L50.9921 1252.93 Z" fill="#000000" fill-rule="evenodd" fill-opacity="1"></path><path clip-path="url(#clip960)" d="M91.5706 1265.82 L99.2095 1265.82 L99.2095 1239.46 L90.8993 1241.12 L90.8993 1236.86 L99.1632 1235.2 L103.839 1235.2 L103.839 1265.82 L111.478 1265.82 L111.478 1269.76 L91.5706 1269.76 L91.5706 1265.82 Z" fill="#000000" fill-rule="evenodd" fill-opacity="1"></path><path clip-path="url(#clip960)" d="M99.5335 987.986 Q95.9224 987.986 94.0937 991.551 Q92.2882 995.092 92.2882 1002.22 Q92.2882 1009.33 94.0937 1012.89 Q95.9224 1016.43 99.5335 1016.43 Q103.168 1016.43 104.973 1012.89 Q106.802 1009.33 106.802 1002.22 Q106.802 995.092 104.973 991.551 Q103.168 987.986 99.5335 987.986 M99.5335 984.282 Q105.344 984.282 108.399 988.889 Q111.478 993.472 111.478 1002.22 Q111.478 1010.95 108.399 1015.56 Q105.344 1020.14 99.5335 1020.14 Q93.7234 1020.14 90.6447 1015.56 Q87.5892 1010.95 87.5892 1002.22 Q87.5892 993.472 90.6447 988.889 Q93.7234 984.282 99.5335 984.282 Z" fill="#000000" fill-rule="evenodd" fill-opacity="1"></path><path clip-path="url(#clip960)" d="M91.5706 765.242 L99.2095 765.242 L99.2095 738.876 L90.8993 740.543 L90.8993 736.284 L99.1632 734.617 L103.839 734.617 L103.839 765.242 L111.478 765.242 L111.478 769.177 L91.5706 769.177 L91.5706 765.242 Z" fill="#000000" fill-rule="evenodd" fill-opacity="1"></path><path clip-path="url(#clip960)" d="M95.1586 514.952 L111.478 514.952 L111.478 518.887 L89.5336 518.887 L89.5336 514.952 Q92.1956 512.197 96.7789 507.568 Q101.385 502.915 102.566 501.572 Q104.811 499.049 105.691 497.313 Q106.594 495.554 106.594 493.864 Q106.594 491.11 104.649 489.373 Q102.728 487.637 99.6261 487.637 Q97.4271 487.637 94.9734 488.401 Q92.5428 489.165 89.7651 490.716 L89.7651 485.994 Q92.5891 484.86 95.0428 484.281 Q97.4965 483.702 99.5335 483.702 Q104.904 483.702 108.098 486.387 Q111.293 489.073 111.293 493.563 Q111.293 495.693 110.483 497.614 Q109.696 499.512 107.589 502.105 Q107.01 502.776 103.909 505.994 Q100.807 509.188 95.1586 514.952 Z" fill="#000000" fill-rule="evenodd" fill-opacity="1"></path><path clip-path="url(#clip960)" d="M104.348 249.963 Q107.705 250.681 109.58 252.949 Q111.478 255.218 111.478 258.551 Q111.478 263.667 107.959 266.468 Q104.441 269.268 97.9595 269.268 Q95.7836 269.268 93.4688 268.829 Q91.1771 268.412 88.7234 267.556 L88.7234 263.042 Q90.6678 264.176 92.9826 264.755 Q95.2974 265.333 97.8206 265.333 Q102.219 265.333 104.51 263.597 Q106.825 261.861 106.825 258.551 Q106.825 255.495 104.672 253.782 Q102.543 252.046 98.7234 252.046 L94.6956 252.046 L94.6956 248.204 L98.9085 248.204 Q102.358 248.204 104.186 246.838 Q106.015 245.449 106.015 242.857 Q106.015 240.195 104.117 238.783 Q102.242 237.347 98.7234 237.347 Q96.8021 237.347 94.603 237.764 Q92.4039 238.181 89.7651 239.06 L89.7651 234.894 Q92.4271 234.153 94.7419 233.783 Q97.0798 233.412 99.14 233.412 Q104.464 233.412 107.566 235.843 Q110.668 238.25 110.668 242.37 Q110.668 245.241 109.024 247.232 Q107.381 249.199 104.348 249.963 Z" fill="#000000" fill-rule="evenodd" fill-opacity="1"></path><polyline clip-path="url(#clip962)" style="stroke:#009af9; stroke-linecap:round; stroke-linejoin:round; stroke-width:4; stroke-opacity:1; fill:none" points="
  209.891,1035.81 346.096,1000.59 506.169,959.202 509.022,958.464 589.984,937.53 641.761,924.143 643.686,923.645 677.642,914.865 768.58,891.353 790.728,885.626 
  805.158,881.895 842.155,872.329 844.021,871.847 852.877,869.557 861.62,867.296 868.095,865.622 897.501,858.019 913.866,853.787 943.889,846.025 947.923,844.982 
  954.803,843.203 960.557,841.715 963.721,840.897 974.339,838.151 981.208,836.375 1000.75,831.323 1006.87,829.739 1019.84,826.387 1023.22,825.512 1028.7,824.096 
  1031.01,823.498 1065.64,814.543 1065.84,814.492 1072.77,812.7 1078.82,811.137 1081.28,810.501 1097.84,806.22 1106.84,803.892 1121.41,800.124 1147.43,793.397 
  1175.85,786.047 1212.17,776.659 1212.76,776.505 1214.96,775.937 1223.26,773.789 1226.27,773.012 1245.47,768.047 1267.35,762.389 1282.49,758.475 1284.43,757.975 
  1300.88,753.721 1319.71,748.851 1345.45,742.196 1362.48,737.794 1365.61,736.985 1396.37,729.031 1400.18,728.045 1413.38,724.633 1422.56,722.258 1434.34,719.214 
  1436.84,718.567 1441.38,717.393 1454.68,713.954 1468.83,710.296 1478.26,707.856 1490.58,704.672 1496.85,703.05 1504.26,701.136 1513.09,698.851 1539.34,692.064 
  1540.37,691.798 1550.72,689.122 1562.25,686.141 1562.76,686.009 1593.04,678.18 1596.43,677.302 1670.82,658.069 1709.41,648.09 1735.06,641.459 1743.45,639.289 
  1752.32,636.996 1772.66,631.736 1855.11,610.418 1859.13,609.378 1861.2,608.843 1863.25,608.315 1872.27,605.981 1873.18,605.745 1873.42,605.684 1891.65,600.971 
  1892.2,600.829 2016.63,568.655 2055.55,558.594 2080.67,552.098 2112.57,543.85 2134.27,538.239 2166.95,529.79 2242.08,510.364 2266.65,504.011 2290.34,497.884 
  
  "></polyline>
<polyline clip-path="url(#clip962)" style="stroke:#ffc0cb; stroke-linecap:round; stroke-linejoin:round; stroke-width:4; stroke-opacity:1; fill:none" points="
  209.891,1445.72 346.096,1410.5 506.169,1369.11 509.022,1368.37 589.984,1347.44 641.761,1334.05 643.686,1333.55 677.642,1324.77 768.58,1301.26 790.728,1295.53 
  805.158,1291.8 842.155,1282.24 844.021,1281.75 852.877,1279.46 861.62,1277.2 868.095,1275.53 897.501,1267.93 913.866,1263.7 943.889,1255.93 947.923,1254.89 
  954.803,1253.11 960.557,1251.62 963.721,1250.8 974.339,1248.06 981.208,1246.28 1000.75,1241.23 1006.87,1239.65 1019.84,1236.29 1023.22,1235.42 1028.7,1234 
  1031.01,1233.41 1065.64,1224.45 1065.84,1224.4 1072.77,1222.61 1078.82,1221.05 1081.28,1220.41 1097.84,1216.13 1106.84,1213.8 1121.41,1210.03 1147.43,1203.31 
  1175.85,1195.96 1212.17,1186.57 1212.76,1186.41 1214.96,1185.85 1223.26,1183.7 1226.27,1182.92 1245.47,1177.95 1267.35,1172.3 1282.49,1168.38 1284.43,1167.88 
  1300.88,1163.63 1319.71,1158.76 1345.45,1152.1 1362.48,1147.7 1365.61,1146.89 1396.37,1138.94 1400.18,1137.95 1413.38,1134.54 1422.56,1132.17 1434.34,1129.12 
  1436.84,1128.48 1441.38,1127.3 1454.68,1123.86 1468.83,1120.2 1478.26,1117.76 1490.58,1114.58 1496.85,1112.96 1504.26,1111.04 1513.09,1108.76 1539.34,1101.97 
  1540.37,1101.71 1550.72,1099.03 1562.25,1096.05 1562.76,1095.92 1593.04,1088.09 1596.43,1087.21 1670.82,1067.98 1709.41,1058 1735.06,1051.37 1743.45,1049.2 
  1752.32,1046.9 1772.66,1041.64 1855.11,1020.33 1859.13,1019.29 1861.2,1018.75 1863.25,1018.22 1872.27,1015.89 1873.18,1015.65 1873.42,1015.59 1891.65,1010.88 
  1892.2,1010.74 2016.63,978.563 2055.55,968.502 2080.67,962.007 2112.57,953.758 2134.27,948.147 2166.95,939.698 2242.08,920.272 2266.65,913.919 2290.34,907.793 
  
  "></polyline>
<polyline clip-path="url(#clip962)" style="stroke:#ffc0cb; stroke-linecap:round; stroke-linejoin:round; stroke-width:4; stroke-opacity:1; fill:none" points="
  209.891,625.899 346.096,590.682 506.169,549.294 509.022,548.556 589.984,527.622 641.761,514.235 643.686,513.737 677.642,504.957 768.58,481.444 790.728,475.718 
  805.158,471.987 842.155,462.421 844.021,461.938 852.877,459.649 861.62,457.388 868.095,455.714 897.501,448.111 913.866,443.879 943.889,436.116 947.923,435.074 
  954.803,433.294 960.557,431.807 963.721,430.989 974.339,428.243 981.208,426.467 1000.75,421.415 1006.87,419.831 1019.84,416.479 1023.22,415.604 1028.7,414.188 
  1031.01,413.59 1065.64,404.635 1065.84,404.584 1072.77,402.792 1078.82,401.229 1081.28,400.593 1097.84,396.311 1106.84,393.984 1121.41,390.216 1147.43,383.489 
  1175.85,376.139 1212.17,366.751 1212.76,366.597 1214.96,366.029 1223.26,363.881 1226.27,363.104 1245.47,358.139 1267.35,352.481 1282.49,348.567 1284.43,348.066 
  1300.88,343.812 1319.71,338.943 1345.45,332.287 1362.48,327.886 1365.61,327.076 1396.37,319.123 1400.18,318.137 1413.38,314.725 1422.56,312.35 1434.34,309.306 
  1436.84,308.659 1441.38,307.485 1454.68,304.046 1468.83,300.388 1478.26,297.948 1490.58,294.764 1496.85,293.142 1504.26,291.228 1513.09,288.942 1539.34,282.156 
  1540.37,281.89 1550.72,279.214 1562.25,276.233 1562.76,276.1 1593.04,268.272 1596.43,267.394 1670.82,248.161 1709.41,238.182 1735.06,231.551 1743.45,229.381 
  1752.32,227.088 1772.66,221.828 1855.11,200.51 1859.13,199.47 1861.2,198.935 1863.25,198.407 1872.27,196.073 1873.18,195.837 1873.42,195.775 1891.65,191.063 
  1892.2,190.921 2016.63,158.747 2055.55,148.685 2080.67,142.19 2112.57,133.942 2134.27,128.331 2166.95,119.882 2242.08,100.456 2266.65,94.1031 2290.34,87.9763 
  
  "></polyline>
<path clip-path="url(#clip960)" d="
M220.987 302.578 L800.772 302.578 L800.772 95.2176 L220.987 95.2176  Z
  " fill="#ffffff" fill-rule="evenodd" fill-opacity="1"></path>
<polyline clip-path="url(#clip960)" style="stroke:#000000; stroke-linecap:round; stroke-linejoin:round; stroke-width:4; stroke-opacity:1; fill:none" points="
  220.987,302.578 800.772,302.578 800.772,95.2176 220.987,95.2176 220.987,302.578 
  "></polyline>
<polyline clip-path="url(#clip960)" style="stroke:#009af9; stroke-linecap:round; stroke-linejoin:round; stroke-width:4; stroke-opacity:1; fill:none" points="
  245.49,147.058 392.509,147.058 
  "></polyline>
<path clip-path="url(#clip960)" d="M417.012 129.778 L438.864 129.778 L438.864 133.713 L421.688 133.713 L421.688 143.944 L438.146 143.944 L438.146 147.879 L421.688 147.879 L421.688 160.402 L439.28 160.402 L439.28 164.338 L417.012 164.338 L417.012 129.778 Z" fill="#000000" fill-rule="evenodd" fill-opacity="1"></path><path clip-path="url(#clip960)" d="M468.331 138.412 L458.956 151.027 L468.817 164.338 L463.794 164.338 L456.248 154.152 L448.702 164.338 L443.678 164.338 L453.748 150.773 L444.535 138.412 L449.558 138.412 L456.433 147.648 L463.308 138.412 L468.331 138.412 Z" fill="#000000" fill-rule="evenodd" fill-opacity="1"></path><path clip-path="url(#clip960)" d="M478.956 160.449 L478.956 174.199 L474.674 174.199 L474.674 138.412 L478.956 138.412 L478.956 142.347 Q480.299 140.032 482.336 138.921 Q484.396 137.787 487.243 137.787 Q491.965 137.787 494.905 141.537 Q497.868 145.287 497.868 151.398 Q497.868 157.509 494.905 161.259 Q491.965 165.009 487.243 165.009 Q484.396 165.009 482.336 163.898 Q480.299 162.763 478.956 160.449 M493.447 151.398 Q493.447 146.699 491.502 144.037 Q489.581 141.352 486.201 141.352 Q482.822 141.352 480.877 144.037 Q478.956 146.699 478.956 151.398 Q478.956 156.097 480.877 158.782 Q482.822 161.444 486.201 161.444 Q489.581 161.444 491.502 158.782 Q493.447 156.097 493.447 151.398 Z" fill="#000000" fill-rule="evenodd" fill-opacity="1"></path><path clip-path="url(#clip960)" d="M527.104 150.31 L527.104 152.393 L507.521 152.393 Q507.798 156.791 510.16 159.106 Q512.544 161.398 516.78 161.398 Q519.234 161.398 521.525 160.796 Q523.84 160.194 526.109 158.99 L526.109 163.018 Q523.817 163.99 521.409 164.5 Q519.002 165.009 516.525 165.009 Q510.322 165.009 506.687 161.398 Q503.076 157.787 503.076 151.629 Q503.076 145.264 506.502 141.537 Q509.951 137.787 515.785 137.787 Q521.016 137.787 524.048 141.166 Q527.104 144.523 527.104 150.31 M522.845 149.06 Q522.798 145.565 520.877 143.481 Q518.979 141.398 515.831 141.398 Q512.266 141.398 510.113 143.412 Q507.984 145.426 507.66 149.083 L522.845 149.06 Z" fill="#000000" fill-rule="evenodd" fill-opacity="1"></path><path clip-path="url(#clip960)" d="M552.752 139.407 L552.752 143.389 Q550.946 142.393 549.118 141.907 Q547.312 141.398 545.46 141.398 Q541.317 141.398 539.025 144.037 Q536.733 146.652 536.733 151.398 Q536.733 156.143 539.025 158.782 Q541.317 161.398 545.46 161.398 Q547.312 161.398 549.118 160.912 Q550.946 160.402 552.752 159.407 L552.752 163.342 Q550.97 164.176 549.048 164.592 Q547.15 165.009 544.997 165.009 Q539.141 165.009 535.692 161.328 Q532.243 157.648 532.243 151.398 Q532.243 145.055 535.715 141.421 Q539.21 137.787 545.275 137.787 Q547.243 137.787 549.118 138.203 Q550.993 138.597 552.752 139.407 Z" fill="#000000" fill-rule="evenodd" fill-opacity="1"></path><path clip-path="url(#clip960)" d="M564.372 131.051 L564.372 138.412 L573.145 138.412 L573.145 141.722 L564.372 141.722 L564.372 155.796 Q564.372 158.967 565.229 159.87 Q566.108 160.773 568.77 160.773 L573.145 160.773 L573.145 164.338 L568.77 164.338 Q563.84 164.338 561.965 162.509 Q560.09 160.657 560.09 155.796 L560.09 141.722 L556.965 141.722 L556.965 138.412 L560.09 138.412 L560.09 131.051 L564.372 131.051 Z" fill="#000000" fill-rule="evenodd" fill-opacity="1"></path><path clip-path="url(#clip960)" d="M600.923 150.31 L600.923 152.393 L581.34 152.393 Q581.617 156.791 583.979 159.106 Q586.363 161.398 590.599 161.398 Q593.053 161.398 595.344 160.796 Q597.659 160.194 599.928 158.99 L599.928 163.018 Q597.636 163.99 595.229 164.5 Q592.821 165.009 590.344 165.009 Q584.141 165.009 580.506 161.398 Q576.895 157.787 576.895 151.629 Q576.895 145.264 580.321 141.537 Q583.77 137.787 589.604 137.787 Q594.835 137.787 597.867 141.166 Q600.923 144.523 600.923 150.31 M596.664 149.06 Q596.617 145.565 594.696 143.481 Q592.798 141.398 589.65 141.398 Q586.085 141.398 583.932 143.412 Q581.803 145.426 581.479 149.083 L596.664 149.06 Z" fill="#000000" fill-rule="evenodd" fill-opacity="1"></path><path clip-path="url(#clip960)" d="M624.974 142.347 L624.974 128.319 L629.233 128.319 L629.233 164.338 L624.974 164.338 L624.974 160.449 Q623.631 162.763 621.571 163.898 Q619.534 165.009 616.664 165.009 Q611.965 165.009 609.002 161.259 Q606.062 157.509 606.062 151.398 Q606.062 145.287 609.002 141.537 Q611.965 137.787 616.664 137.787 Q619.534 137.787 621.571 138.921 Q623.631 140.032 624.974 142.347 M610.46 151.398 Q610.46 156.097 612.381 158.782 Q614.326 161.444 617.705 161.444 Q621.085 161.444 623.029 158.782 Q624.974 156.097 624.974 151.398 Q624.974 146.699 623.029 144.037 Q621.085 141.352 617.705 141.352 Q614.326 141.352 612.381 144.037 Q610.46 146.699 610.46 151.398 Z" fill="#000000" fill-rule="evenodd" fill-opacity="1"></path><path clip-path="url(#clip960)" d="M662.173 164.338 L648.978 129.778 L653.862 129.778 L664.811 158.875 L675.784 129.778 L680.645 129.778 L667.474 164.338 L662.173 164.338 Z" fill="#000000" fill-rule="evenodd" fill-opacity="1"></path><path clip-path="url(#clip960)" d="M693.608 151.305 Q688.446 151.305 686.455 152.486 Q684.464 153.666 684.464 156.514 Q684.464 158.782 685.946 160.125 Q687.45 161.444 690.02 161.444 Q693.561 161.444 695.691 158.944 Q697.844 156.421 697.844 152.254 L697.844 151.305 L693.608 151.305 M702.103 149.546 L702.103 164.338 L697.844 164.338 L697.844 160.402 Q696.385 162.763 694.209 163.898 Q692.034 165.009 688.885 165.009 Q684.904 165.009 682.543 162.787 Q680.205 160.541 680.205 156.791 Q680.205 152.416 683.122 150.194 Q686.061 147.972 691.872 147.972 L697.844 147.972 L697.844 147.555 Q697.844 144.615 695.899 143.018 Q693.978 141.398 690.483 141.398 Q688.26 141.398 686.154 141.93 Q684.047 142.463 682.103 143.527 L682.103 139.592 Q684.441 138.69 686.64 138.25 Q688.839 137.787 690.922 137.787 Q696.547 137.787 699.325 140.703 Q702.103 143.62 702.103 149.546 Z" fill="#000000" fill-rule="evenodd" fill-opacity="1"></path><path clip-path="url(#clip960)" d="M710.876 128.319 L715.135 128.319 L715.135 164.338 L710.876 164.338 L710.876 128.319 Z" fill="#000000" fill-rule="evenodd" fill-opacity="1"></path><path clip-path="url(#clip960)" d="M723.607 154.106 L723.607 138.412 L727.867 138.412 L727.867 153.944 Q727.867 157.625 729.302 159.476 Q730.737 161.305 733.607 161.305 Q737.056 161.305 739.047 159.106 Q741.061 156.907 741.061 153.111 L741.061 138.412 L745.32 138.412 L745.32 164.338 L741.061 164.338 L741.061 160.356 Q739.51 162.717 737.45 163.875 Q735.413 165.009 732.705 165.009 Q728.237 165.009 725.922 162.231 Q723.607 159.453 723.607 154.106 M734.325 137.787 L734.325 137.787 Z" fill="#000000" fill-rule="evenodd" fill-opacity="1"></path><path clip-path="url(#clip960)" d="M776.269 150.31 L776.269 152.393 L756.686 152.393 Q756.964 156.791 759.325 159.106 Q761.709 161.398 765.945 161.398 Q768.399 161.398 770.691 160.796 Q773.005 160.194 775.274 158.99 L775.274 163.018 Q772.982 163.99 770.575 164.5 Q768.167 165.009 765.691 165.009 Q759.487 165.009 755.853 161.398 Q752.242 157.787 752.242 151.629 Q752.242 145.264 755.667 141.537 Q759.117 137.787 764.95 137.787 Q770.181 137.787 773.214 141.166 Q776.269 144.523 776.269 150.31 M772.01 149.06 Q771.964 145.565 770.042 143.481 Q768.144 141.398 764.996 141.398 Q761.431 141.398 759.279 143.412 Q757.149 145.426 756.825 149.083 L772.01 149.06 Z" fill="#000000" fill-rule="evenodd" fill-opacity="1"></path><polyline clip-path="url(#clip960)" style="stroke:#ffc0cb; stroke-linecap:round; stroke-linejoin:round; stroke-width:4; stroke-opacity:1; fill:none" points="
  245.49,198.898 392.509,198.898 
  "></polyline>
<path clip-path="url(#clip960)" d="M417.012 181.618 L421.688 181.618 L421.688 212.242 L438.516 212.242 L438.516 216.178 L417.012 216.178 L417.012 181.618 Z" fill="#000000" fill-rule="evenodd" fill-opacity="1"></path><path clip-path="url(#clip960)" d="M452.452 193.238 Q449.026 193.238 447.035 195.923 Q445.044 198.585 445.044 203.238 Q445.044 207.891 447.012 210.576 Q449.002 213.238 452.452 213.238 Q455.854 213.238 457.845 210.553 Q459.836 207.867 459.836 203.238 Q459.836 198.631 457.845 195.946 Q455.854 193.238 452.452 193.238 M452.452 189.627 Q458.007 189.627 461.178 193.238 Q464.35 196.849 464.35 203.238 Q464.35 209.604 461.178 213.238 Q458.007 216.849 452.452 216.849 Q446.873 216.849 443.702 213.238 Q440.553 209.604 440.553 203.238 Q440.553 196.849 443.702 193.238 Q446.873 189.627 452.452 189.627 Z" fill="#000000" fill-rule="evenodd" fill-opacity="1"></path><path clip-path="url(#clip960)" d="M468.933 190.252 L473.192 190.252 L478.516 210.483 L483.817 190.252 L488.84 190.252 L494.164 210.483 L499.465 190.252 L503.724 190.252 L496.942 216.178 L491.919 216.178 L486.34 194.928 L480.738 216.178 L475.715 216.178 L468.933 190.252 Z" fill="#000000" fill-rule="evenodd" fill-opacity="1"></path><path clip-path="url(#clip960)" d="M532.358 202.15 L532.358 204.233 L512.775 204.233 Q513.053 208.631 515.414 210.946 Q517.798 213.238 522.034 213.238 Q524.488 213.238 526.78 212.636 Q529.095 212.034 531.363 210.83 L531.363 214.858 Q529.071 215.83 526.664 216.34 Q524.257 216.849 521.78 216.849 Q515.576 216.849 511.942 213.238 Q508.331 209.627 508.331 203.469 Q508.331 197.104 511.757 193.377 Q515.206 189.627 521.039 189.627 Q526.271 189.627 529.303 193.006 Q532.358 196.363 532.358 202.15 M528.099 200.9 Q528.053 197.405 526.132 195.321 Q524.234 193.238 521.085 193.238 Q517.521 193.238 515.368 195.252 Q513.238 197.266 512.914 200.923 L528.099 200.9 Z" fill="#000000" fill-rule="evenodd" fill-opacity="1"></path><path clip-path="url(#clip960)" d="M554.372 194.233 Q553.655 193.817 552.798 193.631 Q551.965 193.423 550.946 193.423 Q547.335 193.423 545.391 195.784 Q543.47 198.122 543.47 202.52 L543.47 216.178 L539.187 216.178 L539.187 190.252 L543.47 190.252 L543.47 194.28 Q544.812 191.918 546.965 190.784 Q549.118 189.627 552.196 189.627 Q552.636 189.627 553.169 189.696 Q553.701 189.743 554.349 189.858 L554.372 194.233 Z" fill="#000000" fill-rule="evenodd" fill-opacity="1"></path><path clip-path="url(#clip960)" d="M599.974 184.28 L599.974 189.21 Q597.613 187.011 594.928 185.923 Q592.266 184.835 589.256 184.835 Q583.33 184.835 580.182 188.469 Q577.034 192.08 577.034 198.932 Q577.034 205.761 580.182 209.395 Q583.33 213.006 589.256 213.006 Q592.266 213.006 594.928 211.918 Q597.613 210.83 599.974 208.631 L599.974 213.516 Q597.52 215.182 594.766 216.016 Q592.034 216.849 588.979 216.849 Q581.131 216.849 576.618 212.057 Q572.104 207.242 572.104 198.932 Q572.104 190.599 576.618 185.807 Q581.131 180.993 588.979 180.993 Q592.08 180.993 594.812 181.826 Q597.566 182.636 599.974 184.28 Z" fill="#000000" fill-rule="evenodd" fill-opacity="1"></path><path clip-path="url(#clip960)" d="M607.196 181.618 L611.872 181.618 L611.872 212.242 L628.701 212.242 L628.701 216.178 L607.196 216.178 L607.196 181.618 Z" fill="#000000" fill-rule="evenodd" fill-opacity="1"></path><polyline clip-path="url(#clip960)" style="stroke:#ffc0cb; stroke-linecap:round; stroke-linejoin:round; stroke-width:4; stroke-opacity:1; fill:none" points="
  245.49,250.738 392.509,250.738 
  "></polyline>
<path clip-path="url(#clip960)" d="M417.012 233.458 L421.711 233.458 L421.711 254.453 Q421.711 260.008 423.725 262.462 Q425.739 264.893 430.253 264.893 Q434.743 264.893 436.757 262.462 Q438.771 260.008 438.771 254.453 L438.771 233.458 L443.47 233.458 L443.47 255.032 Q443.47 261.791 440.114 265.24 Q436.78 268.689 430.253 268.689 Q423.702 268.689 420.345 265.24 Q417.012 261.791 417.012 255.032 L417.012 233.458 Z" fill="#000000" fill-rule="evenodd" fill-opacity="1"></path><path clip-path="url(#clip960)" d="M456.178 264.129 L456.178 277.879 L451.896 277.879 L451.896 242.092 L456.178 242.092 L456.178 246.027 Q457.521 243.712 459.558 242.601 Q461.618 241.467 464.465 241.467 Q469.188 241.467 472.127 245.217 Q475.09 248.967 475.09 255.078 Q475.09 261.189 472.127 264.939 Q469.188 268.689 464.465 268.689 Q461.618 268.689 459.558 267.578 Q457.521 266.443 456.178 264.129 M470.669 255.078 Q470.669 250.379 468.725 247.717 Q466.803 245.032 463.424 245.032 Q460.044 245.032 458.1 247.717 Q456.178 250.379 456.178 255.078 Q456.178 259.777 458.1 262.462 Q460.044 265.124 463.424 265.124 Q466.803 265.124 468.725 262.462 Q470.669 259.777 470.669 255.078 Z" fill="#000000" fill-rule="evenodd" fill-opacity="1"></path><path clip-path="url(#clip960)" d="M486.271 264.129 L486.271 277.879 L481.988 277.879 L481.988 242.092 L486.271 242.092 L486.271 246.027 Q487.613 243.712 489.65 242.601 Q491.711 241.467 494.558 241.467 Q499.28 241.467 502.22 245.217 Q505.183 248.967 505.183 255.078 Q505.183 261.189 502.22 264.939 Q499.28 268.689 494.558 268.689 Q491.711 268.689 489.65 267.578 Q487.613 266.443 486.271 264.129 M500.761 255.078 Q500.761 250.379 498.817 247.717 Q496.896 245.032 493.516 245.032 Q490.136 245.032 488.192 247.717 Q486.271 250.379 486.271 255.078 Q486.271 259.777 488.192 262.462 Q490.136 265.124 493.516 265.124 Q496.896 265.124 498.817 262.462 Q500.761 259.777 500.761 255.078 Z" fill="#000000" fill-rule="evenodd" fill-opacity="1"></path><path clip-path="url(#clip960)" d="M534.419 253.99 L534.419 256.073 L514.835 256.073 Q515.113 260.471 517.474 262.786 Q519.859 265.078 524.095 265.078 Q526.548 265.078 528.84 264.476 Q531.155 263.874 533.423 262.67 L533.423 266.698 Q531.132 267.67 528.724 268.18 Q526.317 268.689 523.84 268.689 Q517.636 268.689 514.002 265.078 Q510.391 261.467 510.391 255.309 Q510.391 248.944 513.817 245.217 Q517.266 241.467 523.099 241.467 Q528.331 241.467 531.363 244.846 Q534.419 248.203 534.419 253.99 M530.159 252.74 Q530.113 249.245 528.192 247.161 Q526.294 245.078 523.146 245.078 Q519.581 245.078 517.428 247.092 Q515.298 249.106 514.974 252.763 L530.159 252.74 Z" fill="#000000" fill-rule="evenodd" fill-opacity="1"></path><path clip-path="url(#clip960)" d="M556.432 246.073 Q555.715 245.657 554.858 245.471 Q554.025 245.263 553.007 245.263 Q549.395 245.263 547.451 247.624 Q545.53 249.962 545.53 254.36 L545.53 268.018 L541.247 268.018 L541.247 242.092 L545.53 242.092 L545.53 246.12 Q546.872 243.758 549.025 242.624 Q551.178 241.467 554.257 241.467 Q554.696 241.467 555.229 241.536 Q555.761 241.583 556.409 241.698 L556.432 246.073 Z" fill="#000000" fill-rule="evenodd" fill-opacity="1"></path><path clip-path="url(#clip960)" d="M602.034 236.12 L602.034 241.05 Q599.673 238.851 596.988 237.763 Q594.326 236.675 591.317 236.675 Q585.391 236.675 582.242 240.309 Q579.094 243.92 579.094 250.772 Q579.094 257.601 582.242 261.235 Q585.391 264.846 591.317 264.846 Q594.326 264.846 596.988 263.758 Q599.673 262.67 602.034 260.471 L602.034 265.356 Q599.58 267.022 596.826 267.856 Q594.094 268.689 591.039 268.689 Q583.192 268.689 578.678 263.897 Q574.164 259.082 574.164 250.772 Q574.164 242.439 578.678 237.647 Q583.192 232.833 591.039 232.833 Q594.141 232.833 596.872 233.666 Q599.627 234.476 602.034 236.12 Z" fill="#000000" fill-rule="evenodd" fill-opacity="1"></path><path clip-path="url(#clip960)" d="M609.256 233.458 L613.932 233.458 L613.932 264.082 L630.761 264.082 L630.761 268.018 L609.256 268.018 L609.256 233.458 Z" fill="#000000" fill-rule="evenodd" fill-opacity="1"></path></svg>