<svg xmlns="http://www.w3.org/2000/svg" xmlns:xlink="http://www.w3.org/1999/xlink" width="600" height="400" viewBox="0 0 2400 1600">
<defs>
  <clipPath id="clip660">
    <rect x="0" y="0" width="2400" height="1600"></rect>
  </clipPath>
</defs>
<path clip-path="url(#clip660)" d="M0 1600 L2400 1600 L2400 0 L0 0  Z" fill="#ffffff" fill-rule="evenodd" fill-opacity="1"></path>
<defs>
  <clipPath id="clip661">
    <rect x="480" y="0" width="1681" height="1600"></rect>
  </clipPath>
</defs>
<path clip-path="url(#clip660)" d="M186.274 1486.45 L2352.76 1486.45 L2352.76 123.472 L186.274 123.472  Z" fill="#ffffff" fill-rule="evenodd" fill-opacity="1"></path>
<defs>
  <clipPath id="clip662">
    <rect x="186" y="123" width="2167" height="1364"></rect>
  </clipPath>
</defs>
<polyline clip-path="url(#clip662)" style="stroke:#000000; stroke-linecap:round; stroke-linejoin:round; stroke-width:2; stroke-opacity:0.1; fill:none" points="534.499,1486.45 534.499,123.472 "></polyline>
<polyline clip-path="url(#clip662)" style="stroke:#000000; stroke-linecap:round; stroke-linejoin:round; stroke-width:2; stroke-opacity:0.1; fill:none" points="923.79,1486.45 923.79,123.472 "></polyline>
<polyline clip-path="url(#clip662)" style="stroke:#000000; stroke-linecap:round; stroke-linejoin:round; stroke-width:2; stroke-opacity:0.1; fill:none" points="1313.08,1486.45 1313.08,123.472 "></polyline>
<polyline clip-path="url(#clip662)" style="stroke:#000000; stroke-linecap:round; stroke-linejoin:round; stroke-width:2; stroke-opacity:0.1; fill:none" points="1702.37,1486.45 1702.37,123.472 "></polyline>
<polyline clip-path="url(#clip662)" style="stroke:#000000; stroke-linecap:round; stroke-linejoin:round; stroke-width:2; stroke-opacity:0.1; fill:none" points="2091.66,1486.45 2091.66,123.472 "></polyline>
<polyline clip-path="url(#clip662)" style="stroke:#000000; stroke-linecap:round; stroke-linejoin:round; stroke-width:2; stroke-opacity:0.1; fill:none" points="186.274,1447.87 2352.76,1447.87 "></polyline>
<polyline clip-path="url(#clip662)" style="stroke:#000000; stroke-linecap:round; stroke-linejoin:round; stroke-width:2; stroke-opacity:0.1; fill:none" points="186.274,1171.76 2352.76,1171.76 "></polyline>
<polyline clip-path="url(#clip662)" style="stroke:#000000; stroke-linecap:round; stroke-linejoin:round; stroke-width:2; stroke-opacity:0.1; fill:none" points="186.274,895.648 2352.76,895.648 "></polyline>
<polyline clip-path="url(#clip662)" style="stroke:#000000; stroke-linecap:round; stroke-linejoin:round; stroke-width:2; stroke-opacity:0.1; fill:none" points="186.274,619.535 2352.76,619.535 "></polyline>
<polyline clip-path="url(#clip662)" style="stroke:#000000; stroke-linecap:round; stroke-linejoin:round; stroke-width:2; stroke-opacity:0.1; fill:none" points="186.274,343.422 2352.76,343.422 "></polyline>
<polyline clip-path="url(#clip660)" style="stroke:#000000; stroke-linecap:round; stroke-linejoin:round; stroke-width:4; stroke-opacity:1; fill:none" points="186.274,1486.45 2352.76,1486.45 "></polyline>
<polyline clip-path="url(#clip660)" style="stroke:#000000; stroke-linecap:round; stroke-linejoin:round; stroke-width:4; stroke-opacity:1; fill:none" points="534.499,1486.45 534.499,1467.55 "></polyline>
<polyline clip-path="url(#clip660)" style="stroke:#000000; stroke-linecap:round; stroke-linejoin:round; stroke-width:4; stroke-opacity:1; fill:none" points="923.79,1486.45 923.79,1467.55 "></polyline>
<polyline clip-path="url(#clip660)" style="stroke:#000000; stroke-linecap:round; stroke-linejoin:round; stroke-width:4; stroke-opacity:1; fill:none" points="1313.08,1486.45 1313.08,1467.55 "></polyline>
<polyline clip-path="url(#clip660)" style="stroke:#000000; stroke-linecap:round; stroke-linejoin:round; stroke-width:4; stroke-opacity:1; fill:none" points="1702.37,1486.45 1702.37,1467.55 "></polyline>
<polyline clip-path="url(#clip660)" style="stroke:#000000; stroke-linecap:round; stroke-linejoin:round; stroke-width:4; stroke-opacity:1; fill:none" points="2091.66,1486.45 2091.66,1467.55 "></polyline>
<path clip-path="url(#clip660)" d="M511.883 1517.37 Q508.272 1517.37 506.443 1520.93 Q504.638 1524.47 504.638 1531.6 Q504.638 1538.71 506.443 1542.27 Q508.272 1545.82 511.883 1545.82 Q515.517 1545.82 517.323 1542.27 Q519.152 1538.71 519.152 1531.6 Q519.152 1524.47 517.323 1520.93 Q515.517 1517.37 511.883 1517.37 M511.883 1513.66 Q517.693 1513.66 520.749 1518.27 Q523.827 1522.85 523.827 1531.6 Q523.827 1540.33 520.749 1544.94 Q517.693 1549.52 511.883 1549.52 Q506.073 1549.52 502.994 1544.94 Q499.939 1540.33 499.939 1531.6 Q499.939 1522.85 502.994 1518.27 Q506.073 1513.66 511.883 1513.66 Z" fill="#000000" fill-rule="nonzero" fill-opacity="1"></path><path clip-path="url(#clip660)" d="M532.045 1542.97 L536.929 1542.97 L536.929 1548.85 L532.045 1548.85 L532.045 1542.97 Z" fill="#000000" fill-rule="nonzero" fill-opacity="1"></path><path clip-path="url(#clip660)" d="M557.114 1517.37 Q553.503 1517.37 551.674 1520.93 Q549.869 1524.47 549.869 1531.6 Q549.869 1538.71 551.674 1542.27 Q553.503 1545.82 557.114 1545.82 Q560.749 1545.82 562.554 1542.27 Q564.383 1538.71 564.383 1531.6 Q564.383 1524.47 562.554 1520.93 Q560.749 1517.37 557.114 1517.37 M557.114 1513.66 Q562.924 1513.66 565.98 1518.27 Q569.059 1522.85 569.059 1531.6 Q569.059 1540.33 565.98 1544.94 Q562.924 1549.52 557.114 1549.52 Q551.304 1549.52 548.225 1544.94 Q545.17 1540.33 545.17 1531.6 Q545.17 1522.85 548.225 1518.27 Q551.304 1513.66 557.114 1513.66 Z" fill="#000000" fill-rule="nonzero" fill-opacity="1"></path><path clip-path="url(#clip660)" d="M895.526 1544.91 L911.845 1544.91 L911.845 1548.85 L889.901 1548.85 L889.901 1544.91 Q892.563 1542.16 897.146 1537.53 Q901.753 1532.88 902.933 1531.53 Q905.179 1529.01 906.058 1527.27 Q906.961 1525.51 906.961 1523.82 Q906.961 1521.07 905.016 1519.33 Q903.095 1517.6 899.993 1517.6 Q897.794 1517.6 895.341 1518.36 Q892.91 1519.13 890.132 1520.68 L890.132 1515.95 Q892.956 1514.82 895.41 1514.24 Q897.864 1513.66 899.901 1513.66 Q905.271 1513.66 908.466 1516.35 Q911.66 1519.03 911.66 1523.52 Q911.66 1525.65 910.85 1527.57 Q910.063 1529.47 907.956 1532.07 Q907.378 1532.74 904.276 1535.95 Q901.174 1539.15 895.526 1544.91 Z" fill="#000000" fill-rule="nonzero" fill-opacity="1"></path><path clip-path="url(#clip660)" d="M921.66 1542.97 L926.544 1542.97 L926.544 1548.85 L921.66 1548.85 L921.66 1542.97 Z" fill="#000000" fill-rule="nonzero" fill-opacity="1"></path><path clip-path="url(#clip660)" d="M936.776 1514.29 L955.132 1514.29 L955.132 1518.22 L941.058 1518.22 L941.058 1526.7 Q942.076 1526.35 943.095 1526.19 Q944.114 1526 945.132 1526 Q950.919 1526 954.299 1529.17 Q957.678 1532.34 957.678 1537.76 Q957.678 1543.34 954.206 1546.44 Q950.734 1549.52 944.414 1549.52 Q942.239 1549.52 939.97 1549.15 Q937.725 1548.78 935.317 1548.04 L935.317 1543.34 Q937.401 1544.47 939.623 1545.03 Q941.845 1545.58 944.322 1545.58 Q948.326 1545.58 950.664 1543.48 Q953.002 1541.37 953.002 1537.76 Q953.002 1534.15 950.664 1532.04 Q948.326 1529.94 944.322 1529.94 Q942.447 1529.94 940.572 1530.35 Q938.72 1530.77 936.776 1531.65 L936.776 1514.29 Z" fill="#000000" fill-rule="nonzero" fill-opacity="1"></path><path clip-path="url(#clip660)" d="M1280.24 1514.29 L1298.6 1514.29 L1298.6 1518.22 L1284.53 1518.22 L1284.53 1526.7 Q1285.55 1526.35 1286.56 1526.19 Q1287.58 1526 1288.6 1526 Q1294.39 1526 1297.77 1529.17 Q1301.15 1532.34 1301.15 1537.76 Q1301.15 1543.34 1297.68 1546.44 Q1294.2 1549.52 1287.88 1549.52 Q1285.71 1549.52 1283.44 1549.15 Q1281.19 1548.78 1278.79 1548.04 L1278.79 1543.34 Q1280.87 1544.47 1283.09 1545.03 Q1285.31 1545.58 1287.79 1545.58 Q1291.8 1545.58 1294.13 1543.48 Q1296.47 1541.37 1296.47 1537.76 Q1296.47 1534.15 1294.13 1532.04 Q1291.8 1529.94 1287.79 1529.94 Q1285.92 1529.94 1284.04 1530.35 Q1282.19 1530.77 1280.24 1531.65 L1280.24 1514.29 Z" fill="#000000" fill-rule="nonzero" fill-opacity="1"></path><path clip-path="url(#clip660)" d="M1310.36 1542.97 L1315.24 1542.97 L1315.24 1548.85 L1310.36 1548.85 L1310.36 1542.97 Z" fill="#000000" fill-rule="nonzero" fill-opacity="1"></path><path clip-path="url(#clip660)" d="M1335.43 1517.37 Q1331.82 1517.37 1329.99 1520.93 Q1328.18 1524.47 1328.18 1531.6 Q1328.18 1538.71 1329.99 1542.27 Q1331.82 1545.82 1335.43 1545.82 Q1339.06 1545.82 1340.87 1542.27 Q1342.7 1538.71 1342.7 1531.6 Q1342.7 1524.47 1340.87 1520.93 Q1339.06 1517.37 1335.43 1517.37 M1335.43 1513.66 Q1341.24 1513.66 1344.3 1518.27 Q1347.37 1522.85 1347.37 1531.6 Q1347.37 1540.33 1344.3 1544.94 Q1341.24 1549.52 1335.43 1549.52 Q1329.62 1549.52 1326.54 1544.94 Q1323.49 1540.33 1323.49 1531.6 Q1323.49 1522.85 1326.54 1518.27 Q1329.62 1513.66 1335.43 1513.66 Z" fill="#000000" fill-rule="nonzero" fill-opacity="1"></path><path clip-path="url(#clip660)" d="M1668.69 1514.29 L1690.91 1514.29 L1690.91 1516.28 L1678.37 1548.85 L1673.48 1548.85 L1685.29 1518.22 L1668.69 1518.22 L1668.69 1514.29 Z" fill="#000000" fill-rule="nonzero" fill-opacity="1"></path><path clip-path="url(#clip660)" d="M1700.03 1542.97 L1704.92 1542.97 L1704.92 1548.85 L1700.03 1548.85 L1700.03 1542.97 Z" fill="#000000" fill-rule="nonzero" fill-opacity="1"></path><path clip-path="url(#clip660)" d="M1715.15 1514.29 L1733.51 1514.29 L1733.51 1518.22 L1719.43 1518.22 L1719.43 1526.7 Q1720.45 1526.35 1721.47 1526.19 Q1722.49 1526 1723.51 1526 Q1729.29 1526 1732.67 1529.17 Q1736.05 1532.34 1736.05 1537.76 Q1736.05 1543.34 1732.58 1546.44 Q1729.11 1549.52 1722.79 1549.52 Q1720.61 1549.52 1718.34 1549.15 Q1716.1 1548.78 1713.69 1548.04 L1713.69 1543.34 Q1715.77 1544.47 1718 1545.03 Q1720.22 1545.58 1722.7 1545.58 Q1726.7 1545.58 1729.04 1543.48 Q1731.38 1541.37 1731.38 1537.76 Q1731.38 1534.15 1729.04 1532.04 Q1726.7 1529.94 1722.7 1529.94 Q1720.82 1529.94 1718.95 1530.35 Q1717.09 1530.77 1715.15 1531.65 L1715.15 1514.29 Z" fill="#000000" fill-rule="nonzero" fill-opacity="1"></path><path clip-path="url(#clip660)" d="M2043.73 1544.91 L2051.37 1544.91 L2051.37 1518.55 L2043.06 1520.21 L2043.06 1515.95 L2051.33 1514.29 L2056 1514.29 L2056 1544.91 L2063.64 1544.91 L2063.64 1548.85 L2043.73 1548.85 L2043.73 1544.91 Z" fill="#000000" fill-rule="nonzero" fill-opacity="1"></path><path clip-path="url(#clip660)" d="M2083.09 1517.37 Q2079.47 1517.37 2077.65 1520.93 Q2075.84 1524.47 2075.84 1531.6 Q2075.84 1538.71 2077.65 1542.27 Q2079.47 1545.82 2083.09 1545.82 Q2086.72 1545.82 2088.53 1542.27 Q2090.35 1538.71 2090.35 1531.6 Q2090.35 1524.47 2088.53 1520.93 Q2086.72 1517.37 2083.09 1517.37 M2083.09 1513.66 Q2088.9 1513.66 2091.95 1518.27 Q2095.03 1522.85 2095.03 1531.6 Q2095.03 1540.33 2091.95 1544.94 Q2088.9 1549.52 2083.09 1549.52 Q2077.28 1549.52 2074.2 1544.94 Q2071.14 1540.33 2071.14 1531.6 Q2071.14 1522.85 2074.2 1518.27 Q2077.28 1513.66 2083.09 1513.66 Z" fill="#000000" fill-rule="nonzero" fill-opacity="1"></path><path clip-path="url(#clip660)" d="M2103.25 1542.97 L2108.13 1542.97 L2108.13 1548.85 L2103.25 1548.85 L2103.25 1542.97 Z" fill="#000000" fill-rule="nonzero" fill-opacity="1"></path><path clip-path="url(#clip660)" d="M2128.32 1517.37 Q2124.71 1517.37 2122.88 1520.93 Q2121.07 1524.47 2121.07 1531.6 Q2121.07 1538.71 2122.88 1542.27 Q2124.71 1545.82 2128.32 1545.82 Q2131.95 1545.82 2133.76 1542.27 Q2135.59 1538.71 2135.59 1531.6 Q2135.59 1524.47 2133.76 1520.93 Q2131.95 1517.37 2128.32 1517.37 M2128.32 1513.66 Q2134.13 1513.66 2137.18 1518.27 Q2140.26 1522.85 2140.26 1531.6 Q2140.26 1540.33 2137.18 1544.94 Q2134.13 1549.52 2128.32 1549.52 Q2122.51 1549.52 2119.43 1544.94 Q2116.37 1540.33 2116.37 1531.6 Q2116.37 1522.85 2119.43 1518.27 Q2122.51 1513.66 2128.32 1513.66 Z" fill="#000000" fill-rule="nonzero" fill-opacity="1"></path><polyline clip-path="url(#clip660)" style="stroke:#000000; stroke-linecap:round; stroke-linejoin:round; stroke-width:4; stroke-opacity:1; fill:none" points="186.274,1486.45 186.274,123.472 "></polyline>
<polyline clip-path="url(#clip660)" style="stroke:#000000; stroke-linecap:round; stroke-linejoin:round; stroke-width:4; stroke-opacity:1; fill:none" points="186.274,1447.87 205.172,1447.87 "></polyline>
<polyline clip-path="url(#clip660)" style="stroke:#000000; stroke-linecap:round; stroke-linejoin:round; stroke-width:4; stroke-opacity:1; fill:none" points="186.274,1171.76 205.172,1171.76 "></polyline>
<polyline clip-path="url(#clip660)" style="stroke:#000000; stroke-linecap:round; stroke-linejoin:round; stroke-width:4; stroke-opacity:1; fill:none" points="186.274,895.648 205.172,895.648 "></polyline>
<polyline clip-path="url(#clip660)" style="stroke:#000000; stroke-linecap:round; stroke-linejoin:round; stroke-width:4; stroke-opacity:1; fill:none" points="186.274,619.535 205.172,619.535 "></polyline>
<polyline clip-path="url(#clip660)" style="stroke:#000000; stroke-linecap:round; stroke-linejoin:round; stroke-width:4; stroke-opacity:1; fill:none" points="186.274,343.422 205.172,343.422 "></polyline>
<path clip-path="url(#clip660)" d="M62.9365 1433.67 Q59.3254 1433.67 57.4967 1437.24 Q55.6912 1440.78 55.6912 1447.91 Q55.6912 1455.01 57.4967 1458.58 Q59.3254 1462.12 62.9365 1462.12 Q66.5707 1462.12 68.3763 1458.58 Q70.205 1455.01 70.205 1447.91 Q70.205 1440.78 68.3763 1437.24 Q66.5707 1433.67 62.9365 1433.67 M62.9365 1429.97 Q68.7467 1429.97 71.8022 1434.57 Q74.8809 1439.16 74.8809 1447.91 Q74.8809 1456.63 71.8022 1461.24 Q68.7467 1465.82 62.9365 1465.82 Q57.1264 1465.82 54.0477 1461.24 Q50.9921 1456.63 50.9921 1447.91 Q50.9921 1439.16 54.0477 1434.57 Q57.1264 1429.97 62.9365 1429.97 Z" fill="#000000" fill-rule="nonzero" fill-opacity="1"></path><path clip-path="url(#clip660)" d="M83.0984 1459.27 L87.9827 1459.27 L87.9827 1465.15 L83.0984 1465.15 L83.0984 1459.27 Z" fill="#000000" fill-rule="nonzero" fill-opacity="1"></path><path clip-path="url(#clip660)" d="M108.168 1433.67 Q104.557 1433.67 102.728 1437.24 Q100.922 1440.78 100.922 1447.91 Q100.922 1455.01 102.728 1458.58 Q104.557 1462.12 108.168 1462.12 Q111.802 1462.12 113.608 1458.58 Q115.436 1455.01 115.436 1447.91 Q115.436 1440.78 113.608 1437.24 Q111.802 1433.67 108.168 1433.67 M108.168 1429.97 Q113.978 1429.97 117.033 1434.57 Q120.112 1439.16 120.112 1447.91 Q120.112 1456.63 117.033 1461.24 Q113.978 1465.82 108.168 1465.82 Q102.358 1465.82 99.2789 1461.24 Q96.2234 1456.63 96.2234 1447.91 Q96.2234 1439.16 99.2789 1434.57 Q102.358 1429.97 108.168 1429.97 Z" fill="#000000" fill-rule="nonzero" fill-opacity="1"></path><path clip-path="url(#clip660)" d="M138.33 1433.67 Q134.719 1433.67 132.89 1437.24 Q131.084 1440.78 131.084 1447.91 Q131.084 1455.01 132.89 1458.58 Q134.719 1462.12 138.33 1462.12 Q141.964 1462.12 143.769 1458.58 Q145.598 1455.01 145.598 1447.91 Q145.598 1440.78 143.769 1437.24 Q141.964 1433.67 138.33 1433.67 M138.33 1429.97 Q144.14 1429.97 147.195 1434.57 Q150.274 1439.16 150.274 1447.91 Q150.274 1456.63 147.195 1461.24 Q144.14 1465.82 138.33 1465.82 Q132.519 1465.82 129.441 1461.24 Q126.385 1456.63 126.385 1447.91 Q126.385 1439.16 129.441 1434.57 Q132.519 1429.97 138.33 1429.97 Z" fill="#000000" fill-rule="nonzero" fill-opacity="1"></path><path clip-path="url(#clip660)" d="M63.9319 1157.56 Q60.3208 1157.56 58.4921 1161.12 Q56.6865 1164.67 56.6865 1171.8 Q56.6865 1178.9 58.4921 1182.47 Q60.3208 1186.01 63.9319 1186.01 Q67.5661 1186.01 69.3717 1182.47 Q71.2004 1178.9 71.2004 1171.8 Q71.2004 1164.67 69.3717 1161.12 Q67.5661 1157.56 63.9319 1157.56 M63.9319 1153.86 Q69.742 1153.86 72.7976 1158.46 Q75.8763 1163.05 75.8763 1171.8 Q75.8763 1180.52 72.7976 1185.13 Q69.742 1189.71 63.9319 1189.71 Q58.1217 1189.71 55.043 1185.13 Q51.9875 1180.52 51.9875 1171.8 Q51.9875 1163.05 55.043 1158.46 Q58.1217 1153.86 63.9319 1153.86 Z" fill="#000000" fill-rule="nonzero" fill-opacity="1"></path><path clip-path="url(#clip660)" d="M84.0938 1183.16 L88.978 1183.16 L88.978 1189.04 L84.0938 1189.04 L84.0938 1183.16 Z" fill="#000000" fill-rule="nonzero" fill-opacity="1"></path><path clip-path="url(#clip660)" d="M103.191 1185.11 L119.51 1185.11 L119.51 1189.04 L97.566 1189.04 L97.566 1185.11 Q100.228 1182.35 104.811 1177.72 Q109.418 1173.07 110.598 1171.73 Q112.844 1169.2 113.723 1167.47 Q114.626 1165.71 114.626 1164.02 Q114.626 1161.26 112.682 1159.53 Q110.76 1157.79 107.658 1157.79 Q105.459 1157.79 103.006 1158.55 Q100.575 1159.32 97.7974 1160.87 L97.7974 1156.15 Q100.621 1155.01 103.075 1154.43 Q105.529 1153.86 107.566 1153.86 Q112.936 1153.86 116.131 1156.54 Q119.325 1159.23 119.325 1163.72 Q119.325 1165.85 118.515 1167.77 Q117.728 1169.67 115.621 1172.26 Q115.043 1172.93 111.941 1176.15 Q108.839 1179.34 103.191 1185.11 Z" fill="#000000" fill-rule="nonzero" fill-opacity="1"></path><path clip-path="url(#clip660)" d="M129.371 1154.48 L147.728 1154.48 L147.728 1158.42 L133.654 1158.42 L133.654 1166.89 Q134.672 1166.54 135.691 1166.38 Q136.709 1166.19 137.728 1166.19 Q143.515 1166.19 146.894 1169.36 Q150.274 1172.54 150.274 1177.95 Q150.274 1183.53 146.802 1186.63 Q143.33 1189.71 137.01 1189.71 Q134.834 1189.71 132.566 1189.34 Q130.32 1188.97 127.913 1188.23 L127.913 1183.53 Q129.996 1184.67 132.219 1185.22 Q134.441 1185.78 136.918 1185.78 Q140.922 1185.78 143.26 1183.67 Q145.598 1181.56 145.598 1177.95 Q145.598 1174.34 143.26 1172.23 Q140.922 1170.13 136.918 1170.13 Q135.043 1170.13 133.168 1170.55 Q131.316 1170.96 129.371 1171.84 L129.371 1154.48 Z" fill="#000000" fill-rule="nonzero" fill-opacity="1"></path><path clip-path="url(#clip660)" d="M62.9365 881.446 Q59.3254 881.446 57.4967 885.011 Q55.6912 888.553 55.6912 895.682 Q55.6912 902.789 57.4967 906.354 Q59.3254 909.895 62.9365 909.895 Q66.5707 909.895 68.3763 906.354 Q70.205 902.789 70.205 895.682 Q70.205 888.553 68.3763 885.011 Q66.5707 881.446 62.9365 881.446 M62.9365 877.743 Q68.7467 877.743 71.8022 882.349 Q74.8809 886.932 74.8809 895.682 Q74.8809 904.409 71.8022 909.016 Q68.7467 913.599 62.9365 913.599 Q57.1264 913.599 54.0477 909.016 Q50.9921 904.409 50.9921 895.682 Q50.9921 886.932 54.0477 882.349 Q57.1264 877.743 62.9365 877.743 Z" fill="#000000" fill-rule="nonzero" fill-opacity="1"></path><path clip-path="url(#clip660)" d="M83.0984 907.048 L87.9827 907.048 L87.9827 912.928 L83.0984 912.928 L83.0984 907.048 Z" fill="#000000" fill-rule="nonzero" fill-opacity="1"></path><path clip-path="url(#clip660)" d="M98.2141 878.368 L116.57 878.368 L116.57 882.303 L102.496 882.303 L102.496 890.775 Q103.515 890.428 104.534 890.266 Q105.552 890.081 106.571 890.081 Q112.358 890.081 115.737 893.252 Q119.117 896.423 119.117 901.84 Q119.117 907.418 115.645 910.52 Q112.172 913.599 105.853 913.599 Q103.677 913.599 101.409 913.229 Q99.1632 912.858 96.7558 912.117 L96.7558 907.418 Q98.8391 908.553 101.061 909.108 Q103.284 909.664 105.76 909.664 Q109.765 909.664 112.103 907.557 Q114.441 905.451 114.441 901.84 Q114.441 898.229 112.103 896.122 Q109.765 894.016 105.76 894.016 Q103.885 894.016 102.01 894.432 Q100.159 894.849 98.2141 895.729 L98.2141 878.368 Z" fill="#000000" fill-rule="nonzero" fill-opacity="1"></path><path clip-path="url(#clip660)" d="M138.33 881.446 Q134.719 881.446 132.89 885.011 Q131.084 888.553 131.084 895.682 Q131.084 902.789 132.89 906.354 Q134.719 909.895 138.33 909.895 Q141.964 909.895 143.769 906.354 Q145.598 902.789 145.598 895.682 Q145.598 888.553 143.769 885.011 Q141.964 881.446 138.33 881.446 M138.33 877.743 Q144.14 877.743 147.195 882.349 Q150.274 886.932 150.274 895.682 Q150.274 904.409 147.195 909.016 Q144.14 913.599 138.33 913.599 Q132.519 913.599 129.441 909.016 Q126.385 904.409 126.385 895.682 Q126.385 886.932 129.441 882.349 Q132.519 877.743 138.33 877.743 Z" fill="#000000" fill-rule="nonzero" fill-opacity="1"></path><path clip-path="url(#clip660)" d="M63.9319 605.334 Q60.3208 605.334 58.4921 608.898 Q56.6865 612.44 56.6865 619.57 Q56.6865 626.676 58.4921 630.241 Q60.3208 633.783 63.9319 633.783 Q67.5661 633.783 69.3717 630.241 Q71.2004 626.676 71.2004 619.57 Q71.2004 612.44 69.3717 608.898 Q67.5661 605.334 63.9319 605.334 M63.9319 601.63 Q69.742 601.63 72.7976 606.236 Q75.8763 610.82 75.8763 619.57 Q75.8763 628.296 72.7976 632.903 Q69.742 637.486 63.9319 637.486 Q58.1217 637.486 55.043 632.903 Q51.9875 628.296 51.9875 619.57 Q51.9875 610.82 55.043 606.236 Q58.1217 601.63 63.9319 601.63 Z" fill="#000000" fill-rule="nonzero" fill-opacity="1"></path><path clip-path="url(#clip660)" d="M84.0938 630.935 L88.978 630.935 L88.978 636.815 L84.0938 636.815 L84.0938 630.935 Z" fill="#000000" fill-rule="nonzero" fill-opacity="1"></path><path clip-path="url(#clip660)" d="M97.9826 602.255 L120.205 602.255 L120.205 604.246 L107.658 636.815 L102.774 636.815 L114.58 606.19 L97.9826 606.19 L97.9826 602.255 Z" fill="#000000" fill-rule="nonzero" fill-opacity="1"></path><path clip-path="url(#clip660)" d="M129.371 602.255 L147.728 602.255 L147.728 606.19 L133.654 606.19 L133.654 614.662 Q134.672 614.315 135.691 614.153 Q136.709 613.968 137.728 613.968 Q143.515 613.968 146.894 617.139 Q150.274 620.31 150.274 625.727 Q150.274 631.306 146.802 634.408 Q143.33 637.486 137.01 637.486 Q134.834 637.486 132.566 637.116 Q130.32 636.745 127.913 636.005 L127.913 631.306 Q129.996 632.44 132.219 632.995 Q134.441 633.551 136.918 633.551 Q140.922 633.551 143.26 631.445 Q145.598 629.338 145.598 625.727 Q145.598 622.116 143.26 620.009 Q140.922 617.903 136.918 617.903 Q135.043 617.903 133.168 618.32 Q131.316 618.736 129.371 619.616 L129.371 602.255 Z" fill="#000000" fill-rule="nonzero" fill-opacity="1"></path><path clip-path="url(#clip660)" d="M53.7467 356.767 L61.3856 356.767 L61.3856 330.401 L53.0754 332.068 L53.0754 327.809 L61.3393 326.142 L66.0152 326.142 L66.0152 356.767 L73.654 356.767 L73.654 360.702 L53.7467 360.702 L53.7467 356.767 Z" fill="#000000" fill-rule="nonzero" fill-opacity="1"></path><path clip-path="url(#clip660)" d="M83.0984 354.823 L87.9827 354.823 L87.9827 360.702 L83.0984 360.702 L83.0984 354.823 Z" fill="#000000" fill-rule="nonzero" fill-opacity="1"></path><path clip-path="url(#clip660)" d="M108.168 329.221 Q104.557 329.221 102.728 332.786 Q100.922 336.327 100.922 343.457 Q100.922 350.563 102.728 354.128 Q104.557 357.67 108.168 357.67 Q111.802 357.67 113.608 354.128 Q115.436 350.563 115.436 343.457 Q115.436 336.327 113.608 332.786 Q111.802 329.221 108.168 329.221 M108.168 325.517 Q113.978 325.517 117.033 330.124 Q120.112 334.707 120.112 343.457 Q120.112 352.184 117.033 356.79 Q113.978 361.373 108.168 361.373 Q102.358 361.373 99.2789 356.79 Q96.2234 352.184 96.2234 343.457 Q96.2234 334.707 99.2789 330.124 Q102.358 325.517 108.168 325.517 Z" fill="#000000" fill-rule="nonzero" fill-opacity="1"></path><path clip-path="url(#clip660)" d="M138.33 329.221 Q134.719 329.221 132.89 332.786 Q131.084 336.327 131.084 343.457 Q131.084 350.563 132.89 354.128 Q134.719 357.67 138.33 357.67 Q141.964 357.67 143.769 354.128 Q145.598 350.563 145.598 343.457 Q145.598 336.327 143.769 332.786 Q141.964 329.221 138.33 329.221 M138.33 325.517 Q144.14 325.517 147.195 330.124 Q150.274 334.707 150.274 343.457 Q150.274 352.184 147.195 356.79 Q144.14 361.373 138.33 361.373 Q132.519 361.373 129.441 356.79 Q126.385 352.184 126.385 343.457 Q126.385 334.707 129.441 330.124 Q132.519 325.517 138.33 325.517 Z" fill="#000000" fill-rule="nonzero" fill-opacity="1"></path><path clip-path="url(#clip660)" d="M1033.69 18.8205 L1033.69 65.8515 L1043.58 65.8515 Q1056.09 65.8515 1061.89 60.1802 Q1067.72 54.509 1067.72 42.2752 Q1067.72 30.1225 1061.89 24.4918 Q1056.09 18.8205 1043.58 18.8205 L1033.69 18.8205 M1025.51 12.096 L1042.32 12.096 Q1059.9 12.096 1068.12 19.4281 Q1076.35 26.7198 1076.35 42.2752 Q1076.35 57.9117 1068.08 65.2439 Q1059.82 72.576 1042.32 72.576 L1025.51 72.576 L1025.51 12.096 Z" fill="#000000" fill-rule="nonzero" fill-opacity="1"></path><path clip-path="url(#clip660)" d="M1127.88 48.0275 L1127.88 51.6733 L1093.6 51.6733 Q1094.09 59.3701 1098.22 63.421 Q1102.39 67.4314 1109.81 67.4314 Q1114.1 67.4314 1118.11 66.3781 Q1122.16 65.3249 1126.13 63.2184 L1126.13 70.267 Q1122.12 71.9684 1117.91 72.8596 Q1113.7 73.7508 1109.36 73.7508 Q1098.51 73.7508 1092.15 67.4314 Q1085.83 61.1119 1085.83 50.3365 Q1085.83 39.1965 1091.82 32.6746 Q1097.86 26.1121 1108.07 26.1121 Q1117.22 26.1121 1122.53 32.0264 Q1127.88 37.9003 1127.88 48.0275 M1120.42 45.84 Q1120.34 39.7232 1116.98 36.0774 Q1113.66 32.4315 1108.15 32.4315 Q1101.91 32.4315 1098.14 35.9558 Q1094.41 39.4801 1093.85 45.8805 L1120.42 45.84 Z" fill="#000000" fill-rule="nonzero" fill-opacity="1"></path><path clip-path="url(#clip660)" d="M1177.82 45.1919 L1177.82 72.576 L1170.37 72.576 L1170.37 45.4349 Q1170.37 38.994 1167.86 35.7938 Q1165.35 32.5936 1160.32 32.5936 Q1154.29 32.5936 1150.8 36.4419 Q1147.32 40.2903 1147.32 46.9338 L1147.32 72.576 L1139.83 72.576 L1139.83 27.2059 L1147.32 27.2059 L1147.32 34.2544 Q1149.99 30.163 1153.6 28.1376 Q1157.24 26.1121 1161.98 26.1121 Q1169.8 26.1121 1173.81 30.9732 Q1177.82 35.7938 1177.82 45.1919 Z" fill="#000000" fill-rule="nonzero" fill-opacity="1"></path><path clip-path="url(#clip660)" d="M1221.61 28.5427 L1221.61 35.5912 Q1218.45 33.9709 1215.05 33.1607 Q1211.65 32.3505 1208 32.3505 Q1202.45 32.3505 1199.66 34.0519 Q1196.9 35.7533 1196.9 39.156 Q1196.9 41.7486 1198.89 43.2475 Q1200.87 44.7058 1206.87 46.0426 L1209.42 46.6097 Q1217.36 48.3111 1220.68 51.4303 Q1224.04 54.509 1224.04 60.0587 Q1224.04 66.3781 1219.02 70.0644 Q1214.04 73.7508 1205.29 73.7508 Q1201.64 73.7508 1197.67 73.0216 Q1193.74 72.3329 1189.37 70.9151 L1189.37 63.2184 Q1193.5 65.3654 1197.51 66.4591 Q1201.52 67.5124 1205.45 67.5124 Q1210.72 67.5124 1213.55 65.73 Q1216.39 63.9071 1216.39 60.6258 Q1216.39 57.5877 1214.32 55.9673 Q1212.3 54.3469 1205.37 52.8481 L1202.78 52.2405 Q1195.85 50.7821 1192.77 47.7845 Q1189.69 44.7463 1189.69 39.4801 Q1189.69 33.0797 1194.23 29.5959 Q1198.77 26.1121 1207.11 26.1121 Q1211.24 26.1121 1214.89 26.7198 Q1218.53 27.3274 1221.61 28.5427 Z" fill="#000000" fill-rule="nonzero" fill-opacity="1"></path><path clip-path="url(#clip660)" d="M1235.91 27.2059 L1243.37 27.2059 L1243.37 72.576 L1235.91 72.576 L1235.91 27.2059 M1235.91 9.54393 L1243.37 9.54393 L1243.37 18.9825 L1235.91 18.9825 L1235.91 9.54393 Z" fill="#000000" fill-rule="nonzero" fill-opacity="1"></path><path clip-path="url(#clip660)" d="M1266.33 14.324 L1266.33 27.2059 L1281.69 27.2059 L1281.69 32.9987 L1266.33 32.9987 L1266.33 57.6282 Q1266.33 63.1779 1267.83 64.7578 Q1269.37 66.3376 1274.03 66.3376 L1281.69 66.3376 L1281.69 72.576 L1274.03 72.576 Q1265.4 72.576 1262.12 69.3758 Q1258.84 66.1351 1258.84 57.6282 L1258.84 32.9987 L1253.37 32.9987 L1253.37 27.2059 L1258.84 27.2059 L1258.84 14.324 L1266.33 14.324 Z" fill="#000000" fill-rule="nonzero" fill-opacity="1"></path><path clip-path="url(#clip660)" d="M1310.37 76.7889 Q1307.21 84.8907 1304.21 87.3618 Q1301.21 89.8329 1296.19 89.8329 L1290.24 89.8329 L1290.24 83.5945 L1294.61 83.5945 Q1297.69 83.5945 1299.39 82.1361 Q1301.09 80.6778 1303.16 75.2496 L1304.49 71.8468 L1286.14 27.2059 L1294.04 27.2059 L1308.22 62.6918 L1322.4 27.2059 L1330.3 27.2059 L1310.37 76.7889 Z" fill="#000000" fill-rule="nonzero" fill-opacity="1"></path><path clip-path="url(#clip660)" d="M1375.47 18.8205 L1375.47 41.5461 L1385.76 41.5461 Q1391.47 41.5461 1394.59 38.5889 Q1397.71 35.6318 1397.71 30.163 Q1397.71 24.7348 1394.59 21.7777 Q1391.47 18.8205 1385.76 18.8205 L1375.47 18.8205 M1367.28 12.096 L1385.76 12.096 Q1395.92 12.096 1401.11 16.714 Q1406.33 21.2916 1406.33 30.163 Q1406.33 39.1155 1401.11 43.6931 Q1395.92 48.2706 1385.76 48.2706 L1375.47 48.2706 L1375.47 72.576 L1367.28 72.576 L1367.28 12.096 Z" fill="#000000" fill-rule="nonzero" fill-opacity="1"></path><path clip-path="url(#clip660)" d="M1416.99 9.54393 L1424.44 9.54393 L1424.44 72.576 L1416.99 72.576 L1416.99 9.54393 Z" fill="#000000" fill-rule="nonzero" fill-opacity="1"></path><path clip-path="url(#clip660)" d="M1457.62 32.4315 Q1451.62 32.4315 1448.14 37.1306 Q1444.66 41.7891 1444.66 49.9314 Q1444.66 58.0738 1448.1 62.7728 Q1451.58 67.4314 1457.62 67.4314 Q1463.57 67.4314 1467.06 62.7323 Q1470.54 58.0333 1470.54 49.9314 Q1470.54 41.8701 1467.06 37.1711 Q1463.57 32.4315 1457.62 32.4315 M1457.62 26.1121 Q1467.34 26.1121 1472.89 32.4315 Q1478.44 38.7509 1478.44 49.9314 Q1478.44 61.0714 1472.89 67.4314 Q1467.34 73.7508 1457.62 73.7508 Q1447.86 73.7508 1442.31 67.4314 Q1436.8 61.0714 1436.8 49.9314 Q1436.8 38.7509 1442.31 32.4315 Q1447.86 26.1121 1457.62 26.1121 Z" fill="#000000" fill-rule="nonzero" fill-opacity="1"></path><path clip-path="url(#clip660)" d="M1498.17 14.324 L1498.17 27.2059 L1513.52 27.2059 L1513.52 32.9987 L1498.17 32.9987 L1498.17 57.6282 Q1498.17 63.1779 1499.67 64.7578 Q1501.21 66.3376 1505.86 66.3376 L1513.52 66.3376 L1513.52 72.576 L1505.86 72.576 Q1497.24 72.576 1493.96 69.3758 Q1490.67 66.1351 1490.67 57.6282 L1490.67 32.9987 L1485.21 32.9987 L1485.21 27.2059 L1490.67 27.2059 L1490.67 14.324 L1498.17 14.324 Z" fill="#000000" fill-rule="nonzero" fill-opacity="1"></path><polyline clip-path="url(#clip662)" style="stroke:#009af9; stroke-linecap:round; stroke-linejoin:round; stroke-width:4; stroke-opacity:1; fill:none" points="387.612,1447.87 397.179,1447.85 406.746,1447.46 416.313,1444.82 425.88,1432.35 435.447,1388.4 445.014,1275.39 454.581,1069.93 464.148,794.753 473.715,516.358 483.282,315.58 492.849,228.659 502.416,233.169 511.983,284.349 521.55,343.754 531.117,407.071 540.684,491.144 550.251,589.468 559.818,680.769 569.384,749.221 578.951,802.959 588.518,862.879 598.085,931.802 607.652,998.423 617.219,1054.44 626.786,1096.45 636.353,1129.54 645.92,1165.68 655.487,1206.11 665.054,1241.59 674.621,1267.42 684.188,1285.92 693.755,1300.44 703.322,1316.33 712.889,1336.81 722.456,1355.92 732.023,1368.04 741.59,1377.15 751.157,1384.9 760.724,1391.36 770.291,1397.79 779.858,1404.08 789.425,1408.14 798.992,1410.9 808.559,1415.76 818.126,1419.53 827.693,1419.19 837.26,1419.07 846.827,1423.99 856.394,1429.88 865.961,1430.63 875.528,1429.61 885.095,1431.13 894.662,1433.83 904.229,1436.7 913.796,1439.22 923.363,1440.75 932.93,1440.82 942.497,1439.62 952.064,1438.43 961.631,1438.55 971.198,1440.24 980.765,1442.62 990.331,1444.05 999.898,1444.23 1009.47,1444.26 1019.03,1444.4 1028.6,1445.02 1038.17,1446.19 1047.73,1446.49 1057.3,1445.46 1066.87,1444.67 1076.43,1445.02 1086,1445.93 1095.57,1447.01 1105.14,1447.68 1114.7,1447.84 1124.27,1447.69 1133.84,1447.08 1143.4,1446.32 1152.97,1446.2 1162.54,1446.48 1172.1,1446.87 1181.67,1447.42 1191.24,1447.77 1200.8,1447.86 1210.37,1447.87 1219.94,1447.86 1229.51,1447.77 1239.07,1447.45 1248.64,1447.05 1258.21,1446.75 1267.77,1446.52 1277.34,1446.82 1286.91,1447.45 1296.47,1447.78 1306.04,1447.81 1315.61,1447.62 1325.18,1447.25 1334.74,1446.96 1344.31,1446.97 1353.88,1447.29 1363.44,1447.66 1373.01,1447.83 1382.58,1447.87 1392.14,1447.87 1401.71,1447.87 1411.28,1447.87 1420.85,1447.87 1430.41,1447.87 1439.98,1447.87 1449.55,1447.87 1459.11,1447.87 1468.68,1447.86 1478.25,1447.79 1487.81,1447.51 1497.38,1447.24 1506.95,1447.38 1516.52,1447.69 1526.08,1447.84 1535.65,1447.87 1545.22,1447.87 1554.78,1447.87 1564.35,1447.87 1573.92,1447.87 1583.48,1447.87 1593.05,1447.82 1602.62,1447.64 1612.19,1447.34 1621.75,1447.28 1631.32,1447.56 1640.89,1447.8 1650.45,1447.87 1660.02,1447.87 1669.59,1447.87 1679.15,1447.87 1688.72,1447.87 1698.29,1447.87 1707.85,1447.87 1717.42,1447.87 1726.99,1447.87 1736.56,1447.87 1746.12,1447.87 1755.69,1447.87 1765.26,1447.87 1774.82,1447.87 1784.39,1447.87 1793.96,1447.87 1803.52,1447.87 1813.09,1447.87 1822.66,1447.87 1832.23,1447.87 1841.79,1447.87 1851.36,1447.87 1860.93,1447.87 1870.49,1447.87 1880.06,1447.87 1889.63,1447.87 1899.19,1447.87 1908.76,1447.87 1918.33,1447.87 1927.9,1447.87 1937.46,1447.87 1947.03,1447.87 1956.6,1447.87 1966.16,1447.87 1975.73,1447.87 1985.3,1447.87 1994.86,1447.87 2004.43,1447.87 2014,1447.87 2023.57,1447.87 2033.13,1447.87 2042.7,1447.87 2052.27,1447.87 2061.83,1447.87 2071.4,1447.87 2080.97,1447.87 2090.53,1447.87 2100.1,1447.87 2109.67,1447.87 2119.23,1447.87 2128.8,1447.87 2138.37,1447.87 2147.94,1447.87 2157.5,1447.87 2167.07,1447.87 2176.64,1447.87 2186.2,1447.87 2195.77,1447.87 2205.34,1447.87 2214.9,1447.87 2224.47,1447.85 2234.04,1447.71 2243.61,1447.4 2253.17,1447.23 2262.74,1447.49 2272.31,1447.78 2281.87,1447.86 2291.44,1447.87 "></polyline>
<polyline clip-path="url(#clip662)" style="stroke:#e26f46; stroke-linecap:round; stroke-linejoin:round; stroke-width:4; stroke-opacity:1; fill:none" points="247.59,1447.87 252.088,1447.87 256.586,1447.85 261.084,1447.79 265.582,1447.64 270.081,1447.37 274.579,1447.1 279.077,1447 283.575,1447.17 288.074,1447.47 292.572,1447.7 297.07,1447.79 301.568,1447.73 306.066,1447.51 310.565,1447.16 315.063,1446.75 319.561,1446.39 324.059,1446.04 328.558,1445.57 333.056,1444.87 337.554,1443.92 342.052,1442.8 346.551,1441.51 351.049,1440.02 355.547,1438.39 360.045,1436.74 364.543,1435.2 369.042,1433.62 373.54,1431.49 378.038,1428.26 382.536,1423.84 387.035,1418.53 391.533,1412.71 396.031,1406.49 400.529,1399.96 405.027,1393.29 409.526,1386.24 414.024,1377.77 418.522,1366.35 423.02,1351.12 427.519,1333.34 432.017,1316.51 436.515,1303.52 441.013,1292.81 445.511,1278.69 450.01,1257.23 454.508,1230.14 459.006,1202.05 463.504,1175.24 468.003,1146.51 472.501,1107.99 476.999,1052.83 481.497,981.718 485.996,902.803 490.494,825.181 494.992,753.764 499.49,688.878 503.988,628.516 508.487,571.093 512.985,515.739 517.483,459.93 521.981,400.45 526.48,339.487 530.978,286.28 535.476,248.653 539.974,224.719 544.472,205.657 548.971,185.965 553.469,168.961 557.967,162.047 562.465,169.183 566.964,189.95 571.462,223.437 575.96,269.419 580.458,326.555 584.957,391.91 589.455,462.443 593.953,536.299 598.451,611.197 602.949,682.601 607.448,746.903 611.946,805.109 616.444,860.863 620.942,916.433 625.441,971.116 629.939,1022.52 634.437,1069.81 638.935,1114.5 643.433,1156.76 647.932,1193.94 652.43,1224.52 656.928,1250.25 661.426,1273.61 665.925,1295.3 670.423,1313.86 674.921,1327.43 679.419,1337.2 683.918,1347.55 688.416,1360.98 692.914,1375.13 697.412,1386.08 701.91,1392.44 706.409,1395.12 710.907,1395.65 715.405,1396.08 719.903,1398.51 724.402,1403.31 728.9,1408.56 733.398,1412.13 737.896,1413.67 742.394,1414.67 746.893,1416.94 751.391,1421.05 755.889,1425.86 760.387,1429.51 764.886,1431.16 769.384,1431.85 773.882,1433.28 778.38,1436.06 782.878,1439.35 787.377,1441.71 791.875,1442.3 796.373,1441.47 800.871,1440.39 805.37,1440.04 809.868,1440.66 814.366,1441.97 818.864,1443.59 823.363,1445.17 827.861,1446.35 832.359,1446.86 836.857,1446.65 841.355,1445.99 845.854,1445.44 850.352,1445.48 854.85,1446.09 859.348,1446.77 863.847,1447.04 868.345,1446.83 872.843,1446.44 877.341,1446.25 881.839,1446.47 886.338,1446.95 890.836,1447.4 895.334,1447.63 899.832,1447.59 904.331,1447.36 908.829,1447.09 913.327,1446.99 917.825,1447.12 922.324,1447.3 926.822,1447.29 931.32,1447.09 935.818,1446.87 940.316,1446.77 944.815,1446.77 949.313,1446.81 953.811,1446.97 958.309,1447.25 962.808,1447.55 967.306,1447.75 971.804,1447.84 976.302,1447.87 980.8,1447.87 985.299,1447.84 989.797,1447.76 994.295,1447.58 998.793,1447.31 1003.29,1447.07 1007.79,1447.03 1012.29,1447.24 1016.79,1447.52 1021.28,1447.73 1025.78,1447.83 1030.28,1447.86 1034.78,1447.87 1039.28,1447.87 1043.78,1447.87 1048.27,1447.87 1052.77,1447.87 1057.27,1447.87 1061.77,1447.87 1066.27,1447.87 1070.76,1447.87 1075.26,1447.87 1079.76,1447.87 1084.26,1447.87 1088.76,1447.86 1093.26,1447.82 1097.75,1447.71 1102.25,1447.47 1106.75,1447.17 1111.25,1447 1115.75,1447.1 1120.25,1447.37 1124.74,1447.64 1129.24,1447.79 1133.74,1447.85 1138.24,1447.87 1142.74,1447.87 "></polyline>
<path clip-path="url(#clip660)" d="M1194.66 324.425 L2280.54 324.425 L2280.54 168.905 L1194.66 168.905  Z" fill="#ffffff" fill-rule="evenodd" fill-opacity="1"></path>
<polyline clip-path="url(#clip660)" style="stroke:#000000; stroke-linecap:round; stroke-linejoin:round; stroke-width:4; stroke-opacity:1; fill:none" points="1194.66,324.425 2280.54,324.425 2280.54,168.905 1194.66,168.905 1194.66,324.425 "></polyline>
<polyline clip-path="url(#clip660)" style="stroke:#009af9; stroke-linecap:round; stroke-linejoin:round; stroke-width:4; stroke-opacity:1; fill:none" points="1218.73,220.745 1363.16,220.745 "></polyline>
<path clip-path="url(#clip660)" d="M1387.24 203.465 L1409.09 203.465 L1409.09 207.4 L1391.91 207.4 L1391.91 217.631 L1408.37 217.631 L1408.37 221.566 L1391.91 221.566 L1391.91 234.089 L1409.5 234.089 L1409.5 238.025 L1387.24 238.025 L1387.24 203.465 Z" fill="#000000" fill-rule="nonzero" fill-opacity="1"></path><path clip-path="url(#clip660)" d="M1437.91 204.599 L1437.91 209.159 Q1435.25 207.886 1432.88 207.261 Q1430.52 206.636 1428.32 206.636 Q1424.5 206.636 1422.42 208.117 Q1420.36 209.599 1420.36 212.33 Q1420.36 214.622 1421.73 215.803 Q1423.12 216.96 1426.96 217.678 L1429.78 218.256 Q1435.01 219.252 1437.49 221.775 Q1439.99 224.275 1439.99 228.488 Q1439.99 233.511 1436.61 236.103 Q1433.25 238.696 1426.75 238.696 Q1424.3 238.696 1421.52 238.14 Q1418.76 237.585 1415.8 236.497 L1415.8 231.682 Q1418.65 233.279 1421.38 234.089 Q1424.11 234.9 1426.75 234.9 Q1430.75 234.9 1432.93 233.326 Q1435.11 231.752 1435.11 228.835 Q1435.11 226.289 1433.53 224.853 Q1431.98 223.418 1428.42 222.701 L1425.57 222.145 Q1420.34 221.103 1418 218.881 Q1415.66 216.659 1415.66 212.701 Q1415.66 208.117 1418.88 205.479 Q1422.12 202.84 1427.79 202.84 Q1430.22 202.84 1432.75 203.279 Q1435.27 203.719 1437.91 204.599 Z" fill="#000000" fill-rule="nonzero" fill-opacity="1"></path><path clip-path="url(#clip660)" d="M1467.03 221.52 L1467.03 234.182 L1474.53 234.182 Q1478.3 234.182 1480.11 232.631 Q1481.93 231.057 1481.93 227.84 Q1481.93 224.599 1480.11 223.071 Q1478.3 221.52 1474.53 221.52 L1467.03 221.52 M1467.03 207.307 L1467.03 217.724 L1473.95 217.724 Q1477.37 217.724 1479.04 216.451 Q1480.73 215.154 1480.73 212.516 Q1480.73 209.9 1479.04 208.604 Q1477.37 207.307 1473.95 207.307 L1467.03 207.307 M1462.35 203.465 L1474.3 203.465 Q1479.64 203.465 1482.54 205.687 Q1485.43 207.909 1485.43 212.006 Q1485.43 215.178 1483.95 217.053 Q1482.47 218.928 1479.6 219.39 Q1483.05 220.131 1484.94 222.492 Q1486.87 224.83 1486.87 228.349 Q1486.87 232.978 1483.72 235.502 Q1480.57 238.025 1474.76 238.025 L1462.35 238.025 L1462.35 203.465 Z" fill="#000000" fill-rule="nonzero" fill-opacity="1"></path><path clip-path="url(#clip660)" d="M1506.47 224.992 Q1501.31 224.992 1499.32 226.173 Q1497.33 227.353 1497.33 230.201 Q1497.33 232.469 1498.81 233.812 Q1500.31 235.131 1502.88 235.131 Q1506.43 235.131 1508.56 232.631 Q1510.71 230.108 1510.71 225.941 L1510.71 224.992 L1506.47 224.992 M1514.97 223.233 L1514.97 238.025 L1510.71 238.025 L1510.71 234.089 Q1509.25 236.451 1507.07 237.585 Q1504.9 238.696 1501.75 238.696 Q1497.77 238.696 1495.41 236.474 Q1493.07 234.228 1493.07 230.478 Q1493.07 226.103 1495.99 223.881 Q1498.93 221.659 1504.74 221.659 L1510.71 221.659 L1510.71 221.242 Q1510.71 218.303 1508.76 216.705 Q1506.84 215.085 1503.35 215.085 Q1501.12 215.085 1499.02 215.617 Q1496.91 216.15 1494.97 217.215 L1494.97 213.279 Q1497.31 212.377 1499.5 211.937 Q1501.7 211.474 1503.79 211.474 Q1509.41 211.474 1512.19 214.391 Q1514.97 217.307 1514.97 223.233 Z" fill="#000000" fill-rule="nonzero" fill-opacity="1"></path><path clip-path="url(#clip660)" d="M1540.27 212.863 L1540.27 216.891 Q1538.46 215.965 1536.52 215.502 Q1534.57 215.039 1532.49 215.039 Q1529.32 215.039 1527.72 216.011 Q1526.15 216.983 1526.15 218.928 Q1526.15 220.409 1527.28 221.265 Q1528.42 222.099 1531.84 222.863 L1533.3 223.187 Q1537.84 224.159 1539.74 225.941 Q1541.66 227.701 1541.66 230.872 Q1541.66 234.483 1538.79 236.589 Q1535.94 238.696 1530.94 238.696 Q1528.86 238.696 1526.59 238.279 Q1524.34 237.886 1521.84 237.076 L1521.84 232.677 Q1524.2 233.904 1526.49 234.529 Q1528.79 235.131 1531.03 235.131 Q1534.04 235.131 1535.66 234.113 Q1537.28 233.071 1537.28 231.196 Q1537.28 229.46 1536.1 228.534 Q1534.94 227.608 1530.99 226.752 L1529.5 226.404 Q1525.55 225.571 1523.79 223.858 Q1522.03 222.122 1522.03 219.113 Q1522.03 215.455 1524.62 213.465 Q1527.21 211.474 1531.98 211.474 Q1534.34 211.474 1536.43 211.821 Q1538.51 212.168 1540.27 212.863 Z" fill="#000000" fill-rule="nonzero" fill-opacity="1"></path><path clip-path="url(#clip660)" d="M1570.62 223.997 L1570.62 226.08 L1551.03 226.08 Q1551.31 230.478 1553.67 232.793 Q1556.05 235.085 1560.29 235.085 Q1562.74 235.085 1565.04 234.483 Q1567.35 233.881 1569.62 232.677 L1569.62 236.705 Q1567.33 237.677 1564.92 238.187 Q1562.51 238.696 1560.04 238.696 Q1553.83 238.696 1550.2 235.085 Q1546.59 231.474 1546.59 225.316 Q1546.59 218.951 1550.01 215.224 Q1553.46 211.474 1559.3 211.474 Q1564.53 211.474 1567.56 214.853 Q1570.62 218.21 1570.62 223.997 M1566.36 222.747 Q1566.31 219.252 1564.39 217.168 Q1562.49 215.085 1559.34 215.085 Q1555.78 215.085 1553.62 217.099 Q1551.49 219.113 1551.17 222.77 L1566.36 222.747 Z" fill="#000000" fill-rule="nonzero" fill-opacity="1"></path><path clip-path="url(#clip660)" d="M1594.67 216.034 L1594.67 202.006 L1598.93 202.006 L1598.93 238.025 L1594.67 238.025 L1594.67 234.136 Q1593.32 236.451 1591.26 237.585 Q1589.23 238.696 1586.36 238.696 Q1581.66 238.696 1578.69 234.946 Q1575.75 231.196 1575.75 225.085 Q1575.75 218.974 1578.69 215.224 Q1581.66 211.474 1586.36 211.474 Q1589.23 211.474 1591.26 212.608 Q1593.32 213.719 1594.67 216.034 M1580.15 225.085 Q1580.15 229.784 1582.07 232.469 Q1584.02 235.131 1587.4 235.131 Q1590.78 235.131 1592.72 232.469 Q1594.67 229.784 1594.67 225.085 Q1594.67 220.386 1592.72 217.724 Q1590.78 215.039 1587.4 215.039 Q1584.02 215.039 1582.07 217.724 Q1580.15 220.386 1580.15 225.085 Z" fill="#000000" fill-rule="nonzero" fill-opacity="1"></path><path clip-path="url(#clip660)" d="M1639.34 221.821 Q1640.85 222.33 1642.26 223.997 Q1643.69 225.664 1645.13 228.58 L1649.87 238.025 L1644.85 238.025 L1640.43 229.159 Q1638.72 225.687 1637.1 224.553 Q1635.5 223.418 1632.72 223.418 L1627.63 223.418 L1627.63 238.025 L1622.95 238.025 L1622.95 203.465 L1633.51 203.465 Q1639.43 203.465 1642.35 205.941 Q1645.27 208.418 1645.27 213.418 Q1645.27 216.682 1643.74 218.835 Q1642.24 220.988 1639.34 221.821 M1627.63 207.307 L1627.63 219.576 L1633.51 219.576 Q1636.89 219.576 1638.6 218.025 Q1640.34 216.451 1640.34 213.418 Q1640.34 210.386 1638.6 208.858 Q1636.89 207.307 1633.51 207.307 L1627.63 207.307 Z" fill="#000000" fill-rule="nonzero" fill-opacity="1"></path><path clip-path="url(#clip660)" d="M1655.71 212.099 L1659.97 212.099 L1659.97 238.025 L1655.71 238.025 L1655.71 212.099 M1655.71 202.006 L1659.97 202.006 L1659.97 207.4 L1655.71 207.4 L1655.71 202.006 Z" fill="#000000" fill-rule="nonzero" fill-opacity="1"></path><path clip-path="url(#clip660)" d="M1685.41 212.863 L1685.41 216.891 Q1683.6 215.965 1681.66 215.502 Q1679.71 215.039 1677.63 215.039 Q1674.46 215.039 1672.86 216.011 Q1671.29 216.983 1671.29 218.928 Q1671.29 220.409 1672.42 221.265 Q1673.55 222.099 1676.98 222.863 L1678.44 223.187 Q1682.98 224.159 1684.87 225.941 Q1686.79 227.701 1686.79 230.872 Q1686.79 234.483 1683.92 236.589 Q1681.08 238.696 1676.08 238.696 Q1673.99 238.696 1671.73 238.279 Q1669.48 237.886 1666.98 237.076 L1666.98 232.677 Q1669.34 233.904 1671.63 234.529 Q1673.92 235.131 1676.17 235.131 Q1679.18 235.131 1680.8 234.113 Q1682.42 233.071 1682.42 231.196 Q1682.42 229.46 1681.24 228.534 Q1680.08 227.608 1676.12 226.752 L1674.64 226.404 Q1670.68 225.571 1668.92 223.858 Q1667.17 222.122 1667.17 219.113 Q1667.17 215.455 1669.76 213.465 Q1672.35 211.474 1677.12 211.474 Q1679.48 211.474 1681.56 211.821 Q1683.65 212.168 1685.41 212.863 Z" fill="#000000" fill-rule="nonzero" fill-opacity="1"></path><path clip-path="url(#clip660)" d="M1693.42 202.006 L1697.7 202.006 L1697.7 223.279 L1710.41 212.099 L1715.85 212.099 L1702.1 224.228 L1716.42 238.025 L1710.87 238.025 L1697.7 225.363 L1697.7 238.025 L1693.42 238.025 L1693.42 202.006 Z" fill="#000000" fill-rule="nonzero" fill-opacity="1"></path><path clip-path="url(#clip660)" d="M1747.84 208.071 L1741.49 225.27 L1754.2 225.27 L1747.84 208.071 M1745.2 203.465 L1750.5 203.465 L1763.67 238.025 L1758.81 238.025 L1755.66 229.159 L1740.08 229.159 L1736.93 238.025 L1732 238.025 L1745.2 203.465 Z" fill="#000000" fill-rule="nonzero" fill-opacity="1"></path><path clip-path="url(#clip660)" d="M1784.76 216.034 L1784.76 202.006 L1789.02 202.006 L1789.02 238.025 L1784.76 238.025 L1784.76 234.136 Q1783.41 236.451 1781.35 237.585 Q1779.32 238.696 1776.45 238.696 Q1771.75 238.696 1768.79 234.946 Q1765.85 231.196 1765.85 225.085 Q1765.85 218.974 1768.79 215.224 Q1771.75 211.474 1776.45 211.474 Q1779.32 211.474 1781.35 212.608 Q1783.41 213.719 1784.76 216.034 M1770.24 225.085 Q1770.24 229.784 1772.16 232.469 Q1774.11 235.131 1777.49 235.131 Q1780.87 235.131 1782.81 232.469 Q1784.76 229.784 1784.76 225.085 Q1784.76 220.386 1782.81 217.724 Q1780.87 215.039 1777.49 215.039 Q1774.11 215.039 1772.16 217.724 Q1770.24 220.386 1770.24 225.085 Z" fill="#000000" fill-rule="nonzero" fill-opacity="1"></path><path clip-path="url(#clip660)" d="M1797.79 212.099 L1802.05 212.099 L1802.05 238.488 Q1802.05 243.441 1800.15 245.663 Q1798.28 247.886 1794.09 247.886 L1792.47 247.886 L1792.47 244.275 L1793.6 244.275 Q1796.03 244.275 1796.91 243.14 Q1797.79 242.029 1797.79 238.488 L1797.79 212.099 M1797.79 202.006 L1802.05 202.006 L1802.05 207.4 L1797.79 207.4 L1797.79 202.006 Z" fill="#000000" fill-rule="nonzero" fill-opacity="1"></path><path clip-path="url(#clip660)" d="M1810.52 227.793 L1810.52 212.099 L1814.78 212.099 L1814.78 227.631 Q1814.78 231.312 1816.22 233.164 Q1817.65 234.992 1820.52 234.992 Q1823.97 234.992 1825.96 232.793 Q1827.97 230.594 1827.97 226.798 L1827.97 212.099 L1832.23 212.099 L1832.23 238.025 L1827.97 238.025 L1827.97 234.043 Q1826.42 236.404 1824.36 237.562 Q1822.33 238.696 1819.62 238.696 Q1815.15 238.696 1812.84 235.918 Q1810.52 233.14 1810.52 227.793 M1821.24 211.474 L1821.24 211.474 Z" fill="#000000" fill-rule="nonzero" fill-opacity="1"></path><path clip-path="url(#clip660)" d="M1857.53 212.863 L1857.53 216.891 Q1855.73 215.965 1853.78 215.502 Q1851.84 215.039 1849.76 215.039 Q1846.59 215.039 1844.99 216.011 Q1843.41 216.983 1843.41 218.928 Q1843.41 220.409 1844.55 221.265 Q1845.68 222.099 1849.11 222.863 L1850.57 223.187 Q1855.1 224.159 1857 225.941 Q1858.92 227.701 1858.92 230.872 Q1858.92 234.483 1856.05 236.589 Q1853.21 238.696 1848.21 238.696 Q1846.12 238.696 1843.85 238.279 Q1841.61 237.886 1839.11 237.076 L1839.11 232.677 Q1841.47 233.904 1843.76 234.529 Q1846.05 235.131 1848.3 235.131 Q1851.31 235.131 1852.93 234.113 Q1854.55 233.071 1854.55 231.196 Q1854.55 229.46 1853.37 228.534 Q1852.21 227.608 1848.25 226.752 L1846.77 226.404 Q1842.81 225.571 1841.05 223.858 Q1839.29 222.122 1839.29 219.113 Q1839.29 215.455 1841.89 213.465 Q1844.48 211.474 1849.25 211.474 Q1851.61 211.474 1853.69 211.821 Q1855.78 212.168 1857.53 212.863 Z" fill="#000000" fill-rule="nonzero" fill-opacity="1"></path><path clip-path="url(#clip660)" d="M1869.92 204.738 L1869.92 212.099 L1878.69 212.099 L1878.69 215.409 L1869.92 215.409 L1869.92 229.483 Q1869.92 232.654 1870.78 233.557 Q1871.66 234.46 1874.32 234.46 L1878.69 234.46 L1878.69 238.025 L1874.32 238.025 Q1869.39 238.025 1867.51 236.196 Q1865.64 234.344 1865.64 229.483 L1865.64 215.409 L1862.51 215.409 L1862.51 212.099 L1865.64 212.099 L1865.64 204.738 L1869.92 204.738 Z" fill="#000000" fill-rule="nonzero" fill-opacity="1"></path><path clip-path="url(#clip660)" d="M1906.47 223.997 L1906.47 226.08 L1886.89 226.08 Q1887.16 230.478 1889.53 232.793 Q1891.91 235.085 1896.15 235.085 Q1898.6 235.085 1900.89 234.483 Q1903.21 233.881 1905.47 232.677 L1905.47 236.705 Q1903.18 237.677 1900.78 238.187 Q1898.37 238.696 1895.89 238.696 Q1889.69 238.696 1886.05 235.085 Q1882.44 231.474 1882.44 225.316 Q1882.44 218.951 1885.87 215.224 Q1889.32 211.474 1895.15 211.474 Q1900.38 211.474 1903.41 214.853 Q1906.47 218.21 1906.47 223.997 M1902.21 222.747 Q1902.16 219.252 1900.24 217.168 Q1898.34 215.085 1895.2 215.085 Q1891.63 215.085 1889.48 217.099 Q1887.35 219.113 1887.03 222.77 L1902.21 222.747 Z" fill="#000000" fill-rule="nonzero" fill-opacity="1"></path><path clip-path="url(#clip660)" d="M1930.52 216.034 L1930.52 202.006 L1934.78 202.006 L1934.78 238.025 L1930.52 238.025 L1930.52 234.136 Q1929.18 236.451 1927.12 237.585 Q1925.08 238.696 1922.21 238.696 Q1917.51 238.696 1914.55 234.946 Q1911.61 231.196 1911.61 225.085 Q1911.61 218.974 1914.55 215.224 Q1917.51 211.474 1922.21 211.474 Q1925.08 211.474 1927.12 212.608 Q1929.18 213.719 1930.52 216.034 M1916.01 225.085 Q1916.01 229.784 1917.93 232.469 Q1919.87 235.131 1923.25 235.131 Q1926.63 235.131 1928.58 232.469 Q1930.52 229.784 1930.52 225.085 Q1930.52 220.386 1928.58 217.724 Q1926.63 215.039 1923.25 215.039 Q1919.87 215.039 1917.93 217.724 Q1916.01 220.386 1916.01 225.085 Z" fill="#000000" fill-rule="nonzero" fill-opacity="1"></path><path clip-path="url(#clip660)" d="M1975.2 221.821 Q1976.7 222.33 1978.11 223.997 Q1979.55 225.664 1980.98 228.58 L1985.73 238.025 L1980.71 238.025 L1976.28 229.159 Q1974.57 225.687 1972.95 224.553 Q1971.35 223.418 1968.58 223.418 L1963.48 223.418 L1963.48 238.025 L1958.81 238.025 L1958.81 203.465 L1969.36 203.465 Q1975.29 203.465 1978.21 205.941 Q1981.12 208.418 1981.12 213.418 Q1981.12 216.682 1979.59 218.835 Q1978.09 220.988 1975.2 221.821 M1963.48 207.307 L1963.48 219.576 L1969.36 219.576 Q1972.74 219.576 1974.46 218.025 Q1976.19 216.451 1976.19 213.418 Q1976.19 210.386 1974.46 208.858 Q1972.74 207.307 1969.36 207.307 L1963.48 207.307 Z" fill="#000000" fill-rule="nonzero" fill-opacity="1"></path><path clip-path="url(#clip660)" d="M2011.61 223.997 L2011.61 226.08 L1992.02 226.08 Q1992.3 230.478 1994.66 232.793 Q1997.05 235.085 2001.28 235.085 Q2003.74 235.085 2006.03 234.483 Q2008.34 233.881 2010.61 232.677 L2010.61 236.705 Q2008.32 237.677 2005.91 238.187 Q2003.51 238.696 2001.03 238.696 Q1994.83 238.696 1991.19 235.085 Q1987.58 231.474 1987.58 225.316 Q1987.58 218.951 1991.01 215.224 Q1994.46 211.474 2000.29 211.474 Q2005.52 211.474 2008.55 214.853 Q2011.61 218.21 2011.61 223.997 M2007.35 222.747 Q2007.3 219.252 2005.38 217.168 Q2003.48 215.085 2000.33 215.085 Q1996.77 215.085 1994.62 217.099 Q1992.49 219.113 1992.16 222.77 L2007.35 222.747 Z" fill="#000000" fill-rule="nonzero" fill-opacity="1"></path><path clip-path="url(#clip660)" d="M2022.81 204.738 L2022.81 212.099 L2031.58 212.099 L2031.58 215.409 L2022.81 215.409 L2022.81 229.483 Q2022.81 232.654 2023.67 233.557 Q2024.55 234.46 2027.21 234.46 L2031.58 234.46 L2031.58 238.025 L2027.21 238.025 Q2022.28 238.025 2020.4 236.196 Q2018.53 234.344 2018.53 229.483 L2018.53 215.409 L2015.4 215.409 L2015.4 212.099 L2018.53 212.099 L2018.53 204.738 L2022.81 204.738 Z" fill="#000000" fill-rule="nonzero" fill-opacity="1"></path><path clip-path="url(#clip660)" d="M2036.75 227.793 L2036.75 212.099 L2041.01 212.099 L2041.01 227.631 Q2041.01 231.312 2042.44 233.164 Q2043.88 234.992 2046.75 234.992 Q2050.2 234.992 2052.19 232.793 Q2054.2 230.594 2054.2 226.798 L2054.2 212.099 L2058.46 212.099 L2058.46 238.025 L2054.2 238.025 L2054.2 234.043 Q2052.65 236.404 2050.59 237.562 Q2048.55 238.696 2045.84 238.696 Q2041.38 238.696 2039.06 235.918 Q2036.75 233.14 2036.75 227.793 M2047.46 211.474 L2047.46 211.474 Z" fill="#000000" fill-rule="nonzero" fill-opacity="1"></path><path clip-path="url(#clip660)" d="M2082.26 216.08 Q2081.54 215.664 2080.68 215.478 Q2079.85 215.27 2078.83 215.27 Q2075.22 215.27 2073.27 217.631 Q2071.35 219.969 2071.35 224.367 L2071.35 238.025 L2067.07 238.025 L2067.07 212.099 L2071.35 212.099 L2071.35 216.127 Q2072.7 213.766 2074.85 212.631 Q2077 211.474 2080.08 211.474 Q2080.52 211.474 2081.05 211.543 Q2081.58 211.59 2082.23 211.705 L2082.26 216.08 Z" fill="#000000" fill-rule="nonzero" fill-opacity="1"></path><path clip-path="url(#clip660)" d="M2107.44 222.377 L2107.44 238.025 L2103.18 238.025 L2103.18 222.515 Q2103.18 218.835 2101.75 217.006 Q2100.31 215.178 2097.44 215.178 Q2093.99 215.178 2092 217.377 Q2090.01 219.576 2090.01 223.372 L2090.01 238.025 L2085.73 238.025 L2085.73 212.099 L2090.01 212.099 L2090.01 216.127 Q2091.54 213.789 2093.6 212.631 Q2095.68 211.474 2098.39 211.474 Q2102.86 211.474 2105.15 214.252 Q2107.44 217.006 2107.44 222.377 Z" fill="#000000" fill-rule="nonzero" fill-opacity="1"></path><polyline clip-path="url(#clip660)" style="stroke:#e26f46; stroke-linecap:round; stroke-linejoin:round; stroke-width:4; stroke-opacity:1; fill:none" points="1218.73,272.585 1363.16,272.585 "></polyline>
<path clip-path="url(#clip660)" d="M1400.43 289.865 L1387.24 255.305 L1392.12 255.305 L1403.07 284.402 L1414.04 255.305 L1418.9 255.305 L1405.73 289.865 L1400.43 289.865 Z" fill="#000000" fill-rule="nonzero" fill-opacity="1"></path><path clip-path="url(#clip660)" d="M1431.87 276.832 Q1426.7 276.832 1424.71 278.013 Q1422.72 279.193 1422.72 282.041 Q1422.72 284.309 1424.2 285.652 Q1425.71 286.971 1428.28 286.971 Q1431.82 286.971 1433.95 284.471 Q1436.1 281.948 1436.1 277.781 L1436.1 276.832 L1431.87 276.832 M1440.36 275.073 L1440.36 289.865 L1436.1 289.865 L1436.1 285.929 Q1434.64 288.291 1432.47 289.425 Q1430.29 290.536 1427.14 290.536 Q1423.16 290.536 1420.8 288.314 Q1418.46 286.068 1418.46 282.318 Q1418.46 277.943 1421.38 275.721 Q1424.32 273.499 1430.13 273.499 L1436.1 273.499 L1436.1 273.082 Q1436.1 270.143 1434.16 268.545 Q1432.24 266.925 1428.74 266.925 Q1426.52 266.925 1424.41 267.457 Q1422.31 267.99 1420.36 269.055 L1420.36 265.119 Q1422.7 264.217 1424.9 263.777 Q1427.1 263.314 1429.18 263.314 Q1434.81 263.314 1437.58 266.231 Q1440.36 269.147 1440.36 275.073 Z" fill="#000000" fill-rule="nonzero" fill-opacity="1"></path><path clip-path="url(#clip660)" d="M1464.16 267.92 Q1463.44 267.504 1462.58 267.318 Q1461.75 267.11 1460.73 267.11 Q1457.12 267.11 1455.18 269.471 Q1453.25 271.809 1453.25 276.207 L1453.25 289.865 L1448.97 289.865 L1448.97 263.939 L1453.25 263.939 L1453.25 267.967 Q1454.6 265.606 1456.75 264.471 Q1458.9 263.314 1461.98 263.314 Q1462.42 263.314 1462.95 263.383 Q1463.49 263.43 1464.13 263.545 L1464.16 267.92 Z" fill="#000000" fill-rule="nonzero" fill-opacity="1"></path><path clip-path="url(#clip660)" d="M1468.62 263.939 L1472.88 263.939 L1472.88 289.865 L1468.62 289.865 L1468.62 263.939 M1468.62 253.846 L1472.88 253.846 L1472.88 259.24 L1468.62 259.24 L1468.62 253.846 Z" fill="#000000" fill-rule="nonzero" fill-opacity="1"></path><path clip-path="url(#clip660)" d="M1493.58 276.832 Q1488.42 276.832 1486.43 278.013 Q1484.43 279.193 1484.43 282.041 Q1484.43 284.309 1485.92 285.652 Q1487.42 286.971 1489.99 286.971 Q1493.53 286.971 1495.66 284.471 Q1497.81 281.948 1497.81 277.781 L1497.81 276.832 L1493.58 276.832 M1502.07 275.073 L1502.07 289.865 L1497.81 289.865 L1497.81 285.929 Q1496.36 288.291 1494.18 289.425 Q1492 290.536 1488.86 290.536 Q1484.87 290.536 1482.51 288.314 Q1480.18 286.068 1480.18 282.318 Q1480.18 277.943 1483.09 275.721 Q1486.03 273.499 1491.84 273.499 L1497.81 273.499 L1497.81 273.082 Q1497.81 270.143 1495.87 268.545 Q1493.95 266.925 1490.45 266.925 Q1488.23 266.925 1486.12 267.457 Q1484.02 267.99 1482.07 269.055 L1482.07 265.119 Q1484.41 264.217 1486.61 263.777 Q1488.81 263.314 1490.89 263.314 Q1496.52 263.314 1499.3 266.231 Q1502.07 269.147 1502.07 275.073 Z" fill="#000000" fill-rule="nonzero" fill-opacity="1"></path><path clip-path="url(#clip660)" d="M1532.4 274.217 L1532.4 289.865 L1528.14 289.865 L1528.14 274.355 Q1528.14 270.675 1526.7 268.846 Q1525.27 267.018 1522.4 267.018 Q1518.95 267.018 1516.96 269.217 Q1514.97 271.416 1514.97 275.212 L1514.97 289.865 L1510.68 289.865 L1510.68 263.939 L1514.97 263.939 L1514.97 267.967 Q1516.49 265.629 1518.56 264.471 Q1520.64 263.314 1523.35 263.314 Q1527.81 263.314 1530.11 266.092 Q1532.4 268.846 1532.4 274.217 Z" fill="#000000" fill-rule="nonzero" fill-opacity="1"></path><path clip-path="url(#clip660)" d="M1559.55 264.934 L1559.55 268.916 Q1557.74 267.92 1555.92 267.434 Q1554.11 266.925 1552.26 266.925 Q1548.12 266.925 1545.82 269.564 Q1543.53 272.18 1543.53 276.925 Q1543.53 281.67 1545.82 284.309 Q1548.12 286.925 1552.26 286.925 Q1554.11 286.925 1555.92 286.439 Q1557.74 285.929 1559.55 284.934 L1559.55 288.869 Q1557.77 289.703 1555.85 290.119 Q1553.95 290.536 1551.8 290.536 Q1545.94 290.536 1542.49 286.855 Q1539.04 283.175 1539.04 276.925 Q1539.04 270.582 1542.51 266.948 Q1546.01 263.314 1552.07 263.314 Q1554.04 263.314 1555.92 263.731 Q1557.79 264.124 1559.55 264.934 Z" fill="#000000" fill-rule="nonzero" fill-opacity="1"></path><path clip-path="url(#clip660)" d="M1589.13 275.837 L1589.13 277.92 L1569.55 277.92 Q1569.83 282.318 1572.19 284.633 Q1574.57 286.925 1578.81 286.925 Q1581.26 286.925 1583.55 286.323 Q1585.87 285.721 1588.14 284.517 L1588.14 288.545 Q1585.85 289.517 1583.44 290.027 Q1581.03 290.536 1578.55 290.536 Q1572.35 290.536 1568.72 286.925 Q1565.11 283.314 1565.11 277.156 Q1565.11 270.791 1568.53 267.064 Q1571.98 263.314 1577.81 263.314 Q1583.05 263.314 1586.08 266.693 Q1589.13 270.05 1589.13 275.837 M1584.87 274.587 Q1584.83 271.092 1582.91 269.008 Q1581.01 266.925 1577.86 266.925 Q1574.3 266.925 1572.14 268.939 Q1570.01 270.953 1569.69 274.61 L1584.87 274.587 Z" fill="#000000" fill-rule="nonzero" fill-opacity="1"></path><path clip-path="url(#clip660)" d="M1616.05 273.36 L1616.05 286.022 L1623.55 286.022 Q1627.33 286.022 1629.13 284.471 Q1630.96 282.897 1630.96 279.68 Q1630.96 276.439 1629.13 274.911 Q1627.33 273.36 1623.55 273.36 L1616.05 273.36 M1616.05 259.147 L1616.05 269.564 L1622.98 269.564 Q1626.4 269.564 1628.07 268.291 Q1629.76 266.994 1629.76 264.356 Q1629.76 261.74 1628.07 260.444 Q1626.4 259.147 1622.98 259.147 L1616.05 259.147 M1611.38 255.305 L1623.32 255.305 Q1628.67 255.305 1631.56 257.527 Q1634.46 259.749 1634.46 263.846 Q1634.46 267.018 1632.98 268.893 Q1631.49 270.768 1628.62 271.23 Q1632.07 271.971 1633.97 274.332 Q1635.89 276.67 1635.89 280.189 Q1635.89 284.818 1632.74 287.342 Q1629.6 289.865 1623.79 289.865 L1611.38 289.865 L1611.38 255.305 Z" fill="#000000" fill-rule="nonzero" fill-opacity="1"></path><path clip-path="url(#clip660)" d="M1655.5 276.832 Q1650.34 276.832 1648.35 278.013 Q1646.36 279.193 1646.36 282.041 Q1646.36 284.309 1647.84 285.652 Q1649.34 286.971 1651.91 286.971 Q1655.45 286.971 1657.58 284.471 Q1659.73 281.948 1659.73 277.781 L1659.73 276.832 L1655.5 276.832 M1663.99 275.073 L1663.99 289.865 L1659.73 289.865 L1659.73 285.929 Q1658.28 288.291 1656.1 289.425 Q1653.92 290.536 1650.78 290.536 Q1646.8 290.536 1644.43 288.314 Q1642.1 286.068 1642.1 282.318 Q1642.1 277.943 1645.01 275.721 Q1647.95 273.499 1653.76 273.499 L1659.73 273.499 L1659.73 273.082 Q1659.73 270.143 1657.79 268.545 Q1655.87 266.925 1652.37 266.925 Q1650.15 266.925 1648.05 267.457 Q1645.94 267.99 1643.99 269.055 L1643.99 265.119 Q1646.33 264.217 1648.53 263.777 Q1650.73 263.314 1652.81 263.314 Q1658.44 263.314 1661.22 266.231 Q1663.99 269.147 1663.99 275.073 Z" fill="#000000" fill-rule="nonzero" fill-opacity="1"></path><path clip-path="url(#clip660)" d="M1689.29 264.703 L1689.29 268.731 Q1687.49 267.805 1685.54 267.342 Q1683.6 266.879 1681.52 266.879 Q1678.35 266.879 1676.75 267.851 Q1675.17 268.823 1675.17 270.768 Q1675.17 272.249 1676.31 273.105 Q1677.44 273.939 1680.87 274.703 L1682.33 275.027 Q1686.86 275.999 1688.76 277.781 Q1690.68 279.541 1690.68 282.712 Q1690.68 286.323 1687.81 288.429 Q1684.97 290.536 1679.97 290.536 Q1677.88 290.536 1675.61 290.119 Q1673.37 289.726 1670.87 288.916 L1670.87 284.517 Q1673.23 285.744 1675.52 286.369 Q1677.81 286.971 1680.06 286.971 Q1683.07 286.971 1684.69 285.953 Q1686.31 284.911 1686.31 283.036 Q1686.31 281.3 1685.13 280.374 Q1683.97 279.448 1680.01 278.592 L1678.53 278.244 Q1674.57 277.411 1672.81 275.698 Q1671.05 273.962 1671.05 270.953 Q1671.05 267.295 1673.65 265.305 Q1676.24 263.314 1681.01 263.314 Q1683.37 263.314 1685.45 263.661 Q1687.54 264.008 1689.29 264.703 Z" fill="#000000" fill-rule="nonzero" fill-opacity="1"></path><path clip-path="url(#clip660)" d="M1719.64 275.837 L1719.64 277.92 L1700.06 277.92 Q1700.34 282.318 1702.7 284.633 Q1705.08 286.925 1709.32 286.925 Q1711.77 286.925 1714.06 286.323 Q1716.38 285.721 1718.65 284.517 L1718.65 288.545 Q1716.35 289.517 1713.95 290.027 Q1711.54 290.536 1709.06 290.536 Q1702.86 290.536 1699.23 286.925 Q1695.61 283.314 1695.61 277.156 Q1695.61 270.791 1699.04 267.064 Q1702.49 263.314 1708.32 263.314 Q1713.55 263.314 1716.59 266.693 Q1719.64 270.05 1719.64 275.837 M1715.38 274.587 Q1715.34 271.092 1713.42 269.008 Q1711.52 266.925 1708.37 266.925 Q1704.8 266.925 1702.65 268.939 Q1700.52 270.953 1700.2 274.61 L1715.38 274.587 Z" fill="#000000" fill-rule="nonzero" fill-opacity="1"></path><path clip-path="url(#clip660)" d="M1743.69 267.874 L1743.69 253.846 L1747.95 253.846 L1747.95 289.865 L1743.69 289.865 L1743.69 285.976 Q1742.35 288.291 1740.29 289.425 Q1738.25 290.536 1735.38 290.536 Q1730.68 290.536 1727.72 286.786 Q1724.78 283.036 1724.78 276.925 Q1724.78 270.814 1727.72 267.064 Q1730.68 263.314 1735.38 263.314 Q1738.25 263.314 1740.29 264.448 Q1742.35 265.559 1743.69 267.874 M1729.18 276.925 Q1729.18 281.624 1731.1 284.309 Q1733.04 286.971 1736.42 286.971 Q1739.8 286.971 1741.75 284.309 Q1743.69 281.624 1743.69 276.925 Q1743.69 272.226 1741.75 269.564 Q1739.8 266.879 1736.42 266.879 Q1733.04 266.879 1731.1 269.564 Q1729.18 272.226 1729.18 276.925 Z" fill="#000000" fill-rule="nonzero" fill-opacity="1"></path><path clip-path="url(#clip660)" d="M1788.37 273.661 Q1789.87 274.17 1791.29 275.837 Q1792.72 277.504 1794.16 280.42 L1798.9 289.865 L1793.88 289.865 L1789.46 280.999 Q1787.74 277.527 1786.12 276.393 Q1784.53 275.258 1781.75 275.258 L1776.66 275.258 L1776.66 289.865 L1771.98 289.865 L1771.98 255.305 L1782.54 255.305 Q1788.46 255.305 1791.38 257.781 Q1794.29 260.258 1794.29 265.258 Q1794.29 268.522 1792.77 270.675 Q1791.26 272.828 1788.37 273.661 M1776.66 259.147 L1776.66 271.416 L1782.54 271.416 Q1785.91 271.416 1787.63 269.865 Q1789.36 268.291 1789.36 265.258 Q1789.36 262.226 1787.63 260.698 Q1785.91 259.147 1782.54 259.147 L1776.66 259.147 Z" fill="#000000" fill-rule="nonzero" fill-opacity="1"></path><path clip-path="url(#clip660)" d="M1804.73 263.939 L1808.99 263.939 L1808.99 289.865 L1804.73 289.865 L1804.73 263.939 M1804.73 253.846 L1808.99 253.846 L1808.99 259.24 L1804.73 259.24 L1804.73 253.846 Z" fill="#000000" fill-rule="nonzero" fill-opacity="1"></path><path clip-path="url(#clip660)" d="M1834.43 264.703 L1834.43 268.731 Q1832.63 267.805 1830.68 267.342 Q1828.74 266.879 1826.66 266.879 Q1823.48 266.879 1821.89 267.851 Q1820.31 268.823 1820.31 270.768 Q1820.31 272.249 1821.45 273.105 Q1822.58 273.939 1826.01 274.703 L1827.47 275.027 Q1832 275.999 1833.9 277.781 Q1835.82 279.541 1835.82 282.712 Q1835.82 286.323 1832.95 288.429 Q1830.1 290.536 1825.1 290.536 Q1823.02 290.536 1820.75 290.119 Q1818.51 289.726 1816.01 288.916 L1816.01 284.517 Q1818.37 285.744 1820.66 286.369 Q1822.95 286.971 1825.2 286.971 Q1828.21 286.971 1829.83 285.953 Q1831.45 284.911 1831.45 283.036 Q1831.45 281.3 1830.27 280.374 Q1829.11 279.448 1825.15 278.592 L1823.67 278.244 Q1819.71 277.411 1817.95 275.698 Q1816.19 273.962 1816.19 270.953 Q1816.19 267.295 1818.78 265.305 Q1821.38 263.314 1826.15 263.314 Q1828.51 263.314 1830.59 263.661 Q1832.67 264.008 1834.43 264.703 Z" fill="#000000" fill-rule="nonzero" fill-opacity="1"></path><path clip-path="url(#clip660)" d="M1842.44 253.846 L1846.72 253.846 L1846.72 275.119 L1859.43 263.939 L1864.87 263.939 L1851.12 276.068 L1865.45 289.865 L1859.9 289.865 L1846.72 277.203 L1846.72 289.865 L1842.44 289.865 L1842.44 253.846 Z" fill="#000000" fill-rule="nonzero" fill-opacity="1"></path><path clip-path="url(#clip660)" d="M1896.86 259.911 L1890.52 277.11 L1903.23 277.11 L1896.86 259.911 M1894.22 255.305 L1899.53 255.305 L1912.7 289.865 L1907.84 289.865 L1904.69 280.999 L1889.11 280.999 L1885.96 289.865 L1881.03 289.865 L1894.22 255.305 Z" fill="#000000" fill-rule="nonzero" fill-opacity="1"></path><path clip-path="url(#clip660)" d="M1933.78 267.874 L1933.78 253.846 L1938.04 253.846 L1938.04 289.865 L1933.78 289.865 L1933.78 285.976 Q1932.44 288.291 1930.38 289.425 Q1928.34 290.536 1925.47 290.536 Q1920.78 290.536 1917.81 286.786 Q1914.87 283.036 1914.87 276.925 Q1914.87 270.814 1917.81 267.064 Q1920.78 263.314 1925.47 263.314 Q1928.34 263.314 1930.38 264.448 Q1932.44 265.559 1933.78 267.874 M1919.27 276.925 Q1919.27 281.624 1921.19 284.309 Q1923.14 286.971 1926.52 286.971 Q1929.9 286.971 1931.84 284.309 Q1933.78 281.624 1933.78 276.925 Q1933.78 272.226 1931.84 269.564 Q1929.9 266.879 1926.52 266.879 Q1923.14 266.879 1921.19 269.564 Q1919.27 272.226 1919.27 276.925 Z" fill="#000000" fill-rule="nonzero" fill-opacity="1"></path><path clip-path="url(#clip660)" d="M1946.82 263.939 L1951.08 263.939 L1951.08 290.328 Q1951.08 295.281 1949.18 297.503 Q1947.3 299.726 1943.11 299.726 L1941.49 299.726 L1941.49 296.115 L1942.63 296.115 Q1945.06 296.115 1945.94 294.98 Q1946.82 293.869 1946.82 290.328 L1946.82 263.939 M1946.82 253.846 L1951.08 253.846 L1951.08 259.24 L1946.82 259.24 L1946.82 253.846 Z" fill="#000000" fill-rule="nonzero" fill-opacity="1"></path><path clip-path="url(#clip660)" d="M1959.55 279.633 L1959.55 263.939 L1963.81 263.939 L1963.81 279.471 Q1963.81 283.152 1965.24 285.004 Q1966.68 286.832 1969.55 286.832 Q1973 286.832 1974.99 284.633 Q1977 282.434 1977 278.638 L1977 263.939 L1981.26 263.939 L1981.26 289.865 L1977 289.865 L1977 285.883 Q1975.45 288.244 1973.39 289.402 Q1971.35 290.536 1968.65 290.536 Q1964.18 290.536 1961.86 287.758 Q1959.55 284.98 1959.55 279.633 M1970.27 263.314 L1970.27 263.314 Z" fill="#000000" fill-rule="nonzero" fill-opacity="1"></path><path clip-path="url(#clip660)" d="M2006.56 264.703 L2006.56 268.731 Q2004.76 267.805 2002.81 267.342 Q2000.87 266.879 1998.78 266.879 Q1995.61 266.879 1994.02 267.851 Q1992.44 268.823 1992.44 270.768 Q1992.44 272.249 1993.58 273.105 Q1994.71 273.939 1998.14 274.703 L1999.59 275.027 Q2004.13 275.999 2006.03 277.781 Q2007.95 279.541 2007.95 282.712 Q2007.95 286.323 2005.08 288.429 Q2002.23 290.536 1997.23 290.536 Q1995.15 290.536 1992.88 290.119 Q1990.64 289.726 1988.14 288.916 L1988.14 284.517 Q1990.5 285.744 1992.79 286.369 Q1995.08 286.971 1997.33 286.971 Q2000.33 286.971 2001.96 285.953 Q2003.58 284.911 2003.58 283.036 Q2003.58 281.3 2002.4 280.374 Q2001.24 279.448 1997.28 278.592 L1995.8 278.244 Q1991.84 277.411 1990.08 275.698 Q1988.32 273.962 1988.32 270.953 Q1988.32 267.295 1990.91 265.305 Q1993.51 263.314 1998.27 263.314 Q2000.64 263.314 2002.72 263.661 Q2004.8 264.008 2006.56 264.703 Z" fill="#000000" fill-rule="nonzero" fill-opacity="1"></path><path clip-path="url(#clip660)" d="M2018.95 256.578 L2018.95 263.939 L2027.72 263.939 L2027.72 267.249 L2018.95 267.249 L2018.95 281.323 Q2018.95 284.494 2019.8 285.397 Q2020.68 286.3 2023.34 286.3 L2027.72 286.3 L2027.72 289.865 L2023.34 289.865 Q2018.41 289.865 2016.54 288.036 Q2014.66 286.184 2014.66 281.323 L2014.66 267.249 L2011.54 267.249 L2011.54 263.939 L2014.66 263.939 L2014.66 256.578 L2018.95 256.578 Z" fill="#000000" fill-rule="nonzero" fill-opacity="1"></path><path clip-path="url(#clip660)" d="M2055.5 275.837 L2055.5 277.92 L2035.91 277.92 Q2036.19 282.318 2038.55 284.633 Q2040.94 286.925 2045.17 286.925 Q2047.63 286.925 2049.92 286.323 Q2052.23 285.721 2054.5 284.517 L2054.5 288.545 Q2052.21 289.517 2049.8 290.027 Q2047.39 290.536 2044.92 290.536 Q2038.71 290.536 2035.08 286.925 Q2031.47 283.314 2031.47 277.156 Q2031.47 270.791 2034.89 267.064 Q2038.34 263.314 2044.18 263.314 Q2049.41 263.314 2052.44 266.693 Q2055.5 270.05 2055.5 275.837 M2051.24 274.587 Q2051.19 271.092 2049.27 269.008 Q2047.37 266.925 2044.22 266.925 Q2040.66 266.925 2038.51 268.939 Q2036.38 270.953 2036.05 274.61 L2051.24 274.587 Z" fill="#000000" fill-rule="nonzero" fill-opacity="1"></path><path clip-path="url(#clip660)" d="M2079.55 267.874 L2079.55 253.846 L2083.81 253.846 L2083.81 289.865 L2079.55 289.865 L2079.55 285.976 Q2078.2 288.291 2076.14 289.425 Q2074.11 290.536 2071.24 290.536 Q2066.54 290.536 2063.58 286.786 Q2060.64 283.036 2060.64 276.925 Q2060.64 270.814 2063.58 267.064 Q2066.54 263.314 2071.24 263.314 Q2074.11 263.314 2076.14 264.448 Q2078.2 265.559 2079.55 267.874 M2065.03 276.925 Q2065.03 281.624 2066.95 284.309 Q2068.9 286.971 2072.28 286.971 Q2075.66 286.971 2077.6 284.309 Q2079.55 281.624 2079.55 276.925 Q2079.55 272.226 2077.6 269.564 Q2075.66 266.879 2072.28 266.879 Q2068.9 266.879 2066.95 269.564 Q2065.03 272.226 2065.03 276.925 Z" fill="#000000" fill-rule="nonzero" fill-opacity="1"></path><path clip-path="url(#clip660)" d="M2124.22 273.661 Q2125.73 274.17 2127.14 275.837 Q2128.57 277.504 2130.01 280.42 L2134.76 289.865 L2129.73 289.865 L2125.31 280.999 Q2123.6 277.527 2121.98 276.393 Q2120.38 275.258 2117.6 275.258 L2112.51 275.258 L2112.51 289.865 L2107.83 289.865 L2107.83 255.305 L2118.39 255.305 Q2124.32 255.305 2127.23 257.781 Q2130.15 260.258 2130.15 265.258 Q2130.15 268.522 2128.62 270.675 Q2127.12 272.828 2124.22 273.661 M2112.51 259.147 L2112.51 271.416 L2118.39 271.416 Q2121.77 271.416 2123.48 269.865 Q2125.22 268.291 2125.22 265.258 Q2125.22 262.226 2123.48 260.698 Q2121.77 259.147 2118.39 259.147 L2112.51 259.147 Z" fill="#000000" fill-rule="nonzero" fill-opacity="1"></path><path clip-path="url(#clip660)" d="M2160.64 275.837 L2160.64 277.92 L2141.05 277.92 Q2141.33 282.318 2143.69 284.633 Q2146.07 286.925 2150.31 286.925 Q2152.76 286.925 2155.06 286.323 Q2157.37 285.721 2159.64 284.517 L2159.64 288.545 Q2157.35 289.517 2154.94 290.027 Q2152.53 290.536 2150.06 290.536 Q2143.85 290.536 2140.22 286.925 Q2136.61 283.314 2136.61 277.156 Q2136.61 270.791 2140.03 267.064 Q2143.48 263.314 2149.32 263.314 Q2154.55 263.314 2157.58 266.693 Q2160.64 270.05 2160.64 275.837 M2156.38 274.587 Q2156.33 271.092 2154.41 269.008 Q2152.51 266.925 2149.36 266.925 Q2145.8 266.925 2143.64 268.939 Q2141.51 270.953 2141.19 274.61 L2156.38 274.587 Z" fill="#000000" fill-rule="nonzero" fill-opacity="1"></path><path clip-path="url(#clip660)" d="M2171.84 256.578 L2171.84 263.939 L2180.61 263.939 L2180.61 267.249 L2171.84 267.249 L2171.84 281.323 Q2171.84 284.494 2172.7 285.397 Q2173.57 286.3 2176.24 286.3 L2180.61 286.3 L2180.61 289.865 L2176.24 289.865 Q2171.31 289.865 2169.43 288.036 Q2167.56 286.184 2167.56 281.323 L2167.56 267.249 L2164.43 267.249 L2164.43 263.939 L2167.56 263.939 L2167.56 256.578 L2171.84 256.578 Z" fill="#000000" fill-rule="nonzero" fill-opacity="1"></path><path clip-path="url(#clip660)" d="M2185.77 279.633 L2185.77 263.939 L2190.03 263.939 L2190.03 279.471 Q2190.03 283.152 2191.47 285.004 Q2192.9 286.832 2195.77 286.832 Q2199.22 286.832 2201.21 284.633 Q2203.23 282.434 2203.23 278.638 L2203.23 263.939 L2207.49 263.939 L2207.49 289.865 L2203.23 289.865 L2203.23 285.883 Q2201.68 288.244 2199.62 289.402 Q2197.58 290.536 2194.87 290.536 Q2190.4 290.536 2188.09 287.758 Q2185.77 284.98 2185.77 279.633 M2196.49 263.314 L2196.49 263.314 Z" fill="#000000" fill-rule="nonzero" fill-opacity="1"></path><path clip-path="url(#clip660)" d="M2231.28 267.92 Q2230.57 267.504 2229.71 267.318 Q2228.88 267.11 2227.86 267.11 Q2224.25 267.11 2222.3 269.471 Q2220.38 271.809 2220.38 276.207 L2220.38 289.865 L2216.1 289.865 L2216.1 263.939 L2220.38 263.939 L2220.38 267.967 Q2221.72 265.606 2223.88 264.471 Q2226.03 263.314 2229.11 263.314 Q2229.55 263.314 2230.08 263.383 Q2230.61 263.43 2231.26 263.545 L2231.28 267.92 Z" fill="#000000" fill-rule="nonzero" fill-opacity="1"></path><path clip-path="url(#clip660)" d="M2256.47 274.217 L2256.47 289.865 L2252.21 289.865 L2252.21 274.355 Q2252.21 270.675 2250.77 268.846 Q2249.34 267.018 2246.47 267.018 Q2243.02 267.018 2241.03 269.217 Q2239.04 271.416 2239.04 275.212 L2239.04 289.865 L2234.75 289.865 L2234.75 263.939 L2239.04 263.939 L2239.04 267.967 Q2240.57 265.629 2242.63 264.471 Q2244.71 263.314 2247.42 263.314 Q2251.88 263.314 2254.18 266.092 Q2256.47 268.846 2256.47 274.217 Z" fill="#000000" fill-rule="nonzero" fill-opacity="1"></path></svg>